<mxfile modified="2022-08-29T17:16:34.360Z" host="app.diagrams.net" agent="5.0 (Windows NT 10.0; Win64; x64) AppleWebKit/537.36 (KHTML, like Gecko) Chrome/104.0.0.0 Safari/537.36" etag="8XGAekg-SWvpb1UwO3Rs" version="20.2.7" type="github">
  <diagram id="FEKjINcDisIPV5KZee3t" name="Page-1">
    <mxGraphModel dx="2607" dy="1427" grid="1" gridSize="10" guides="1" tooltips="1" connect="1" arrows="1" fold="1" page="1" pageScale="1" pageWidth="827" pageHeight="1169" math="0" shadow="0">
      <root>
        <mxCell id="0" />
        <mxCell id="1" parent="0" />
        <mxCell id="aELBI8OFU14AnCiIAI6i-1" value="st" style="fillColor=#B8FDFF;strokeColor=#6c8ebf;opacity=30;rounded=1;arcSize=2;" parent="1" vertex="1">
          <mxGeometry x="73" y="110" width="1510" height="330" as="geometry" />
        </mxCell>
        <mxCell id="aELBI8OFU14AnCiIAI6i-2" value="" style="fillColor=#9EFFCF;strokeColor=#6c8ebf;opacity=30;rounded=1;arcSize=2;" parent="1" vertex="1">
          <mxGeometry x="70" y="458" width="1520" height="494" as="geometry" />
        </mxCell>
        <mxCell id="aELBI8OFU14AnCiIAI6i-3" value="" style="fillColor=#81E87D;strokeColor=none;opacity=40;rounded=1;arcSize=10;" parent="1" vertex="1">
          <mxGeometry x="110" y="768.5" width="1460" height="174" as="geometry" />
        </mxCell>
        <mxCell id="aELBI8OFU14AnCiIAI6i-4" value="" style="fillColor=#12AAB5;strokeColor=none;opacity=50;rounded=1;" parent="1" vertex="1">
          <mxGeometry x="110" y="668.5" width="1460" height="80" as="geometry" />
        </mxCell>
        <mxCell id="aELBI8OFU14AnCiIAI6i-5" value="" style="fillColor=#158EBA;strokeColor=none;opacity=50;rounded=1;" parent="1" vertex="1">
          <mxGeometry x="110" y="577.5" width="1460" height="80" as="geometry" />
        </mxCell>
        <mxCell id="aELBI8OFU14AnCiIAI6i-6" value="don&#39;t take public transport and travel to the university on her parent&#39;s car" style="rounded=1;fillColor=#23445D;gradientColor=none;strokeColor=none;fontColor=#FFFFFF;fontStyle=0;fontFamily=Tahoma;fontSize=23;whiteSpace=wrap;" parent="1" vertex="1">
          <mxGeometry x="1113" y="468" width="360" height="80" as="geometry" />
        </mxCell>
        <mxCell id="aELBI8OFU14AnCiIAI6i-7" value="finish her undergraduate degree and continue her studies" style="rounded=1;fillColor=#23445D;gradientColor=none;strokeColor=none;fontColor=#FFFFFF;fontStyle=0;fontFamily=Tahoma;fontSize=23;whiteSpace=wrap;" parent="1" vertex="1">
          <mxGeometry x="473" y="468" width="437" height="80" as="geometry" />
        </mxCell>
        <mxCell id="aELBI8OFU14AnCiIAI6i-8" value="" style="edgeStyle=orthogonalEdgeStyle;rounded=0;html=1;jettySize=auto;orthogonalLoop=1;" parent="1" source="aELBI8OFU14AnCiIAI6i-9" target="aELBI8OFU14AnCiIAI6i-10" edge="1">
          <mxGeometry relative="1" as="geometry" />
        </mxCell>
        <mxCell id="aELBI8OFU14AnCiIAI6i-9" value="have a stable income " style="rounded=1;fillColor=#23445D;gradientColor=none;strokeColor=none;fontColor=#FFFFFF;fontStyle=0;fontFamily=Tahoma;fontSize=20;whiteSpace=wrap;" parent="1" vertex="1">
          <mxGeometry x="360" y="678" width="220" height="60" as="geometry" />
        </mxCell>
        <mxCell id="aELBI8OFU14AnCiIAI6i-10" value="get recognition and prestige " style="rounded=1;fillColor=#23445D;gradientColor=none;strokeColor=none;fontColor=#FFFFFF;fontStyle=0;fontFamily=Tahoma;fontSize=20;whiteSpace=wrap;" parent="1" vertex="1">
          <mxGeometry x="634" y="678" width="253" height="60" as="geometry" />
        </mxCell>
        <mxCell id="aELBI8OFU14AnCiIAI6i-11" value="get her diploma on an average of 4 year time " style="rounded=1;fillColor=#23445D;gradientColor=none;strokeColor=none;fontColor=#FFFFFF;fontStyle=0;fontFamily=Tahoma;fontSize=20;whiteSpace=wrap;" parent="1" vertex="1">
          <mxGeometry x="723" y="593" width="267" height="60" as="geometry" />
        </mxCell>
        <mxCell id="aELBI8OFU14AnCiIAI6i-12" value="spend less time taking time on house chores and car revisions" style="rounded=1;fillColor=#23445D;gradientColor=none;strokeColor=none;fontColor=#FFFFFF;fontStyle=0;fontFamily=Tahoma;fontSize=16;whiteSpace=wrap;" parent="1" vertex="1">
          <mxGeometry x="1053" y="678" width="207" height="60" as="geometry" />
        </mxCell>
        <mxCell id="aELBI8OFU14AnCiIAI6i-13" value="financially supported by her parents" style="rounded=1;fillColor=#23445D;gradientColor=none;strokeColor=none;fontColor=#FFFFFF;fontStyle=0;fontFamily=Tahoma;fontSize=20;whiteSpace=wrap;" parent="1" vertex="1">
          <mxGeometry x="1310" y="588" width="223" height="60" as="geometry" />
        </mxCell>
        <mxCell id="aELBI8OFU14AnCiIAI6i-14" value="" style="edgeStyle=elbowEdgeStyle;elbow=vertical;strokeWidth=2;rounded=0;entryX=0.5;entryY=0;exitX=0.5;exitY=1;" parent="1" source="aELBI8OFU14AnCiIAI6i-7" target="aELBI8OFU14AnCiIAI6i-9" edge="1">
          <mxGeometry x="-33" y="267.5" width="100" height="100" as="geometry">
            <mxPoint x="-33" y="367.5" as="sourcePoint" />
            <mxPoint x="472" y="587.5000000000001" as="targetPoint" />
            <Array as="points">
              <mxPoint x="560" y="571.5" />
            </Array>
          </mxGeometry>
        </mxCell>
        <mxCell id="aELBI8OFU14AnCiIAI6i-15" value="" style="edgeStyle=elbowEdgeStyle;elbow=vertical;strokeWidth=2;rounded=0;entryX=0.5;entryY=0;exitX=0.5;exitY=1;" parent="1" source="aELBI8OFU14AnCiIAI6i-7" target="aELBI8OFU14AnCiIAI6i-11" edge="1">
          <mxGeometry x="-33" y="267.5" width="100" height="100" as="geometry">
            <mxPoint x="-33" y="367.5" as="sourcePoint" />
            <mxPoint x="822" y="587.5" as="targetPoint" />
            <Array as="points">
              <mxPoint x="647" y="571.5" />
            </Array>
          </mxGeometry>
        </mxCell>
        <mxCell id="aELBI8OFU14AnCiIAI6i-16" value="" style="edgeStyle=elbowEdgeStyle;elbow=vertical;strokeWidth=2;rounded=0;exitX=0.5;exitY=1;" parent="1" source="aELBI8OFU14AnCiIAI6i-6" target="aELBI8OFU14AnCiIAI6i-12" edge="1">
          <mxGeometry x="-187" y="267.5" width="100" height="100" as="geometry">
            <mxPoint x="-187" y="367.5" as="sourcePoint" />
            <mxPoint x="-87" y="267.5" as="targetPoint" />
            <Array as="points">
              <mxPoint x="1150" y="570" />
              <mxPoint x="1230" y="570" />
              <mxPoint x="1220" y="560" />
              <mxPoint x="1230" y="561.5" />
            </Array>
          </mxGeometry>
        </mxCell>
        <mxCell id="aELBI8OFU14AnCiIAI6i-17" value="" style="edgeStyle=elbowEdgeStyle;elbow=vertical;strokeWidth=2;rounded=0;exitX=0.5;exitY=1;" parent="1" source="aELBI8OFU14AnCiIAI6i-6" target="aELBI8OFU14AnCiIAI6i-13" edge="1">
          <mxGeometry x="-187" y="267.5" width="100" height="100" as="geometry">
            <mxPoint x="-187" y="367.5" as="sourcePoint" />
            <mxPoint x="-87" y="267.5" as="targetPoint" />
            <Array as="points">
              <mxPoint x="1422" y="570" />
              <mxPoint x="1400" y="570" />
              <mxPoint x="1310" y="561.5" />
            </Array>
          </mxGeometry>
        </mxCell>
        <mxCell id="aELBI8OFU14AnCiIAI6i-18" value="&lt;h1&gt;&lt;font style=&quot;font-size: 41px&quot;&gt;Persona Goals&lt;/font&gt;&lt;/h1&gt;&lt;p&gt;What does the persona wants? (Desires,&amp;nbsp; motivations, etc.)&lt;/p&gt;" style="text;html=1;strokeColor=none;fillColor=none;spacing=5;spacingTop=-20;whiteSpace=wrap;overflow=hidden;rounded=0;fontFamily=Tahoma;align=center;" parent="1" vertex="1">
          <mxGeometry x="87" y="457.5" width="330" height="120" as="geometry" />
        </mxCell>
        <mxCell id="aELBI8OFU14AnCiIAI6i-19" value="&lt;h1 style=&quot;font-size: 26px;&quot;&gt;&lt;font style=&quot;font-size: 26px;&quot;&gt;Needs &amp;amp; Expectations&lt;/font&gt;&lt;/h1&gt;" style="text;html=1;strokeColor=none;fillColor=none;spacing=5;spacingTop=-20;whiteSpace=wrap;overflow=hidden;rounded=0;fontFamily=Tahoma;align=center;fontSize=26;" parent="1" vertex="1">
          <mxGeometry x="143.5" y="572" width="217" height="81" as="geometry" />
        </mxCell>
        <mxCell id="aELBI8OFU14AnCiIAI6i-20" value="&lt;h1 style=&quot;font-size: 26px&quot;&gt;&lt;font style=&quot;font-size: 26px&quot;&gt;Desires &amp;amp; Motivations&lt;/font&gt;&lt;/h1&gt;" style="text;html=1;strokeColor=none;fillColor=none;spacing=5;spacingTop=-20;whiteSpace=wrap;overflow=hidden;rounded=0;fontFamily=Tahoma;align=center;fontSize=26;" parent="1" vertex="1">
          <mxGeometry x="143.5" y="667" width="217" height="81" as="geometry" />
        </mxCell>
        <mxCell id="aELBI8OFU14AnCiIAI6i-21" value="Having a diploma will give her financial freedom and access to the laboral world, which in return  would open her more options to pursue higher education and money." style="rounded=1;fillColor=#12AAB5;strokeColor=#6c8ebf;fontColor=#000000;fontStyle=0;fontFamily=Tahoma;fontSize=23;labelBackgroundColor=none;opacity=60;arcSize=6;whiteSpace=wrap;" parent="1" vertex="1">
          <mxGeometry x="407" y="783" width="480" height="149" as="geometry" />
        </mxCell>
        <mxCell id="aELBI8OFU14AnCiIAI6i-22" value="&lt;h1 style=&quot;font-size: 50px;&quot;&gt;&lt;font style=&quot;font-size: 50px;&quot;&gt;Why?&lt;/font&gt;&lt;/h1&gt;" style="text;html=1;strokeColor=none;fillColor=none;spacing=5;spacingTop=-20;whiteSpace=wrap;overflow=hidden;rounded=0;fontFamily=Tahoma;align=center;fontSize=50;verticalAlign=middle;" parent="1" vertex="1">
          <mxGeometry x="144" y="772" width="217" height="170" as="geometry" />
        </mxCell>
        <mxCell id="aELBI8OFU14AnCiIAI6i-23" value="her career takes all her time by studying, projects and homework, having a balance between her social life and college takes  a toll on her." style="rounded=1;fillColor=#12AAB5;strokeColor=#6c8ebf;fontColor=#000000;fontStyle=0;fontFamily=Tahoma;fontSize=23;labelBackgroundColor=none;opacity=60;arcSize=6;whiteSpace=wrap;" parent="1" vertex="1">
          <mxGeometry x="1053" y="783" width="480" height="149" as="geometry" />
        </mxCell>
        <mxCell id="aELBI8OFU14AnCiIAI6i-24" value="" style="fillColor=#FFBF87;strokeColor=#d79b00;opacity=30;rounded=1;arcSize=2;" parent="1" vertex="1">
          <mxGeometry x="70" y="972.5" width="1520" height="420" as="geometry" />
        </mxCell>
        <mxCell id="aELBI8OFU14AnCiIAI6i-25" value="&lt;h1&gt;&lt;font style=&quot;font-size: 60px&quot;&gt;Persona &lt;/font&gt;&lt;font style=&quot;font-size: 40px&quot;&gt;Pain Points&lt;/font&gt;&lt;/h1&gt;&lt;p&gt;What difficulties does the Persona have? What impediments?&lt;/p&gt;" style="text;html=1;strokeColor=none;fillColor=none;spacing=5;spacingTop=-20;whiteSpace=wrap;overflow=hidden;rounded=0;fontFamily=Tahoma;align=center;verticalAlign=middle;" parent="1" vertex="1">
          <mxGeometry x="91" y="971.5" width="270" height="420" as="geometry" />
        </mxCell>
        <mxCell id="aELBI8OFU14AnCiIAI6i-26" value="time constraints on family time and other activities" style="rounded=1;fillColor=#F86459;gradientColor=none;strokeColor=#B85450;fontColor=#000000;fontStyle=0;fontFamily=Tahoma;fontSize=20;whiteSpace=wrap;labelBackgroundColor=none;opacity=80;" parent="1" vertex="1">
          <mxGeometry x="417" y="993" width="460" height="78" as="geometry" />
        </mxCell>
        <mxCell id="aELBI8OFU14AnCiIAI6i-27" value="soon to finish her career, looking for job options for extra income " style="rounded=1;fillColor=#F86459;gradientColor=none;strokeColor=#B85450;fontColor=#000000;fontStyle=0;fontFamily=Tahoma;fontSize=20;whiteSpace=wrap;labelBackgroundColor=none;opacity=80;" parent="1" vertex="1">
          <mxGeometry x="417" y="1130" width="460" height="77" as="geometry" />
        </mxCell>
        <mxCell id="aELBI8OFU14AnCiIAI6i-28" value="she has little to no knowdlege regarding a car technical revision " style="rounded=1;fillColor=#F86459;gradientColor=none;strokeColor=#B85450;fontColor=#000000;fontStyle=0;fontFamily=Tahoma;fontSize=20;whiteSpace=wrap;labelBackgroundColor=none;opacity=80;" parent="1" vertex="1">
          <mxGeometry x="1063" y="1132" width="460" height="69" as="geometry" />
        </mxCell>
        <mxCell id="aELBI8OFU14AnCiIAI6i-29" value="by using her parents car she needs to take care of all of the thecnical aspects of it as a condition." style="rounded=1;fillColor=#F86459;gradientColor=none;strokeColor=#B85450;fontColor=#000000;fontStyle=0;fontFamily=Tahoma;fontSize=20;whiteSpace=wrap;labelBackgroundColor=none;opacity=80;" parent="1" vertex="1">
          <mxGeometry x="1063" y="1000" width="460" height="77" as="geometry" />
        </mxCell>
        <mxCell id="aELBI8OFU14AnCiIAI6i-30" value="" style="edgeStyle=elbowEdgeStyle;elbow=horizontal;strokeWidth=2;rounded=0" parent="1" source="aELBI8OFU14AnCiIAI6i-21" target="aELBI8OFU14AnCiIAI6i-26" edge="1">
          <mxGeometry x="490" y="711.5" width="100" height="100" as="geometry">
            <mxPoint x="930" y="1061.5" as="sourcePoint" />
            <mxPoint x="930" y="1151.5" as="targetPoint" />
            <Array as="points">
              <mxPoint x="920" y="941.5" />
            </Array>
          </mxGeometry>
        </mxCell>
        <mxCell id="aELBI8OFU14AnCiIAI6i-31" value="" style="edgeStyle=elbowEdgeStyle;elbow=horizontal;strokeWidth=2;rounded=0;exitX=1;exitY=0.5;entryX=1;entryY=0.5;" parent="1" source="aELBI8OFU14AnCiIAI6i-21" target="aELBI8OFU14AnCiIAI6i-27" edge="1">
          <mxGeometry x="510" y="731.5" width="100" height="100" as="geometry">
            <mxPoint x="899.9999999999995" y="877.5" as="sourcePoint" />
            <mxPoint x="897" y="1041.5" as="targetPoint" />
            <Array as="points">
              <mxPoint x="920" y="1001.5" />
            </Array>
          </mxGeometry>
        </mxCell>
        <mxCell id="aELBI8OFU14AnCiIAI6i-32" value="" style="edgeStyle=orthogonalEdgeStyle;elbow=horizontal;strokeWidth=2;rounded=0;exitX=1;exitY=0.25;entryX=0;entryY=0.5;" parent="1" source="aELBI8OFU14AnCiIAI6i-21" target="aELBI8OFU14AnCiIAI6i-41" edge="1">
          <mxGeometry x="530" y="761.5" width="100" height="100" as="geometry">
            <mxPoint x="1680" y="911.5" as="sourcePoint" />
            <mxPoint x="877.1428571428573" y="1318.2142857142858" as="targetPoint" />
            <Array as="points">
              <mxPoint x="970" y="819.5" />
              <mxPoint x="970" y="1296.5" />
            </Array>
          </mxGeometry>
        </mxCell>
        <mxCell id="aELBI8OFU14AnCiIAI6i-33" value="" style="edgeStyle=orthogonalEdgeStyle;elbow=horizontal;strokeWidth=2;rounded=0;entryX=1;entryY=0.5;exitX=0;exitY=0.25;" parent="1" source="aELBI8OFU14AnCiIAI6i-23" target="aELBI8OFU14AnCiIAI6i-40" edge="1">
          <mxGeometry x="540" y="771.5" width="100" height="100" as="geometry">
            <mxPoint x="1660" y="858.5" as="sourcePoint" />
            <mxPoint x="1062.8571428571431" y="1316.7857142857144" as="targetPoint" />
            <Array as="points">
              <mxPoint x="970" y="819.5" />
              <mxPoint x="970" y="1296.5" />
            </Array>
          </mxGeometry>
        </mxCell>
        <mxCell id="aELBI8OFU14AnCiIAI6i-34" value="" style="edgeStyle=elbowEdgeStyle;elbow=horizontal;strokeWidth=2;rounded=0;entryX=0;entryY=0.5;exitX=0;exitY=0.5;" parent="1" source="aELBI8OFU14AnCiIAI6i-23" target="aELBI8OFU14AnCiIAI6i-29" edge="1">
          <mxGeometry x="580" y="811.5" width="100" height="100" as="geometry">
            <mxPoint x="1063" y="868.2142857142858" as="sourcePoint" />
            <mxPoint x="1073" y="1146.7857142857144" as="targetPoint" />
            <Array as="points">
              <mxPoint x="1020" y="1011.5" />
            </Array>
          </mxGeometry>
        </mxCell>
        <mxCell id="aELBI8OFU14AnCiIAI6i-35" value="" style="edgeStyle=elbowEdgeStyle;elbow=horizontal;strokeWidth=2;rounded=0;entryX=0;entryY=0.5;exitX=0;exitY=0.5;" parent="1" source="aELBI8OFU14AnCiIAI6i-23" target="aELBI8OFU14AnCiIAI6i-28" edge="1">
          <mxGeometry x="590" y="821.5" width="100" height="100" as="geometry">
            <mxPoint x="1063" y="868.2142857142858" as="sourcePoint" />
            <mxPoint x="1073" y="1086.7857142857144" as="targetPoint" />
            <Array as="points">
              <mxPoint x="1020" y="971.5" />
            </Array>
          </mxGeometry>
        </mxCell>
        <mxCell id="aELBI8OFU14AnCiIAI6i-36" value="" style="edgeStyle=elbowEdgeStyle;elbow=vertical;strokeWidth=2;rounded=0;entryX=0.5;entryY=0;exitX=0.5;exitY=1;" parent="1" source="aELBI8OFU14AnCiIAI6i-13" target="aELBI8OFU14AnCiIAI6i-23" edge="1">
          <mxGeometry x="620" y="851.5" width="100" height="100" as="geometry">
            <mxPoint x="1303.1764705882356" y="747.0882352941178" as="sourcePoint" />
            <mxPoint x="1303.1764705882356" y="792.9705882352941" as="targetPoint" />
            <Array as="points">
              <mxPoint x="1380" y="761.5" />
            </Array>
          </mxGeometry>
        </mxCell>
        <mxCell id="aELBI8OFU14AnCiIAI6i-37" value="" style="edgeStyle=elbowEdgeStyle;elbow=vertical;strokeWidth=2;rounded=0;entryX=0.5;entryY=0;exitX=0.5;exitY=1;" parent="1" source="aELBI8OFU14AnCiIAI6i-12" target="aELBI8OFU14AnCiIAI6i-23" edge="1">
          <mxGeometry x="630" y="861.5" width="100" height="100" as="geometry">
            <mxPoint x="1478.4705882352941" y="657.6764705882354" as="sourcePoint" />
            <mxPoint x="1303.1764705882356" y="792.9705882352941" as="targetPoint" />
            <Array as="points">
              <mxPoint x="1420" y="761.5" />
              <mxPoint x="1390" y="771.5" />
            </Array>
          </mxGeometry>
        </mxCell>
        <mxCell id="aELBI8OFU14AnCiIAI6i-38" value="" style="edgeStyle=elbowEdgeStyle;elbow=vertical;strokeWidth=2;rounded=0;entryX=0.5;entryY=0;exitX=0.5;exitY=1;" parent="1" source="aELBI8OFU14AnCiIAI6i-9" target="aELBI8OFU14AnCiIAI6i-21" edge="1">
          <mxGeometry x="-18" y="985.5" width="100" height="100" as="geometry">
            <mxPoint x="470" y="771.5" as="sourcePoint" />
            <mxPoint x="645" y="907.5" as="targetPoint" />
            <Array as="points">
              <mxPoint x="570" y="761.5" />
              <mxPoint x="742" y="895.5" />
            </Array>
          </mxGeometry>
        </mxCell>
        <mxCell id="aELBI8OFU14AnCiIAI6i-39" value="" style="edgeStyle=elbowEdgeStyle;elbow=vertical;strokeWidth=2;rounded=0;entryX=0.5;entryY=0;" parent="1" source="aELBI8OFU14AnCiIAI6i-5" target="aELBI8OFU14AnCiIAI6i-21" edge="1">
          <mxGeometry x="-27" y="960" width="100" height="100" as="geometry">
            <mxPoint x="821" y="756" as="sourcePoint" />
            <mxPoint x="646" y="791.5" as="targetPoint" />
            <Array as="points">
              <mxPoint x="900" y="760" />
              <mxPoint x="770" y="760" />
              <mxPoint x="750" y="760" />
              <mxPoint x="750" y="761.5" />
            </Array>
          </mxGeometry>
        </mxCell>
        <mxCell id="aELBI8OFU14AnCiIAI6i-40" value="her budget for things like fixing the car and taking care of it is narrow and limited." style="rounded=1;fillColor=#5490DE;strokeColor=none;fontColor=#000000;fontStyle=0;fontFamily=Tahoma;fontSize=20;whiteSpace=wrap;spacingLeft=10;spacingRight=10;opacity=80;" parent="1" vertex="1">
          <mxGeometry x="417" y="1241.5" width="460" height="110" as="geometry" />
        </mxCell>
        <mxCell id="aELBI8OFU14AnCiIAI6i-41" value="public transport is crowed and insecure, her only source of secure transport is her parent&#39;s car that takes every day to the University. " style="rounded=1;fillColor=#5490DE;strokeColor=none;fontColor=#000000;fontStyle=0;fontFamily=Tahoma;fontSize=20;whiteSpace=wrap;spacingLeft=10;spacingRight=10;opacity=80;" parent="1" vertex="1">
          <mxGeometry x="1063" y="1241.5" width="460" height="110" as="geometry" />
        </mxCell>
        <mxCell id="aELBI8OFU14AnCiIAI6i-42" value="&lt;h1&gt;&lt;font style=&quot;font-size: 41px&quot;&gt;Persona&lt;/font&gt;&lt;/h1&gt;&lt;p&gt;Who is the persona?&lt;/p&gt;" style="text;html=1;strokeColor=none;fillColor=none;spacing=5;spacingTop=-20;whiteSpace=wrap;overflow=hidden;rounded=0;fontFamily=Tahoma;align=center;" parent="1" vertex="1">
          <mxGeometry x="91" y="115" width="292" height="110" as="geometry" />
        </mxCell>
        <mxCell id="aELBI8OFU14AnCiIAI6i-43" value="" style="fillColor=#158EBA;strokeColor=#6c8ebf;opacity=30;rounded=1;arcSize=2;" parent="1" vertex="1">
          <mxGeometry x="1020" y="140" width="533" height="282" as="geometry" />
        </mxCell>
        <mxCell id="aELBI8OFU14AnCiIAI6i-44" value="&lt;h1 style=&quot;font-size: 26px&quot;&gt;&lt;font style=&quot;font-size: 26px&quot;&gt;Demographics&lt;/font&gt;&lt;/h1&gt;" style="text;html=1;strokeColor=none;fillColor=none;spacing=5;spacingTop=-20;whiteSpace=wrap;overflow=hidden;rounded=0;fontFamily=Tahoma;align=center;fontSize=26;" parent="1" vertex="1">
          <mxGeometry x="1040" y="150" width="229" height="50" as="geometry" />
        </mxCell>
        <mxCell id="aELBI8OFU14AnCiIAI6i-47" value="Female" style="rounded=1;fillColor=#275DAD;gradientColor=none;strokeColor=none;fontColor=#FFFFFF;fontStyle=0;fontFamily=Tahoma;fontSize=23;whiteSpace=wrap;" parent="1" vertex="1">
          <mxGeometry x="1061" y="330" width="215" height="70" as="geometry" />
        </mxCell>
        <mxCell id="aELBI8OFU14AnCiIAI6i-48" value="" style="fillColor=#158EBA;strokeColor=#6c8ebf;opacity=30;rounded=1;arcSize=2;" parent="1" vertex="1">
          <mxGeometry x="386.5" y="140" width="610" height="280" as="geometry" />
        </mxCell>
        <mxCell id="aELBI8OFU14AnCiIAI6i-49" value="&lt;h1 style=&quot;font-size: 26px&quot;&gt;&lt;font style=&quot;font-size: 26px&quot;&gt;Basic info&lt;/font&gt;&lt;/h1&gt;" style="text;html=1;strokeColor=none;fillColor=none;spacing=5;spacingTop=-20;whiteSpace=wrap;overflow=hidden;rounded=0;fontFamily=Tahoma;align=center;fontSize=26;" parent="1" vertex="1">
          <mxGeometry x="383" y="150" width="229" height="50" as="geometry" />
        </mxCell>
        <mxCell id="aELBI8OFU14AnCiIAI6i-50" value="age  23  years" style="rounded=1;fillColor=#275DAD;gradientColor=none;strokeColor=none;fontColor=#FFFFFF;fontStyle=0;fontFamily=Tahoma;fontSize=23;whiteSpace=wrap;" parent="1" vertex="1">
          <mxGeometry x="1073" y="234" width="203" height="65" as="geometry" />
        </mxCell>
        <mxCell id="aELBI8OFU14AnCiIAI6i-51" value="" style="fillColor=#D6D6D6;strokeColor=#6c8ebf;opacity=30;rounded=1;arcSize=2;" parent="1" vertex="1">
          <mxGeometry x="75" y="1410" width="1510" height="330" as="geometry" />
        </mxCell>
        <mxCell id="aELBI8OFU14AnCiIAI6i-52" value="&lt;h1&gt;&lt;font style=&quot;font-size: 40px&quot;&gt;Persona Environment&lt;/font&gt;&lt;/h1&gt;&lt;p&gt;&amp;nbsp;&amp;nbsp;&lt;span&gt;What technological devices does your persona use on a regular basis? What is their technical ability?&lt;/span&gt;&lt;/p&gt;" style="text;html=1;strokeColor=none;fillColor=none;spacing=5;spacingTop=-20;whiteSpace=wrap;overflow=hidden;rounded=0;fontFamily=Tahoma;align=center;verticalAlign=middle;" parent="1" vertex="1">
          <mxGeometry x="91" y="1430" width="282" height="220" as="geometry" />
        </mxCell>
        <mxCell id="aELBI8OFU14AnCiIAI6i-53" value="" style="fillColor=#9C89B8;strokeColor=#6c8ebf;opacity=30;rounded=1;arcSize=2;" parent="1" vertex="1">
          <mxGeometry x="420" y="1430" width="610" height="290" as="geometry" />
        </mxCell>
        <mxCell id="aELBI8OFU14AnCiIAI6i-54" value="&lt;h1 style=&quot;font-size: 26px&quot;&gt;&lt;font style=&quot;font-size: 26px&quot;&gt;Technical ability&lt;/font&gt;&lt;/h1&gt;" style="text;html=1;strokeColor=none;fillColor=none;spacing=5;spacingTop=-20;whiteSpace=wrap;overflow=hidden;rounded=0;fontFamily=Tahoma;align=center;fontSize=26;" parent="1" vertex="1">
          <mxGeometry x="430" y="1440" width="250" height="81" as="geometry" />
        </mxCell>
        <mxCell id="aELBI8OFU14AnCiIAI6i-55" value="" style="fillColor=#9C89B8;strokeColor=#6c8ebf;opacity=30;rounded=1;arcSize=2;" parent="1" vertex="1">
          <mxGeometry x="1060" y="1430" width="500" height="290" as="geometry" />
        </mxCell>
        <mxCell id="aELBI8OFU14AnCiIAI6i-56" value="&lt;h1 style=&quot;font-size: 26px&quot;&gt;&lt;font style=&quot;font-size: 26px&quot;&gt;Devices&lt;/font&gt;&lt;/h1&gt;" style="text;html=1;strokeColor=none;fillColor=none;spacing=5;spacingTop=-20;whiteSpace=wrap;overflow=hidden;rounded=0;fontFamily=Tahoma;align=center;fontSize=26;" parent="1" vertex="1">
          <mxGeometry x="1019" y="1444" width="250" height="81" as="geometry" />
        </mxCell>
        <mxCell id="aELBI8OFU14AnCiIAI6i-61" value="full time student, also has part time jobs from time to time." style="rounded=1;fillColor=#275DAD;gradientColor=none;strokeColor=none;fontColor=#FFFFFF;fontStyle=0;fontFamily=Tahoma;fontSize=18;whiteSpace=wrap;" parent="1" vertex="1">
          <mxGeometry x="438" y="318" width="209" height="63" as="geometry" />
        </mxCell>
        <mxCell id="aELBI8OFU14AnCiIAI6i-62" value="Carolina" style="rounded=1;fillColor=#275DAD;gradientColor=none;strokeColor=none;fontColor=#FFFFFF;fontStyle=0;fontFamily=Tahoma;fontSize=23;whiteSpace=wrap;" parent="1" vertex="1">
          <mxGeometry x="580" y="210" width="209" height="63" as="geometry" />
        </mxCell>
        <mxCell id="aELBI8OFU14AnCiIAI6i-63" value="lives in the north of the city " style="rounded=1;fillColor=#275DAD;gradientColor=none;strokeColor=none;fontColor=#FFFFFF;fontStyle=0;fontFamily=Tahoma;fontSize=23;whiteSpace=wrap;" parent="1" vertex="1">
          <mxGeometry x="1310" y="328" width="215" height="72" as="geometry" />
        </mxCell>
        <mxCell id="aELBI8OFU14AnCiIAI6i-65" value="windows laptopo" style="rounded=1;fillColor=#60495A;strokeColor=none;fontColor=#FFFFFF;fontStyle=0;fontFamily=Tahoma;fontSize=20;whiteSpace=wrap;spacingLeft=10;spacingRight=10;opacity=80;" parent="1" vertex="1">
          <mxGeometry x="1110" y="1505" width="200" height="155" as="geometry" />
        </mxCell>
        <mxCell id="aELBI8OFU14AnCiIAI6i-66" value="iphone 12 with iOS 15 or higher or high end android device " style="rounded=1;fillColor=#60495A;strokeColor=none;fontColor=#FFFFFF;fontStyle=0;fontFamily=Tahoma;fontSize=20;whiteSpace=wrap;spacingLeft=10;spacingRight=10;opacity=80;" parent="1" vertex="1">
          <mxGeometry x="1350" y="1505" width="183" height="155" as="geometry" />
        </mxCell>
        <mxCell id="aELBI8OFU14AnCiIAI6i-75" style="edgeStyle=orthogonalEdgeStyle;rounded=0;html=1;exitX=0.5;exitY=1;exitDx=0;exitDy=0;entryX=0.5;entryY=0;entryDx=0;entryDy=0;jettySize=auto;orthogonalLoop=1;" parent="1" source="aELBI8OFU14AnCiIAI6i-68" target="aELBI8OFU14AnCiIAI6i-74" edge="1">
          <mxGeometry relative="1" as="geometry" />
        </mxCell>
        <mxCell id="aELBI8OFU14AnCiIAI6i-68" value="has expirence with smarthphones and electronic devices " style="rounded=1;fillColor=#60495A;strokeColor=none;fontColor=#FFFFFF;fontStyle=0;fontFamily=Tahoma;fontSize=20;whiteSpace=wrap;spacingLeft=10;spacingRight=10;opacity=80;" parent="1" vertex="1">
          <mxGeometry x="440" y="1500" width="290" height="83" as="geometry" />
        </mxCell>
        <mxCell id="aELBI8OFU14AnCiIAI6i-69" value="has used and installed multiple apps" style="rounded=1;fillColor=#60495A;strokeColor=none;fontColor=#FFFFFF;fontStyle=0;fontFamily=Tahoma;fontSize=20;whiteSpace=wrap;spacingLeft=10;spacingRight=10;opacity=80;" parent="1" vertex="1">
          <mxGeometry x="760" y="1500" width="261.5" height="82.5" as="geometry" />
        </mxCell>
        <mxCell id="aELBI8OFU14AnCiIAI6i-71" value="knows how to use a movile app and web app " style="rounded=1;fillColor=#60495A;strokeColor=none;fontColor=#FFFFFF;fontStyle=0;fontFamily=Tahoma;fontSize=20;whiteSpace=wrap;spacingLeft=10;spacingRight=10;opacity=80;" parent="1" vertex="1">
          <mxGeometry x="770" y="1630.5" width="250" height="59" as="geometry" />
        </mxCell>
        <mxCell id="aELBI8OFU14AnCiIAI6i-74" value="as a college student has a degree of freedom in learning new technology and accessing it " style="rounded=1;fillColor=#60495A;strokeColor=none;fontColor=#FFFFFF;fontStyle=0;fontFamily=Tahoma;fontSize=20;whiteSpace=wrap;spacingLeft=10;spacingRight=10;opacity=80;" parent="1" vertex="1">
          <mxGeometry x="460" y="1618" width="243" height="82" as="geometry" />
        </mxCell>
        <mxCell id="aELBI8OFU14AnCiIAI6i-80" value="&lt;font color=&quot;#000000&quot;&gt;Photo&lt;/font&gt;" style="rounded=0;whiteSpace=wrap;html=1;fillColor=#FFFFFF;fontSize=20;fontColor=#FFFFFF;" parent="1" vertex="1">
          <mxGeometry x="144" y="220" width="190" height="190" as="geometry" />
        </mxCell>
        <mxCell id="aELBI8OFU14AnCiIAI6i-81" value="stratus 4-5" style="rounded=1;fillColor=#275DAD;gradientColor=none;strokeColor=none;fontColor=#FFFFFF;fontStyle=0;fontFamily=Tahoma;fontSize=23;whiteSpace=wrap;" parent="1" vertex="1">
          <mxGeometry x="1329.5" y="239" width="176" height="60" as="geometry" />
        </mxCell>
        <mxCell id="2dQkMgd6QpFcYR9VO3U9-1" value="" style="shape=image;verticalLabelPosition=bottom;labelBackgroundColor=default;verticalAlign=top;aspect=fixed;imageAspect=0;image=data:image/jpeg,/9j/4AAQSkZJRgABAQAAAQABAAD/7QA2UGhvdG9zaG9wIDMuMAA4QklNBAQAAAAAABkcAm4ADURlcG9zaXRwaG90b3McAgAAAgAEAP/hCztodHRwOi8vbnMuYWRvYmUuY29tL3hhcC8xLjAvADw/eHBhY2tldCBiZWdpbj0n77u/JyBpZD0nVzVNME1wQ2VoaUh6cmVTek5UY3prYzlkJz8+Cjx4OnhtcG1ldGEgeG1sbnM6eD0nYWRvYmU6bnM6bWV0YS8nIHg6eG1wdGs9J0ltYWdlOjpFeGlmVG9vbCAxMC4zNic+CjxyZGY6UkRGIHhtbG5zOnJkZj0naHR0cDovL3d3dy53My5vcmcvMTk5OS8wMi8yMi1yZGYtc3ludGF4LW5zIyc+CgogPHJkZjpEZXNjcmlwdGlvbiByZGY6YWJvdXQ9JycKICB4bWxuczpkYz0naHR0cDovL3B1cmwub3JnL2RjL2VsZW1lbnRzLzEuMS8nPgogIDxkYzpjcmVhdG9yPgogICA8cmRmOlNlcT4KICAgIDxyZGY6bGk+YXJlbWFmb3RvPC9yZGY6bGk+CiAgIDwvcmRmOlNlcT4KICA8L2RjOmNyZWF0b3I+CiA8L3JkZjpEZXNjcmlwdGlvbj4KPC9yZGY6UkRGPgo8L3g6eG1wbWV0YT4KICAgICAgICAgICAgICAgICAgICAgICAgICAgICAgICAgICAgICAgICAgICAgICAgICAgICAgICAgICAgICAgICAgICAgICAgICAgICAgICAgICAgICAgICAgICAgICAgICAgIAogICAgICAgICAgICAgICAgICAgICAgICAgICAgICAgICAgICAgICAgICAgICAgICAgICAgICAgICAgICAgICAgICAgICAgICAgICAgICAgICAgICAgICAgICAgICAgICAgICAgCiAgICAgICAgICAgICAgICAgICAgICAgICAgICAgICAgICAgICAgICAgICAgICAgICAgICAgICAgICAgICAgICAgICAgICAgICAgICAgICAgICAgICAgICAgICAgICAgICAgICAKICAgICAgICAgICAgICAgICAgICAgICAgICAgICAgICAgICAgICAgICAgICAgICAgICAgICAgICAgICAgICAgICAgICAgICAgICAgICAgICAgICAgICAgICAgICAgICAgICAgIAogICAgICAgICAgICAgICAgICAgICAgICAgICAgICAgICAgICAgICAgICAgICAgICAgICAgICAgICAgICAgICAgICAgICAgICAgICAgICAgICAgICAgICAgICAgICAgICAgICAgCiAgICAgICAgICAgICAgICAgICAgICAgICAgICAgICAgICAgICAgICAgICAgICAgICAgICAgICAgICAgICAgICAgICAgICAgICAgICAgICAgICAgICAgICAgICAgICAgICAgICAKICAgICAgICAgICAgICAgICAgICAgICAgICAgICAgICAgICAgICAgICAgICAgICAgICAgICAgICAgICAgICAgICAgICAgICAgICAgICAgICAgICAgICAgICAgICAgICAgICAgIAogICAgICAgICAgICAgICAgICAgICAgICAgICAgICAgICAgICAgICAgICAgICAgICAgICAgICAgICAgICAgICAgICAgICAgICAgICAgICAgICAgICAgICAgICAgICAgICAgICAgCiAgICAgICAgICAgICAgICAgICAgICAgICAgICAgICAgICAgICAgICAgICAgICAgICAgICAgICAgICAgICAgICAgICAgICAgICAgICAgICAgICAgICAgICAgICAgICAgICAgICAKICAgICAgICAgICAgICAgICAgICAgICAgICAgICAgICAgICAgICAgICAgICAgICAgICAgICAgICAgICAgICAgICAgICAgICAgICAgICAgICAgICAgICAgICAgICAgICAgICAgIAogICAgICAgICAgICAgICAgICAgICAgICAgICAgICAgICAgICAgICAgICAgICAgICAgICAgICAgICAgICAgICAgICAgICAgICAgICAgICAgICAgICAgICAgICAgICAgICAgICAgCiAgICAgICAgICAgICAgICAgICAgICAgICAgICAgICAgICAgICAgICAgICAgICAgICAgICAgICAgICAgICAgICAgICAgICAgICAgICAgICAgICAgICAgICAgICAgICAgICAgICAKICAgICAgICAgICAgICAgICAgICAgICAgICAgICAgICAgICAgICAgICAgICAgICAgICAgICAgICAgICAgICAgICAgICAgICAgICAgICAgICAgICAgICAgICAgICAgICAgICAgIAogICAgICAgICAgICAgICAgICAgICAgICAgICAgICAgICAgICAgICAgICAgICAgICAgICAgICAgICAgICAgICAgICAgICAgICAgICAgICAgICAgICAgICAgICAgICAgICAgICAgCiAgICAgICAgICAgICAgICAgICAgICAgICAgICAgICAgICAgICAgICAgICAgICAgICAgICAgICAgICAgICAgICAgICAgICAgICAgICAgICAgICAgICAgICAgICAgICAgICAgICAKICAgICAgICAgICAgICAgICAgICAgICAgICAgICAgICAgICAgICAgICAgICAgICAgICAgICAgICAgICAgICAgICAgICAgICAgICAgICAgICAgICAgICAgICAgICAgICAgICAgIAogICAgICAgICAgICAgICAgICAgICAgICAgICAgICAgICAgICAgICAgICAgICAgICAgICAgICAgICAgICAgICAgICAgICAgICAgICAgICAgICAgICAgICAgICAgICAgICAgICAgCiAgICAgICAgICAgICAgICAgICAgICAgICAgICAgICAgICAgICAgICAgICAgICAgICAgICAgICAgICAgICAgICAgICAgICAgICAgICAgICAgICAgICAgICAgICAgICAgICAgICAKICAgICAgICAgICAgICAgICAgICAgICAgICAgICAgICAgICAgICAgICAgICAgICAgICAgICAgICAgICAgICAgICAgICAgICAgICAgICAgICAgICAgICAgICAgICAgICAgICAgIAogICAgICAgICAgICAgICAgICAgICAgICAgICAgICAgICAgICAgICAgICAgICAgICAgICAgICAgICAgICAgICAgICAgICAgICAgICAgICAgICAgICAgICAgICAgICAgICAgICAgCiAgICAgICAgICAgICAgICAgICAgICAgICAgICAgICAgICAgICAgICAgICAgICAgICAgICAgICAgICAgICAgICAgICAgICAgICAgICAgICAgICAgICAgICAgICAgICAgICAgICAKICAgICAgICAgICAgICAgICAgICAgICAgICAgICAgICAgICAgICAgICAgICAgICAgICAgICAgICAgICAgICAgICAgICAgICAgICAgICAgICAgICAgICAgICAgICAgICAgICAgIAogICAgICAgICAgICAgICAgICAgICAgICAgICAgICAgICAgICAgICAgICAgICAgICAgICAgICAgICAgICAgICAgICAgICAgICAgICAgICAgICAgICAgICAgICAgICAgICAgICAgCiAgICAgICAgICAgICAgICAgICAgICAgICAgICAgICAgICAgICAgICAgICAgICAgICAgICAgICAgICAgICAgICAgICAgICAgICAgICAgICAgICAgICAgICAgICAgICAgICAgICAKPD94cGFja2V0IGVuZD0ndyc/Pv/+ADtDUkVBVE9SOiBnZC1qcGVnIHYxLjAgKHVzaW5nIElKRyBKUEVHIHY2MiksIHF1YWxpdHkgPSA4MAr/2wBDAAYEBQYFBAYGBQYHBwYIChAKCgkJChQODwwQFxQYGBcUFhYaHSUfGhsjHBYWICwgIyYnKSopGR8tMC0oMCUoKSj/2wBDAQcHBwoIChMKChMoGhYaKCgoKCgoKCgoKCgoKCgoKCgoKCgoKCgoKCgoKCgoKCgoKCgoKCgoKCgoKCgoKCgoKCj/wgARCAKqA/8DASIAAhEBAxEB/8QAHAAAAQUBAQEAAAAAAAAAAAAAAgABAwQFBgcI/8QAGQEBAQEBAQEAAAAAAAAAAAAAAAECAwQF/9oADAMBAAIQAxAAAAHuYL2fvy3CrSSyVpIaribaKCzAvPZmtmazVc3mpGlZasFqKKcVmGBmVwjs2LtZ61nTIWkBnvcFarWWIFO6QPM5A8zkKmcgeZJEpXIWnEgUzEJSOA8rkSmchU6IGsMVxsCVY7MRCEwrETnNDIUkKQpYieYpYXmdYFM5ANkSBrAlZrMepXaYbmORpLCNHTyhLYcsc6HK0kscF2Eyb9a3eW7bq3OXaWYSz3dJKwmxE0kUygIWIopQma9mCbWLBRnOhpnaaGSLMped+jee54efxzRdPULOrotjI1091ztPM6cXmhmQYZoiJOqUM8RgZmrl6zXcnmpmN1qwWq8VYZ4Yn0qGxpYvNfIXtvm5sOnCZoXRKUd4CorD2VlYSV3mRC8yIVMiFTOQSTogr3ISF5SSMpSIXnKWB7ClrDaYqBbjspRXIbKoWI1iJpJXmCTNlkCSUnTqk6hk6VmJgXJiOKaPWYhMdZExK5kOM6kkikslsV7BZmjmmhhswGaJ5uuPZaHPb/HpcISz6XSSpnEaI42QTjMBHIDMU1ee5ncHbkYGleF6mcvwnW8POPERTQ79Yp00+xkbFnumfcp9OTTBJDRyBULE1jwzxGFla+VrECcpqwxuVa1ustOGeGLO3ibtmrfp35oyJ86ghtRlILAlYLQJXawrKqnGyFTEQO+XnpqQ8dkZ3364Ro7e35vFc+phkdLvnRJzRjkMiKU86hU7y1xssVAtx2Ua9+vrNKC3BZXNniSSE5qeSEpZ3iIkQPBIUEkw6FlaNwuRFNrKMD1mQhJSkjOyW1UtWXJq82dlDLCZtG7JeXQ6QT+f0kQlejshCEBRRk0ykQsxxyxTNOaqXTleeuU3IEMEj4wc046fLNmu1WGeF6QTqUtrG27PZq5x9OU0jzy1YrlZIGZrmSM41xsnYyt4gJE1YRIq1rlWWlBZgibewt6zYv0dDOpCRTUccsSwCQgjIyRqRyFps8bnadfn6Js+5V5dRqT0uvG1SgFEacPfwGTorfM0tZ9dveW+l3FtyeGd1KLGxEE0dlatcrazSq3atzWRKxiYpSMHWQpbkUVpRlB5q4ajcIUIwO1ApHuY5DkuYymKoSlNIrAy1NME+dtFZBce4ErHWkj4+pnSVgdESJAOTTCEmSKOWGZzYQfr5tKVpcdqeX0GYxyeB0WDvlkVblWeypDYgz0BnU0W3iblz69MGlrlJK756jBZYxa+xma5jHZGzAytvH6c65O6zEnWvVuVoo17kEHu427Wrfp3s6kIXmgglrkLAxKhIckUtLi9Pnsd2mryY6T1bQ4udma+dvFcpXsCOWCwxA2ZVI81V6nnm1j2Kfmes1zieViMZBQBlRUg0Y7Mqvsx6zhrYa5yX1XMuxdmWCeeTNqq21mfW1axmlZVVysnFN7xVRK86U5LRFUrLrVeykrFM40iOaYJGWgZHcdIcUnH0CkrUmcdEiBGEwmJoihnhYyrsN68ikIp2AJhXmuH9O8+15uaq3Kuu9OvZr56gkpotvE3Ln2bUzdS5dJptJOR5Gtk3CSVznY3QUd4y303qg+iMZUOtFWSGycZ2xLdlGwUmdxtMy14bcZSVp0rHZJYMzW5yb5WroU51pSQwyWVQt8+oi0eUmcewY03S2OfXl36SGXnx16PTlRc5evGf1XyruN8uvGZrmuFliApSIFOisNprKatIqtaSVTncjMiWJSCkMNqOqispK5zEsJSuRPKiNzcBGgGNAIkCTIJ2Mqo2Y3Djk590kdqZ0JC40cgSMxNMxwTws52nl6jnZd3dxY2M/iO64e+bjKturvrTr2a+e0adSvuYm7c+y6eNoMWkJuiZQJHnmFwbs1QRWVZA8zkDWWWqNtJUksHKExSKxuUoNIJGEwkJGSRvIC0OY6rDmubzer5y3NoaNVtoGDFa5e6zj2x7esXD0ZpaKxug18s3Fx+vzd44cNPG9Xj093n5evD2k61veI2kYFE4KJAMbAMTILkwKJAsSBYlUSMUEZGBd0M7IdkhJkOyQyTUySQU6CkaQqmTM68sM/PqSSukkhCTAMhkJiGZCCeuzQ1MnXmLDs+u6Z0VuA9B4eefhq1iDpunWtVs9gZ1KW9g79z6vHYr656EmWpdKrAQ0iKx3TqxO4zE4DuwyJ1E0Q5icpOziEhGZxE7OKNxliyZHXIitCc5g9dyRQkl0Mdey0I7Xn9NYLEXPcTTnnVR5RzpobA3PPch6VyXblgSVbHq8npfYeS+s65pOrGToZnYYXESdkSSGSQydDM6GZ0CJtTMkMzsiZ2EkhM6GSYTO1jOzklivNEcUsdzrTQy8upuz60kmEDsM7FIKIZAq26zGVsYe253HZ76EzssXHdlyOfP5xBPB11Ur2a2O0adK+7hbtz7BBPDrmydCdOrunETOImQ6Sh0kMSZScSCMSUnZxCQjM4iZ4wXGhNUYazGxWe8cRzOjUK/d8V0mOveBzWjz3cED4dpDjo6lmniguuIWolxbdpfK49PD9Xk0PcPAvU9c+4SWspJDC7DMQiZ2RJITOwkkMnYSSGZ2pgNgUkjOZRE0rLEjGxmdhmdqTMSSTQzAQzws6s8E/LoTs+tpnEFM8ImekxNIFW3XmOf28HccNAhK+pM7WhyXWctnh5nBYg3alezWz2jTpp93C3rn12Mw1yZ2dXdnHdnHdnHSQ6Sh0kOmdU7EGUcik7OIXYFnYavLSlscr0fDLpxZGi1sXKzM8JTkzJez3/AD2xj0d3HzW9jV+eWLlqrQt1efULeXjejl2Vvz/czeppSFlxHB+kecd/OXV8hf6cvod8vU1hMkJnYYSFGSQkkJkhJITOwkkMnahZ2E7EiJNnTs6ACQLBYmsECQzs9kk0MwMcsaacsUvLbuyu3F1QOlBOxUzEwNexXzz53WytJ59U4yeo2TWhzXSc9nj5bBPB0tWvZrZ7RpPNPvYO9rPrQkO+TOzw7s6u7OO7OOkh0zwnZxOzqiEg3E1d2Q4uIIniLDJh6k0PGaeASbWF1E10XLdPwlxS4/o6OdXKXUKdJLWfv46dRDaimcjF3M3y+zM5Lsw9njzcbstLnvL6WGfh2wvMfVfNvRwybAH383qHf+Je13BOmpM4jM7IySEzsJJCSQmdDJITO1MJMM7JJELypJhAmpM6QWIRk6sOeCeGjljq/NTn5WZ43mjYWp3B0Mge6JkKNBJWmMK3kp5OwlqWZ7HdBdDzm/zM4+cwTwddVa9mvjtEnU0t7C3NZ9bEh3yZ0od2dXdId2cdJCdlDuyHSSuQkEYOGzpUzsRcD3/n0p6GPea40cjTV+/889Vlq+f9Vx1xFrY3f+f1wWNBce9fdg2PR5lS1MnFzI5D8fszorz7VLUs1gkYM5Pn/ccR25ZsGhS9fhse5+De2XO6khmcRmdkTOwkmHSQkkJJhJITO1MJCMkkSZDsLidnHZ2GZ2GSVhzwTyqOQLAs0aM575c5Jzb4cwDPVlgXMtcs6S9Lo1I1s5w89OVWhUp9OPq2tgbmPXJEY3cPO9Lm3Hk9e3V2rVrSx2orTdczbqadz6oBhvmklBOzq6TidnE7OJJCdnhOzjuLqZiSmmcYDYHmOmyF4KvpcdNU7dZjc9P5vVOaxLlNI/U+F9C8/srZk+By79R0XN6/byaWBq89naCqvL6xs5Vm3UlqTazYgMEyON7jktZ53Qhoe75j+3eH++2W0LiF2ELsiZ2EzsOmcSSEyQklSZ2GF2GSSMLuJJCSQzphM7CSVFNDNDxmFkGNsYu+WEoAvM4Rhzb1jEjxOkk5V83rYuWZdvNrCHC8TXruzzPTZ6kmdoadyjc+UVLlXeS1i6ZvOs7k68xZ3RJgIblnZwknh3Z1SSHdkOkhJKHTIUgkpkBhOzqwkw1exUPNOK6jm5prEPQHdZ+xyxX5zoObm+z6vmd3ye/MpybUa0tgfV4c3G18rz+vDutZ493r382TVko21sOEicrxIZ3s8HUcxIHbjc+gvn36CuZBJhMyRJMJnYTJUnZDpkJJhJITOwzOKIU4kkJJCSQkkCiESZwpoZR45IrK+Js4e+POA0aPG450EUkcos7KydoTOIMUkZ3Xc+Yd7jOuq6nWXGvc/rnxKbT3dnpM7XnSaRHNxxWICEXWubJIJ2eHcXV0kOmQ6ZgnZCJkE4EshAcE6SoSYavYE8t5XtOXlq+jQaq0MzW8/K2rznbcvT0OoFvh25vD62nqW9qnsenz4mB3mRn0cvY2s3G8OOW7ytjQpXfP0lzr3nPTlyZxH7vnyTNsS6vruJt75EkhC7AuwUaFkJmYNA4SBwmFDoUEzEMLsMkNjoXHdkO7KV0yEkwmJCmhlHjkCyphb+NvjyEVqvAsyaGOQJQTsM6cEJGIo5442O54TtMebSKOSdRw93O1nidx72+uppUL2e05RFKVSTOq/HKFwzi4STwnYlSJAsQjOzBODoTggyilWSSORSdPDM7AsUZz5YW2tzPz+FmgyyitrbvPNi+82PN/Q/P6jne5cSGEfblk85v4XP6QT19DnuVpVw5QGFWazfMul5j2+BOj7cJd7AsZ1650Hn3Z75bCglp2TDAQMsmaiYXQkDhIUEzMOhdTERJFE4YIEMozCQoNCldweCTOqdnHkjkExDZDQ0qznzdLoK2eXO1ugodNZMGlVbqsQqiRgqRyKOwJodbzXU54W5xnz1jrXoly5bJ62MzO2ZMMRYGtydd4EkbLJOMYqCMSVJ3URMQQcLkkLIbAxJNVnWzLDLNSOzwmTA07eJVa7NRXL5ve4/OsWndrNUkmZXpfmnT8+vsl/jun5dLkM8fTnm5Wzm8fRRmKXh3UJZI9eOzN8fyffcF7PA8sVntwNXegTm+t5m4nrd3k97WL7A1OChQ2ha5mGJyZQkSsDhODDvGBMIKWRApSEWSUonsN43qV4yVOzqTs6umcKSOSCZ2SOCzCzRgtxTNCjr1NzGqasGmJJtTxjy78ic+e6qwS2zK2vHazqeaOXG1HMDUTSDQuip4JqUudxHRcnZ6+BgjOzidngiZ2idCNGVexBFFcWmgSTtC6zTVZZb0tWabsFCQYiA9OxVKsGtWlpcR1ufNc3zPacCtdPaSG7TCX2u3Q1/J7LM9U9c3zhy8d9SrmBjqUEg50rMFnNz/MvWfOfR5c2WJevxafb+c9Onbc9tXryUtgDSeFg67U7iZZ73OgqZS3TqSzU713LEMI2TlDJmyOz8+iYmmmTvcCxD0wTi+8lJHJdETO07s6omccwkCZKRoyiZgiKLOWq2aulKYLw0lgsbjOaRaQ2w1K6sNYM4HLKcBLYYCtcSZRNKocrQ5xOfrwbS+ggYMs6Q7p5SdnVxICKrYoazBXr1by1ZMu2XXru1YlqyZt+bPNrRfPeauhTiS+qVsHM3M7O+UzY6qwctNCNrQWjKBJfT+z8y9M83osSNNZl4fTYXH0UAlbHaOOyMRTicFzfR0o4jK76h6fNxZbmJ6PL0vZeUau+Xqd/lOjuLUDxzMVK1Wzmqby5gvIcrSgzRtWFJigkuLE9Wfnu3JBLz7ELtdJKbeAOxJ2zUC8O5TKSPUIhJpOzq7s48kZwbOyBFNDMVIZ6/PAVZatzHpY92a1ZKNnPe7NVn3TYT3EiVBHJAgtESTywTtEndVHLWKHHdFxljdXkdQu3HNCyxIZTdmDIXHAo6r5mjkXGTUsQMWL1a6SMcUsklUee7zUmW61AFvtRM2daKjd1uJnyGp8E6TUQSMyQSwQkiOo9R8q9L4d96QJrmth7+Jjrmkd3n2p19bHhjZZ1CBLO4obcFYPKdlyPt8E+jT2PX5KshybwrcDxt6HCBxvocub2/Oc+1+uxRpXM/PNFWO5syQTk89WXnu0dYufewq5zVy1Vudk8gy9bGMw1Vgt19ZiICsJxdXIXUjjkCZAyoyizzr1LkXPnnVNWK5w5NV7alue1O0NiabWq8056sKnjar1Z6GsSSDNEliOedETGR0LuQc7hWprNboKWrLZilBAIWHdnp3FBRkCVcrUydc8gCGTQt1LubKMsONQVp4OXQYxhmjjjm0fdy7XRp8pCGulLE0c+WjHcZIYbtFIxYkIbMcvQ9/wPb8e3WW6N7XMMvTpY6ZejDozWbzvQ4XPtae8GsZw3izuo2jtaxznkfs3kXs8OvpyW/XwzrNyfUyq+5Txrl5Hfy9vSunp3s6gxOhFz4vM6zk75K5C95zHGRIUIzV16dnn1sW68/Hd+zSta3dlqzddygw6NXkhuIkzazIhe6IhdSONw2eNELiwJNLDPITcRSEsSmdQNiCdkKN4iDPuPcSWpJJuELUcsTSw1W5zc4+zM6TJ6gtXWKVRTRMggGyYoSJULqgMUqZGvma54MN2ozdu52ji2IjizqvBaXPWeF+LnYOozt/rrLwup5ze8ODZy7rJhsRFa/n7SYtCYyg9sJZJVoY6Tdrw/bc9dbdzr3TlDAJc+r6EdjfPnKu2uXeoN+RnKfWeWvrMXo8/D+Zd9wnXn3Vm8/o4047XFS7ed3Xn01RuUdHz9PZZE0oiQSrn99mPPX16/by1CtklFtAVp22mwaVj8+5Z4JOerMtUtatDCOqcIQMSKs282ypvteKmWtW5K0lsoMASjdDlgmzuYoym5HjckeNWSPGQbghRSxleaJ7L5RSTRAogq51UyuT2Kms3ehkuTUIyxpJBJVlirQ5Gs7kmBas3Jsq1F14DUKVytc5NLWra51rRyMi5rAInq8NBAUPHpqSZNft21Y5LW2Vg7eFtXGbO0O7lyZuXvc31WZQgKY1dDb1s+jke2odFnJvINxzmuVjn1lIH3zFiaVmYSSzWt7wYTVdZ8447psXePU6tnhOmM9Vpc79F877/AM+3mvs4Wxw6ezsTSxiQQmSWjkdHkb41XsPrNcbYFRrUbMEgrnmZNLy05OebCFiLCtXs1MZhhGmlw8kel3J+fn6t6bCsba7Zsml96sqylCHL0WGoR8PTqPmEaDUm78tA86Xtx0Dzxs02za6asePHc78nHxHZScZoTXQZVfLWr2HId8aEgnjcUFqCynnFgLDiR140rWFJXSX+Sv2dbYythI4tQzCHfe5xJNobnFr6+bOdKpJR8xR1y59zkqdD176ereo9eflE+Nr9FPJ7TlFp1Tq8trquT6y4zppbh6fNZdrkuji5jG+6OCa4TpSpIVQNFmmw3qkkhs9OQ1LOcnmIjY643fPugyCVkpe743eyumed2ed2uHT3VnjlYCEFJQqF+vc0XdbwhNiOOYbKgWo2WsRT4khI+Wo45g5qtTQrc85Ods52c5Fe/S3uEoYbvQsYb10Vrmdrpy3btPQ7EMwc/TQiKLx+2UoSzuZQv6OEqBenztTlp75MFQdZlZWEYrmgzh2NuSax4t6JrK6bEOa6ksF862WyrRyvPW6S5gXI4GR0rWad1Oq6PH3qnmCSGd1QhIBUytnN1z5jH3sfHLIuSHnrqblDn9dvVue6LltY4PZyKGtyYklfluCM4mC6nmekqv2vn3tjOm4yLc8o9Wzc7yNvlOqlkY3SIJmWnHfklguKLfOSzFJZTpzZ9nm0eX13TE3I9Ny25Oox562xztHtjj9bJ2PP098ExzoBAwWdoTOqzUYb5p0hmJiMJgQJBlZMnLlQjlg5I4ZoOeatHRpc8ZVDZqdLiV9Op06U1el6KvTU+m7YktvM3DXvU8dMeGWDwe83ifn0kUa3m0cNn1+SCvebtyzy3Z9Zwpdqtc1p6cDOqsWE262JQNzMxq83sBi1ZrsNjze6ejxXpJcmvv1jnMrp8aXH2amydLq4uqlx4kStXjq0FZkkoWK+s5VParazh1tetJs+Ve8+HY7ey8VFmy8oOlnNBXKeK8VprmPcyLltX6M8P93kz5IpiSzWcnVacZNEVqdzDdN2bH2WJKd/OTUZRGbnaONZ5J2vE9f0wue6fmtxDFf47p6Nah1zW3ef6Xnr3ClPXxqV5BIk4w6ZypBbqbw6ZWOKEQswdmvaCJLIa12rzleGaPlisFm6ZlfYr9dYdHoqvXOFNdm1W26OmpSMs7VG3QzrJrzV/D7kgXLqQjD053bWPZ9njv28Xf689Kw1iIoboGFzndYes+e1NDLSSHobkvDR9blLjPfjmo5k0et2qdlZq8tYzsLT54k2eT17Oz0Oe0zTjpVy3QpxXN27Ws3Ng6xj1J6tV02odVxPb1ufTzG43OLz9U47XYY5JUyaleK8d36bl6bNR1LKkYWQ2AiLtexES8pvU2tCwYshBLXL9elQlfOKsvm3bXKMt2CM8b0eF6/hko0b2d24j7F499BGhYhtytBLSHTGJ2UBl6/ObxcagOs6EdCE0RyxNrV5LopbxgWdPCcSQnFKkqTrDBZrLBTt4+pJLCSW7+LPZrKgcWKB0uXStEQ+L3Rpxx0GvNW6c43hH2eTR67mOt68tCeGfNJOlhztPPTinvamslZvyzWJkdbAnCZ/oGUcBQ6Tm5rv7u3Oc9Q7ETzjM9Zazya76VRONs38gkrQxGn11Lo+diU4248FnG6c71KpTsu9h556fNa1C/iY3zHEy7x5nFq0gDI1jXS9zHkvcdPsG42cMXJsuNdutkQruVsppdkMl4vQ1o1OlJWzqELASwKZpYFI0sQyDNNIFWNPke84zfPm6N2r6PO/0T4N72TWIJSCucZIiEd08NyHX8jrOc2a+s3YawrK9dy30HNbqdFJm2ZqzFHASWcy+WFG0FTkw6gr0bCXDrTWyMMbNyWmcT1nj49gRNw9EYGGdxVrNXeK7K16fNvdHk7e+dmUJJp2cCPG0+cua3SYvR2TmizsIp2KmfrZicTxnYcTX0OUzSxqViMZQivS0KVYHMdPyNlHpOc9OkvW0eOkEFrNM3mruRvI1pYRey+Q+zI/J9Zy81436H53OWcbWpLJWnetb17xL3LKoJx89g6dRaQQI5QljCQVYmkSJGBDVswzUITDLE5ioRyhLFHLHKKTxewNWpc8HHJF6vLvexeW+oGpEVIU8dgBnQncYXOdFRs84K+dZz6TmY+mxS36WxYxmkgzdPJK2xkai6DASRZWzRMO4Vla8lgipDfiKynCAd2xsRKPOxAgmoq9+vcwaedudeW1qU79kpC8rxSVyjzunm6xs7NO/NGkpUyYix9PmbOHwJWj6OTDK4jFUsdTKNfF5/Bs0sRgNH1Tz30bKdE+dV+b6HmlyodQs9MiDehmovR+T6zfFUL9LU8bodb5qXtLN19wYJh1nO93809V56oiTcusRJpXZMCJioCYQ5M1DGccsQSRyxs7Sxs6lAJI1jjkjlZM+dG7TyeYhZh9nj6n0zyD2SrMA2UMjQBPEJmcQmjhZI7FyLmlBpGJb8Fmx2ISDL080i0aV5LTs9DUt1ijYGaEZSLDBdCymF0ZaLXWikN91zC0DlzoNerZm79HcubdqKeV3TKNKzlWY9jN6DWdS1DNjbpMIDgKXA9b5fc4ehnaM19CxV81NDKx8iy/iPGsUFmEhZ2Oz7jluqymZDNUed2sDO5p683PsURRS7u9lavbzLn+gzdZ5rzH2HzS3nNHNq2bijHWOz6vheoxroGduXYGdpWTsICcUZxjxs00DGEsQSAsYnFCAmljRAsQE0oJPnRSwyxw1HYxvX47Xt3kvpms3dOjdHiNEKmQCcBxZ44m1Bb3kFMohUpVNKBiZxK1K5ARW4rCSkKp4ZIyCUZhzUgClchU7xXey61pZiKynRVq6MBW0oLiTyxyTSZwK+Bs8zrMfUc/0xbMSzpJMNSs5Sc35n1fF0d6jfzfUKedY1IgMBq8tceodQkGKU9G6Hnd7KwChmsrn9fBW1JmvOl6KlHHp92OTXJqluCzK8f9n4pvza5U098899HIs2e28t7/AA9BjsV+XYWcZoUTji4gxSgsbEMoimlADjVo5AiMCjmnAmiMSZQZ1muTHLznM9nxnp8vSdxwHXdOfcT15whJhnISGImCJnji1o8hrPWquqnVdy4dEy3HXjDjiEsS0TsvKq5YCEbJpqspZOvJLOURkpRyBTRySu7EMxsQw2IRWq9gnOM5VFJXM7m9nF3jZ3svXzqV2UrsgIeZ3eHueNyZY5qbTq68tyxly6zbGo5YhaMGparkNyrejv8AoOU6HOtCs9asbI1KdmcE0MsZjZT1SehnY3vtVt2Q5+k2p4BP6Fj7zmY/aeemZ1vI9Bl7Mwlz6AiWdsTCJnYASCVgdljEwlGKWOUQkiIwMJpmdRGnGaB3UqMDzanAelebejzaXQ8vp9uXsFuheQiSGrPGMZuRkhjN8Y94+eLPVpea6fUFGhkbkQzorjZYgU6InmeyFTuRSnICZyAEZwBm6umMd3QydiOKeMGaOQmOMpVUnz0xa7W943L9a3jbpMrwyVTM847TzO5zDCfO9Xczd8yTvWNZx5NQzKbZIxB6Bznbm1LK+tWuSywyAmdFfasiLYEw7lm4dlmaaxrz/c3uZ+f7OobjOp9HFsXo8708OZ8n9z8brK6bneoTv9USzpDJHjozspUJCMLsRhICxs7ShHJHLGBhKAkKsLtKKdSgiUomBZ1N5t6RwPfz0dDOLvw93v5uqjQTOV5JGACUAE7QPgP0B4kmF7D4f7FppK01lcp3iBWEVmtMVnsOQqdyF5XqMjIEykiM0YKJxiT0nShM6I2MASZwyjdQx9Ln7M/cwuludSxFLnbJMDnXsazlPPuo5EV2npZ1t7+Puli616yorjlN7JFY7BkBWXIJJTiMLDVTVmEiUiKt6rqGwk0qZKMznuxh8XpyNHKqebtt+S+rcF9Lx+d7/PdJ15+0R52xLSGfP5d7AwFLIgawgIRgMJY45I5REolEDaWNkMrM7KLs8rOQypOpS4/seZ68eZz9DU9Hl9a245RInAYnIhkiBYhheT+secHlfq3lfrOp0yBwkzBOCCQoJC4Tg4SFBlGSTHCZI4EG4vROLjuKgmZDg7ApMEzMtTmug5q5Pp+d6ar0kZZ07MxBzu5yNnDY1qrKWvk7su3u5eyPew7NmoWYUugdCWauyVJc7slARPLWlubDMtYGCWtYzAItvnelNESGVISGAoQILDct85m9tmfN9eL2fE3u06pC/v8AJnZWxR598SHXr8e8VzHoax1JYl3fO6MBBAw5rxIARUM1JG4BCymiQlKSSmlj7EVyWRt53Tnw3V8n0Ho8ntEmdeSRJlUYREkLuJxUFw3c8qeIel+aeh6ndM7WM7CEmQ6ZxExDOnGdOJ2McxIMgIJxcJMgkzDpmCFCOzNBxlGubg6+RrN7ocPdltuClIHgKXDdX57c82CWdT9Jg9QbWpWvnLnSn49rU0Frn1lsQ2OfWaaGTnuWSA0msVJ+/K08TevyFTlpawQQwkvXcJ6FLZFNLGVZyYAccQRIcTxzdWj3ng9mJ0Bw+zz16dym1XgtRce9Wjsljp5xa7PB6cjtU1qaD5YZuvHnFLcCuEtmOISdV1LaOrO1MlJZDFemuciDpdLePCei9P3u/ljsRMkonGO1WYISEAXaVZGvTs+d+15OWz2l/Nuys10nAcmGd0OncZ3QzohOiGJOjkLqTi47skdklTJDMQDMzBwyVzIz7VazT3MfYlnZNK9SznWYPnnZ8CVHYs3V63nexrUsnJZ53Zz5/P6dS7kXOPfUmzDl1Cy1ZrlkFqbEuNY68ddqzdvOebbybCrQ1Sx6v497HCZ3mgCUSASEEmcSdiK2ASnE4yxxTtNVxtNNBISRRFAtes9Lh6TgAefVDGCyhKRUa45QbTmsy+ywb/Xh0CF/T5CYUEhGjFRlqApJI56EhPBZhQWhRaGjcEEgx86V56th6VaY9gucf2OoydDJ0J0h0iRnTidIdJBOJDuLjpITpCToEJAWMDAKpZpmLGTWa+xka0pu0cr5Glh2cnxfT8pCkjsr0/Zc12Fl0jR5NJmnnWrPjmuyWQ6azY4m0sRjev8AJ2LO4PDu2X8q9mJVqS1lv+xeS+tQks+atQwzlQ78ALECnHAxlbnmXp+dRCwZ1M8QFlVyJWjjVUmrY6Q0J8vHWcKYzVtqskt0qss1OUUhLJAiyVQLn0Ac+97PASBXJCDqQgylbzTS5DKpI7FaNLVacSKKyJIq0x870L+eXhhSb3rvhvses6aSVOzjEkO7OM6SOkhOzjuzjuLjuyHcXCTOKOQCKOSJXoXc4yUL2bWplaUsoO8tXA3eXs47n9XJlfRztg7Dq+c6bWbbMMeKSCU1JJFISuBAsaAIjGmUxqX6N6yaldqmVXuQRq+reUeqARjNNRyFSGhu2StIo1KupF4votOjLDDfwOXW4s6bn1uz07usFXmyyMAtZ3l53Q465atwkZCazFAMt4qLl5Z7Ldjqgdb0fnHo/o8pKofTjKwMOgEOCaK2zPnSTOkDhEUigLJVSJK1rnjxnP0s1Dmr2gPUfN+r1PSkiGToSSGdMEmcdJCdkjuyHcUEhcJwIJxIcCAiikiUc3QyzMkhks2tLO0ZTZDLS5Lp+Os5CjYr5pdBgdTZ1fRYu5qGxCeQvafOqpWSKxWSKj2yKktiWIJppFmuwW7FBZiszq16vLoel+ZeoAuVSWO0SHEs0kAdEE0w6TgVrbS8nZnzeXo0i5fOxrp8Pl8Wu2r8VYuezq85LWzZ58s3oJMOzN6ENc5ZWaWWNrBLTG2KVvQ+E2N56qC9n9+EyqFvFtq6ZnUCDeBl0pqMmczqEQzhMs+bd94Uiy9XL0STZupq8zr3Pth1bVMkhMkJJCTodxcSSEkkdM46ZUTgokeNEgKIaF69PlXMiWrZz7lm/oZujKYFHGRxvW8XXLwmGbP2HKdpqdRrZmjrJDDCcGpS59IikIjOQiMzMjkMwDMg7MFpHhtwVRgsxA+r+S+pRK7pRJ6wsm/YDJkOhQkmCyNbzGal25rvPthUevS8HR9FE8wq+rieRj67HHkoeuseRL1HlTmTs3CtPrV87fRzIZrbhpnmyoHb7yPn+o7cMsJY+kY60e+doYFZOMCi/exr85zKrWk1DweXJ/PJBL9XSDWcZXqeaE8Bns23571OprtjCbTYom42G1bqwWToGwWN5YAnQLnknRLnVXRNzzHRLnmTo1zpHQR4bGrXzmW5mW87Oqt7MuHS6eFrFuIYox+L6zja55ks60e247r946aek+sKnDnLXVZ+XWydMy29Ny4VJF8qDmhNlWTRmzNVDrxQUUUUBY73zfpz0NM0sMEswBJCTOMyQ7gZi8Ft5XPv1lmnYmpVG9zIUJpK4NYbsYISRS1sLZycdeeraOfNs7CkzwGk4Mjqp+a9H7c+Q6aehVRgpTU+VxkCdNpcH0zHaVtOKa8oz7/O74TxCkJMi1ZhnJh2ef1KsYFkLsl3Oj47Z1nWDMRptnEXVTNJ2hckQFTozIXsSJTK4ZRfRKs4tI0zT05KzJdEko2bEk1Hm7GZnWXIiNPVyNQnieEwuS6flJcdMpdTouU2NY6iPGHWdClXrS//xAAxEAACAQMDBAECBgIDAQEBAAAAAQIDBBEQEiEFEyAxIjAyBhQjM0BBJFAVNDVCJUP/2gAIAQEAAQUCmhe8mTJIesyv7lpEQ0MY9MEURiKBsNhsNptMGDBgwYMGDBgwYMGDBgwYMaYMGDBgwYMGDBgxq9cCQkYMGDBgwYMGDBgwYMGNELVCEhaYJIqIso8QELyxqxjMcx8WMreurPh+C90CaJe09GPwmV/ctIiGMZLSKIRIwIwNhsNhtNptMGDBgwYMGDBgwYMGDBgxpgwYMGDBgwYMGDA0NaPXAkJGDBgwYMGDBgwYMD8ELRaIQtZFQs38YCF9J6Mj4sZV9dVQ/Be6BIqe46PxmV/b0QhjGS0gU4kIkYiibRxHE2m0wbTBgwYMGDBgwYMGDBTXylTb0wYEjBgwYMGDBgaGhjXghCF9Nj8ELwREWrKhaz2zpsj9Bn98j0/teLGyo+Orfa/b1XugTKhHR+Miv7eiEMZIlpTKSIIijBgaGhowYMG0wYMGDBgwYMGBwaPtgvmo4jHBgwYMGDBgwYMGBoaGtHotEL6jH4IWi0REWsioL7rZtlMXlkfgz+1rkySZKRVqcdTnkkPVFAkTI+ci49vRCGMkS0pFIpkdWhoaMGDBgxpgwYMG02k5QiO4pH5+kxX1IjXpSSWY4MGDBgwYMGDBgwNDQ0MeqEL6jH4LxREWsisUluqUKeEkLxZnxZJ8xZkyZGyrPirWKtYvKu5sesfdAkSF5yLj3LRCGSJEtKRRKZHwYzBgwYMGDBgwTq06ZUvGVr15nWlMuKkoNyc6Eq05Rp1J030zqSnKrtMiEjBgwYMGDBgaGiSGPwQvqPxXiiItZFY6fHM4LC8c6PxZUIsWkiUi5rFxXkTrSZIY9Y+6BJ6LRj8JFyPRCGMkS0pe6JTI+DH4YMGDBXqwoqvdzqDZUm4PEZvfTqk+I1Km9cGBcFtfyhGp1Gqnb9SUnRqb0voMZJEiX0cM5+ovFERC0kVTpf3Lx9/QZWISI6SKtQrPJXJEhj1j7oEhEYmwcCS8JFwPRCGMkS0p+6JTI+DH53dyqKqVN0skpcVO3SjGakq1NIcuOXphjjjSUuPtdjeSpVKFVVIebGSJEvJEYkYmBxJIevJhmGbWbGbGKDFTZ2ztnbNhsFEURRMDiVYHTliovPHlIuWUIMijBguKG5VoYK5IkMesfduSKcSMTBglEqQ5MEkXA9EIYyRLSn7olMjqxjZkyZ1uKvajWnl5y4xSrXWyEZ0++pJUafowYyPCGZFLmXrbkeU+k3WyVN5Xm0NDiSiOBtNhtNhCBGJtMGBxJRMGDBtNhsNhsNhtNptNptNokJasmWX7kfLGj8GSJxzKnES1aL2jkuESJEh6x925/dKOFqyojHI0XSGYMCGNEkSRtKceaMSmhaskPXAkei9q/JvJjLjtKLVEko0y4jBPAo5JYiehyR7FExw+EsMi9s+mXO5YMGNcGDaOI4Dgds7Z2zYbCMRRMGDA0SibTBtFE2m02m0wYMGDBgwYFqyaLNfOPj/ej8GSP/uKEvCusrqENspEiQ9V7tyHMo+MyX3aXUeNpsNhsHEcRxNh2inRKdMjESMaNDQ4m02m0US7nshWfcltcjHbdGMJurXUo02yeE4095WapLIqEpCt2Kjg2YGnjKHAjEt5ODsa3eo4MGDBgwYMG02m02m02m0SMGNMDQ0bTaYMGDBgwY+pItfvWnHk/Bkh8Th41fXVV8ZEiQ9Y+7cofd4zJ/dpV9bDYbDabRwNhsFTIQIxEjGuDBgwYMFR7Y3skVISZWjJULSLy6jjCK5zg4RWruBSpOZSoEaR20dolQJ0sE4mEQ9tHQ6mYmDBgwYMGDBgwYMGDBjxZgwYMGDH1lpItvvWi+kyRP76Xrwq+uqfayRIesfduUuJrwZUfhPkwYMGDBtNptFEURLywYMGNKpcr9SspJ3E59uc5YSyYUDJuLa1cnTt8EaZsNpsHAnSKtMqw5gx8nQ6my6j6+nj+YtJFL9xevpskP74C8KnrqoyRIeq92xOW2pCeUtZyJyyLwwY0wYMGDAkYF9JkvdzyVY4NkqhUTlJ4gqr2Kt8KfT7NzKdvtFTNumDBgcStS4uKeHnbUTKU3SrW81Up/6eBjmXMaf3x+g/Bkj/APpDxqeurR+LJEh6r3bFx99OTiRro78R10SqZ+hj+F/UvUWpFVdyvOOVKjiON9Wiu7XjHv3dskl4Y8JIuqXFxTw6LzH+vw9W32/+niJjxiPNSH1GTH+5S9eEzq6/SYyQ9V7tisvngwYMfypDL+o9ksUaFKOaUkpVOpfClc/GjD9O16VRKUONoxiibSUDBgwTjlX1LB6c3ldCr9u8/wBPHRkPvj9WoS/cpevCR1f9pjJD1Xu2Kv3fzGLmUntUMVL6vOVWnFKFK2i5HUp77qt+rO4alV6ZCGyKWJaYIoZJkq0EfmokbmDlLGLynmnUW2eeKE9srOr3qH+mWjF90PqMn6q/fQ+3wkdX/aYyQ9V7tip7/mM/rqFTt0aWadpR+bvpPZtVKjW+EHHZG0sp3Dp2tWiRrVIKncbkpZ03YK9fBVrykQoymqdnE/JQEp27ksx6jT2VJyKL4/DVfdS/lY+l70WjP/qHr6k/Vf76H2+EjqqzRkMkPVe7Yn7/AJk2Ll9brcXMu3StX845qXXUZ7be4xO6uJZOnzUKarj2TNmCmh8EpEo7iFNRE0hTIzJJSWMHW4YKnum+ei1+1ern/TLRi+6P1Zlf76HpeEjqf7MvbJD1RbD/AInr6FSWFn5b9tOvU/MdRq1e6qcu3R6ZH9Lq01BU007uovzFG7pwX/IUi3ut5SqFNcVRjkVK2Cd/RRDqFDNvdQqFOeSfJ1pZoyTIlOW2XTq3ftP9KtGf3H6sy4+62fxXhI6l+xL2yQ9V7th/yXpJlxXzLlU+o1e3TsJ7Xa5dFpVadDCqdXnucW6dL3J0qXYqdupXnZRo29CpvjQ+24RL1UlsjaW1O+p3aVN9LVt2alJOr02dZLJ1aObV6RfH4ZuM0v8ASrX+4/VmXL5tJcRfhI6g/wBKXtkh6r3bfy2X1bZTtH3K0qm+v1+rthRmo28GqVGwhmrHFKn1Of6l9xC2pbnCzoNSsqSat45s7fmiuK64fqrTOzAdvSZTo0kQjAitOpLNtXp4HHDijolXt3kfX+kWrIMyZMmfoMm+LqXNnV5pvXcSZ1R4pSGSHqi2/lz9dUq5qWctlG099Tr927h8bbO59ORdSzdV5/mb28e+5taPEKZ20U6WXTp4UI4VwYHEcDaRiRiJDL9/49d5pVIfp+p2stteznuofzf78lqxSwKRkybjebjJkyZMjkVp4VzUKVXbKznupofpEzqcd1KXtkh+Ft/GXjL11Gk/zU54Lip2LKpJzm1irT/c6fT2W1zPFO2Xyj+rdW1HEdhgpRIR0udWYEjGjOpv/GrQcKdx/wBRp7KH39Lebf8A0i1ZInVcCN9Ed9AlfkbzJC4I1RVDedwdQnVwXNwVamTdz039jOrLuO6jUXLGKnkVvk/LM/LsoUWP+J78+qx/Rt/lU6vWKay92biyp77i4qqha9Tlsht20OlU99elDCqcE6uCyzUcET9XD5S4wSltlBiFoy7juV2v060WqTlH/jrVZrdOWLf+T7+mtWSLj1k3EpG8jcNCvcH58XUcH/JRH1FFW9lIlVbGxs6b/wBReFb7Kv3shDJSoZIW5+WR+VIUMD/l9SjutqSVKN7U31KfxKK3Po1OMql2+5WuH37m/lin0KmL1cSKjzLpcu2VL6jTlKe6NxLMpV1SjRu4VSvPNSjLhMTMjKybl1VdulWW53Uyy/7FKOKa/wBOyRc+mZGMf0WdFnutNWV38K33r3b08lGkRpmw2DiP+XWS2Xc9pLl/3Q+zp+aVleVERgXj31elfGG743My1hvnSpJRlTjj9sq1JKTTnKFJDgtsOJLRadQ6hC2r17qVzX6jsjazOn/9uH2/6VaMmXPpvnOjH9BjOg1cRTMmRsvp4p1PupRy7WmU4iRgwND/AJdys0uoPdLGHFZXTKXfuburG3o7VtvqyiqK31LNYX9XRYU0oxJYK+BxSJY3Q0rxcSnLKQtOp1e9fR4dSo5uXqwjm5p/Z/pVoyZc+pe86v6LOmMpVOFIyTmXj+Evut4FuuIC1l/MqrdG8pvuzSRGO86VaxtaU91Sc6kaNO5qupO1pYLaHGC8iVeoV6B038xdxVtUxVtqzjUp1HOVrXT/ACtypXtzWsync1K0aH2rTqNf8vae2jBjK6JZSlVXr/TsmXPqXvV/RZ05803xoy8+1R+dCJRI6ZGTf116+ozrNNwnQozrVLWyhQTUqhdSVIvbnuy3bXZYmUY4RcQ3K2tUy1tpWjp1/i69Nx/MUO5WvKcSr1B9yFrKtUqUSisJGTr933aohFlSU52ccR/iL16/grRki4jlThy19RnT/upkdGV45So80oYKYjOjZWn9bI/JfQuLylGrCcpCoRzfXUaMLy5lXmyo8vpV12qtN/E25KUMEOByRdSib8vciDihImj0ZOqXv5ei3l6QZbYZZTqQhTqqX8PJIz/DZIqRKlPmVIlSHAcR+ODBgaLJc0yOjRNGwjEitFpNlzPH1XyZ8kLzl6m+91OnVqyL6damXCr1W+CbH7Oi9U2ieSKIrSbLhJkqSFTRBKJFDGTng6z78KcsHS+pcQ2kf4L5Mpjf8JasmiUSUSUCcRokh+f92q5pERaNGDHgyqy9qfTXvI+JeSF53NRUqNjSxCcZRVyo0y4ue5GoMYtOj3j7NFqSWjRVgTpmwjHSbwVJi5Osx4ERNvEUQfNjdzpOhNTj5Z0yZM6ZMi97mN4k3n+GtWMaGiUScSUSaHAjRFbn5YVsfl0flyNvzSopFOItWY1WkmXE8K7nmT+j60fvziIXl1T5W9JKMKk4MrW9KRdVYm3JLw6NP5285UnQrKaGTKj0ROWCpUPYjqkM0NI8lL1S6d+YtnTcZUdyLeLpxo1lNaMbMmTJnTOiZ9ujfOf4i8JIekkTRJGzIqRCkRpnbNhtNhGJFEReaGVGXlTj75v6HGrGzJkz4IQvK4xKEXKmu13J3ChGlVpd2VSlguuHo1hWE+3c01mMUQqNG9MnySWlStGJObloiJdw3U3xITKbydFrYjdW9K4VtbYuFTdJQeSMjI2SkbjcbjcZMi5bcdc/xV4MloyQ1lxgKAoiibTBgwYELTPnIry4vJ5dvHzjyenjRkmNm43GTJkyJiYmZMmTJklBykopFSe1Sp9wlt3XDShWlumUsJSI8Pp81O2XJElEq5ROcxtvTGiEVV8byjtq6Qlg6ZXiqirPFrBQUuCjHDGyTJyN4pGTImQakbts2iUjJkX1F9BeDJMZnJJn90xGBIwOJtNptMarxQyoy7qYUvnO2h5+1rIkyUjebhMyZMiYmJmTJk3G4yxxcldRlSjUu5JKo5vqNfjRUdtKTyzoNbdbRFpVRNcvXAhEvVxR3FW2JQcdIycXZ3/bLe8p1BTU3EbJMkyeiMmSKbX3R3KSU0ZExMixeWDabTaYF9BeDJDMkj+6YhCFpgwYMDGIXjIrSL2oUI5dvDjx9eMioypM3kZEZCZkTEzcbjebxzHUISy1F54iq8sxupd2rVn+XhUk5yLOClUva25n99AlgpelpVRVXLRgwYEtZonTKlBMq2yHHDwW9Oala16ECFanNZGMkYFE2nbPtWcKTyzIhERaZ0QkJGDBga+ivBkhjZNmeYTFIjIUjcZMmdGxyG9ELwmXU8Ks907WBRjw9cMfv+tWSZWZU0gREZMmTcbjcbzcJ5dqnu3cXl52VXrV7h7428bibqSekcpMQ/fRHh2zyo6TK2mDaSEMejRJF28QLd4ly9FJiqSI3FWJSu8kJxqJISNjKi+U+KcpNmTOiEIyZMiERF4ND+gtWMmyRJkmSZGZGZGRGQmJi1bJMWiFqyq+L2oU47pW0CmtVp/fgyZWJ6QQtHpuNxuNxuNxFtSpYlG6gXcaVIdVyJy5kzHLQ/TF7Z0vgtZEdJrJWXO0hAnHib5iMaFpMr0J1Kc+JW0cz7Y4kYG0kuKraiqjproUalxFW8CpBwnPOahIyJiYtEzJuMkWRIi8GS+gvBjQ4DpDoH5Y/KkaGBURUhUxQNptHEmiT5iJCQtZFxLCupbp20ChEij2el/9f14smViQvcBCQ0MejY2ZIZkW0VF3NyqarVJ3U7qKTmyQly1hjZ/UEf3Y8FlIpvRlZCRCPFzxF8yhHhxHEwKAqLqT6pTVDpsuanT6WXKIoG07ZVWC6zCpcR7segw2dOJxUo1aUoFQnqjJuNxuNwiAiIvBkvoLywYMG02m0xjyZM2ZlTpiibTGjJl5PCS3TtKaKcTgyNmfNkyqS9ogyOkmNjY2NmSEN5GDRJ9iNSo6kpz2xqyGsuVMcREtEJfCK+VtwWJT0ZMiuYR4vftprLjHiSNpGBgtqPbj15f4FJZr9Oh/jOPMKY4kacqhKvTomXc3tWttq2kNlAY/V3a8TXOBISMeEEIREiJiZkyNj+gvJeeBasZMox5Wr0kVmXk8u3hzQhxHDOB4HpnyZMrEzJBkWZJMbGPJtIwy6NDbCqthdQaHmKqcG0ZJjpfpzMDMDWIqPyonTyB/UhkIiXF8tzpUsGBo2G1ltSEj8RT+Nt+/Yw22G0USSioZq3rv/grTitb0qdfqEV49QtsrabTabTabRRIowIiITMmTI2NmTJkyZMnsXkvqMZT8HpMup4UvlO2plOPxXGr1yZM6smVUTiYKZHSRtybB6WNPdUzuK0owTi6kqkFvnHEqsnJz+JBOak/8SrLmMfjUhiG3MZR+dWG2FL3Y8RpMzxUmQ5IofqUN0tgom02ihlj4j+IGWxSp7bbaS2KFa5n1C8SiqfU3+ra/Z0GO7q68XyXFHZV2m02m02mPBaZMmTI2Nm43G43G4yJiZkbM6oyZMmTJkyZMmdGMgxPTJkbKki9qFpS7k6VJRNhKOjJEpDmbxTFIzrImicRxIxEtNukmSZkhVxHv4JTdQqVMKo+2VX8VEqe6PFeu8UZfdZpVLGWHSpx+XY4rW+bSytMlC3UVGJUXwjuc6aIktMaejJFYSJ8n4hfzt1+lJYTwzqN3+erQ+E5P49Q/ctf2vw5/6vldQ3R2m02m02m0xotV4NjY5DmbzuCmKYpCkbjcZMmTed07x3jvHeO8d07gqhvNxvHI3iro/MI7+TuDqFetxUlvl06ntppaS0ZNlaeCVYVUhMjMUhMyNkiSMCiYMDJEmSF7zthFspxyqNm+5fKNGb5T+MW8ylL9S4qZP76H9s/iqP30qObSlRU6VjjERE+UqeBLwemSEcy9sqvjrss1bSGadTLfW7zLpQ2xqft5zQ6lxO0+z8Oy29U8pcpxw8GDBgwNaLRa4GiRImSY5m8VQVUVUVQ7gpCkZ0Y/JCZuO4d0lVO+SqkqjO7IjXeYVx1CtLJThmdtxBaS0kyrPBc1RzeVMjVI1SFUjM3GRjRtFE2DRIkSJC+2rLihHMqNHfOK7EK9XdUtnB1LlOFZ8Sn905Z06B+/d/GtZ/KvCmlTt0X7/KdRoz3RX0UsiW1RQ2T99a5uLJYq9UvPydtRhpP9q3aqWXUUWj56E9vVl6flWXy8WS0QhGNGNE0TRNEhm47gqoqoqpTqcQZHRkvfjkyOROZ3R1ByNzFybBUiNI7bJUylHDoPhM3DkZKlTBc1irU53m8UmKbKVQockICpnaO0jtI7Y4E4lRE5YJTJ1C3lvfssaW6o4qlS6tU7VhOMu6qG+1tdtzC4pSo1Jsb0/D/Fz1KD/Nfh+j3r70U18utW3fsekXRF+TZnSlHCbFwpEpfPqPzuLOVOndXFGpWij0RXPQZ5suq+7d4n0p7eqr1Ix41V8fJowIQtGtGSRNE0TRJDGZNwpltyU4kUYGS965Mi0kTGcmxkKZCmRpnbFAwSiPgjW2iukfmCNUUytUK0ifIkJa0vdqUxeLJorIrlRksss/jXq0vn0upFVKnyq/iH/rY+NTFOjWr9udatOtN6R5fRf+zey/V/CFD4TIadQoOxv7GuqsF4Mb0owy5MprkqMbwrtruW9F3F/fz3CMmeelT2vqPycOJ2Tx1D1FIk8eMuV9FC1kxjJImiaJokMwKJThza08EIiRgmS9+MdGhwydnIrcVLAoCWNMm4lMlVROqTqHdwfmmineELpYluZOEiUJYUJGyR60t4tu1pcQiJGPBkiqiuiUMnbKUcVK37XRq3+dS+7rM0yVSMS5u5VDmZLjRlNfLpfE7mWZ/h+j2ekTZS+2B1Kyje0LXp93QnCnPGxmxjhI7TO0hRSEe5w9Mqe60s0bz51ujL/Juv3P70tJ7Lm8+2pxV6VDvdTJvaly/Gf3fQS8JDekiY4Nk6RUpmw2CgUKfNGGFFa1PU/b1yZIvRkVlxgKBsJxJSwTqnf4dwTrk65K4O8SrDqEZEarR20OkOgh0UipTKkBR5tY4dv6j5yKpOGSVMlAxzbUu4rao6N4qyOrSaVScpS24TbYzaOGFSWXbfCjTj3KtKPbt6hRIfdnVj+2Nf9SvcOjWp1VITyIl8a0fUvVVvfd/G0uP3ujfv3L+dRYqmTO2pVqZhcL5fhz/2PRN5aWj8KvvzQtfYxjGiNPI4EqZOkToipiplCBBeFUn7fhkjIUhyKBFGDBOJVo5LmltKlRxPzB3JMk5j3HOsdEYNpKJURVQlzboovBCRuNw5ndR3TeOQxokiaNvNpSUbfq1q7TqPRpSdreb7qpVpqip8RbbEsKRkgVKn6PR6O+5l6q5xS9HtCGN5at8VerpSqUIPco8EvlKPCqMlwXm78tc/udHb/O9QWJVeZNlK2uKxeWlehDf8assn4YoyqdVqMhHnyq+vOAvCojBtZseVHhokhonEURIpEdWyqyft+DYpCmbsu3RES0wSiXVPKvKWHSoNulan5Mq2eCdvgdI2GNIC0mVSqJluymRMjZJk5EZkWLSRIkUIbqqPxNZd+jRTqFxKnb29acqs21nA2I/tH3S6JbOneTJFHgZD7cYIM/qn97eFB9+rRhhMl9tKPJU9VGpl/L/EqUK1Wp0uxuadevZRlKNnYRKU6VEvb+7qVXzDeM/CFv27CRHSTwZz4T+3Jk3G4cjcbinP5rwnqtGMZU9LSDIyMmRsqMl7erJGTcUOZUFxHwkVlxd08zt7fmnRWO2VKCZVtSpak7fBUhgkQYmZJyK8ytUO5zQrYKNdEa0T8xElcxJ3SI5m6dMxgTNw2SkOR0xbqxcfsdOpbafVJvuSeBIlLVsyWVN1rqlR215jIIkuSXqHDl9tNYV4/wDGtKGyAyfEfzFGBK/t4lTqNJuV9EleVCVzXkNttCEdRW28XrakVMY6SlS6bHlk3w3zjk/rSpLbPebzuDqDqHcO4W898NMj0WrJEnhSnukjJuITN5uJSJsY9WSHpZxKKELVlb1U5nbQIxNo4jhklSK9IuYYKvunOQnIbkVXMqKoyVGoxW1VkbeohZiKY5kpltHfKjSwKJKJU+JuJTJ1B1Doy/RL14to1I0be+lzLLFr6Eh4R+FLfuXqXymf3BYGM30yVSmO5hj80sTuNyd1UJ3NZkqs2NZMGDBjwQhHV1i5iT4nSjvqQjiMFjSb5/teN+9lx3DeOY5m4UjJYy+CkZMjYmLVlWXFetkTEzOkWJmRsl4skMjy7SPFMj4SLmfEPlOjHhatDRWXF9wVX8o2yR2UdlHYR+WiflojoRKlFFWlgqcDkLMn0632wUdGXA5EqhKZuOlw2WR1mezp0azq1Ot2cZV61PLccG1s2s6FY0r+6j0KxQujdPRbU6VpHvzO9M7kzdIfihjJD1wY8q1btO4odl9aQit9/SYdzqX/AMxG8EheXWlie43GdVpQ4UZm43E5cKRF8ZMkpF5V+ENI6oyZM+TJHt04NTt48QQtWVGXEsu2jzBC8JFb11KQuZ4MGDBjSSKiLhFcbOn22SlDCwSGXUiciUhsyW620D8Tf+XJspXEa1v1Fdm6XJFJFSeT8NVdnWJr5D8WPR6/36e1N6YHhaseqUe5UquodXjm1Lj3+G47uqbuIepsZEZ/X9PTrcM0NptNptNhtIR+VOPCWjZcVJIVaZRqvb3DcSyy4j8acBRNpgaMfRkYcmounK1hCUqMSItWV5YUuZW0eI+Mi5lx1OrzR9+TKhcywV5c0luq2lLbBLRlee1XFTLkMaLan3LlafiOm6nS6j+VvUap3su/KLSFCU3OmkWkvy91W+9/S/rDP/hCePN6M/oRfx3WZcft/heGCEsuXCbI+/D+y+hvtlA2G02G02lKHyijGjK3vaUl8VoysvjBCRgwYMGDHg9XT4//AJUM77RNKmiPhNlzIpLMqK4XgybL+piN5PfUoeGdGydRIuLqMS5ud5J5OnQ3XNFfEwT9XTy5QO0OiOkdKo5vdL2l37S36fUqwue3RkvmqcOGjG533xFLfbjPXk9Fl6cok+NXp/Qxj8Ki3UkVv2vw7JduziTkLloZjVaTWYR0xrgpIWsif3FL7davqItMGDBgwYMGDabRUmza4nblBxzJ28MKCFqyq+K8su1iQXiytLjqlYbzKjpkbJMlVwVrtRK945FSq229OjQzOHpaVXxW5lg2m0cTpUP1tLmqqNPql1UU62VU24KfqTIv5dFsledTqtSh5PRjJH/w9Ho9P6/rAxj8EVVtrSWYdAnirQ/To7suMcmDGDOFLTGvq4x401xrPWn61qeooQlpgwbTBtNptNmBwJQ+Oz4SjxShzSRHwkXEuHzK2jxHxky7niPUquZIomRyJ1MFa6SK902TqNjJaM6PHEYetK74l7WrOmR1u496965bRuKN7RM/ownmmjOJdKuOx0npVzO6o+bFyZPSfOrGPzeqEdRjtvY+ugLd1OpIpLfpkk9F7xzrcrZ1IwY0wR8KnowQ9az9IXhgwbTabTaRWTkxgaySiU4kELVk2XUinzKiuF4MqM6jVwriW6oikSqFWvgr3DZKbYzAyS0/vpccU46MuHw3zFmRsbOnfsadv/Kv9yhXcC44nTk4Si8qR0mNKqfh6tN1fP0ex4fi/N+SOrxxcxeH+GYf/pzLaO2BjTHOmdEdX+F9HlYMGBIWrJmDBH1rIQhfQ9JcnswNDRFERasqsryzK1jzTQvCRcSwup1tEUiVdslPJLk2jQxe5vmXqnzOw4hHSRdPhy5UzeOY5lmtttpJ7al/JQh1Kt3KihglTzJ5gbsls4/nujR7F1Pier0l69+b1f0l761Hg6D8brMil9vgyQ9fxGtqtKm+mZ0yJmTI5DkZMikbjcbhyExMyZMmfD2ketWMiRFrIrvifMrSPEPGbL6piN9U3TIIoojM3DkbhyJSHMlMc8lD9yyfxjpNlyxm43DkbsyprbDSpCMy5tKdaF90+lbwlw4eqtPKw1KvLmN3VpXtf9zXHKaPtbHzo/J+T8UdXWbRHTpbJ0q2Z0/t8GP3r1+G/p3TKvGTJnTJkyN+C8ULyQuH68XohC1mXMhcytlxHwZWfHUqvFV7popxKUSMzeOZvHIbGyTNxav52cvjFmSoy5YyTNw5FF5qQqRktV7vaXdpXdvKFa3jmCh+nVp7FN7pdOqZtoT71sPVPPm/Bj9vxfgi/jusi0ltlRqfq0vt1fCbF6SPSOpw39Ptarp1Kb3Q8sGDBgxrgwJCQkYMGBISI58nohC0ZUZcy5pLMqK4XhIuZYXUqmkfdGJRgLRi1wSibC3jzaPCgzJUZWNpOJtMFhHN9Wo7j8z+XLe4p14kj+up2alWp2nbncTp0oXdw608HRW99ptfTtMcJY8Xo/XhLR+voIqLdTSI8KjLFSg8wWnocsiXy26e9JLdFt0q1jfxcVz44MGDBgwYMGDBgS8MGOEvN6rVlZ8VXmVtHmmLwmy+nhXs8zKXugiiiMTabSMTabDtjpipFKnzQWCImTJocR0x0x0zptP/ADi6tVXjOlUt6lr1BM9pFxBOPb3F5aU+3OOJtcfhqm53/R5S2sl7/ryY/GQx6vyWlVbK2eLVOrVoxwkPgby9pg9D48Osx7fVbN/r0l+ngwYMGDBtNptNptNpgwYMGDBjhrnHGPqyZcy49u2RDwZWfHUahVeZlFFBFEhTO0doVI7R2jtHZFRFSIRFoxo2m0cBwOnQ/wAvSpCNSN1YuJb3FS3KFeFZS5Ulh1odyn1GHbu5/b+GKrje012+pv0j+/F+L0fj/XitOox23pY1dlSzqdyn6WDH0PxRDb1eL2y6RV71rgwY+sveOf6XB/f1ZsupFP3briPhIuZcdRqa0EUEUkU4CpnbO2bDYbBQNhsFESMDRgwYGiSOnx/V8Li2hUJ0p0pULwliSfr8RU9l3L1Z1Py0m8ynnd4Pzer8X9DrEcXJF7avSKEqNpnxY/D8Y0/8o6AsWv8AAXqL5Tf12VGXL+VFc0fS8JsvJcX88yEUEUEUykLyXgtcasZYLymlONa1KdSdJ0qkZn4qh8SytrqZQo1ZdMqQblKLiOojfkz9Bj+sjrS4Oh2yr9ZF5f3r+Mo/pI6M/wBD+AjP8BlZ8VeZUPdL0tWVGX8+LmWahH3booIiU5CkbjcZMmTJkyZF4MZkZYfteL4GVKMahUpSpPqcHe2nROlUrOktGVXzOJOkd6pSKdxGQpm4Xi/R6bfivHql1K2o2malh1ZZtj8M/wDox8MjkkSeVnItfxdHPTkdCl8P9DIrviXuguaYtZFeXHUahJ5kU/duihESIyO4dw7gpCYmJmTJkjqyRkY2WP7A9W9PR/eEyvZlSMi0vmpJjJkhoaKlupDrVKBTuFI3m8yZM6MfjnyqQjUHLKvlutcnRLunZ3VCv3qSzoyRjJgwkY50/E0N3SI++h/6KRcaUCn4SZdS46hPWgubeJRRg3G8UhMTExMTMmTJFmdGTfOTI2WXFsM3GRmVo2Lgci5vLdtQhcxs7S4i3wpEhjMFUuU7eVG7IV00qgpjkZM8ZMjM6LybNxVe6BZ9HuryNGmqdPT3pjX3r1eO/pslifSKig4vK/0Ey4YigQ8KjLyXF7LL0tkW0SlEwZIkRISEhLxjoxsmxyNw5lv+xpJPJjJgfK1vrd/nrajC3pNjGS9tGDYdrJVsIVo/8A0f8VUiflLiA1Vi97O4KobzcORk3G4TExRkxUashWNxMXTKzUelFPp1vGMOl2MGsYYpaSRulEjPK4MD1vFuta6KdVoodXlTLS+p3C/nzZXfKKBDVlV8Xsy4eZiLSJbRIIwJkWRZFiYmbjcbjcbhSMmSTKkhyHM3cw4jq0ZM8509jFQi67ZkYzA0KIkY0kyTJMZLBsiztQHRgOgjsH5dn5ZitZCtmWipyorC8mZ0ksOLeUyUTctO4kZQ1pNfCqyBUOnzlSq21TuU/wCdUKvuJQI6yLh8Xsio8yIfdZxLeJFaIiyLIyN5vO4dw7h3BVCEzcZJMqsciUik91bxfvabUjbru+Oj8MeEmTkOY5m4czeKQ5GTJkTM5LKeKvjk/pkGP1ypKXyTyTjuPtGlJLMCMs63DxcL2oo9HRLhSj/OqlT7olAjpkky5ZfSH7KKzKziUFrkTFMVQ7hvO4dw7h3RVSlVIz43jZWY2SZ035dQ1c0OqkSqCbaybjcNlW+7NzkkzcZMmdckpEpk2OQ5G4chMzpkRkyRkQn+o3nVvTIhsyRllSHw1w08klkUdrwJbNGX3/bFLjcdLq9u5g8x/ksetUl7RQIjEVC7ZfS1tVzZoo+tFI3G5m43MyzczcbmZZkpN7qUniL0re2TOhf+npUbk+1kikPEU5ilnST2jeY15SdWnHbRmIyZEzJkkyUhvipImxyNxkTExPwybjdzYVN9qf3rwZ4kRngk8xHHlTanwznc1ltcrKlJ4jefukfRSltn0+e+3/ksej9VR+0URa1WXci8fOlmi0RS8FovLBgh7pC0rDJHQeOpDZk9iWxVKmRUpyFTS0wOEUXlhU329x3aU5c9w7pvFNilkeSZKWlQmPwTMkWbjcORuHI6PU/Uzzk9GeRvT28kZ4VF6PkS2y3ZaY/Ui7nstbjRGMiOg1N1H+SxjGVhkSiL1pWfF4y5fy0s0WqKeuDH0EhIiikLSqNEkdGX/wCkz2KI3tJuUnTpJGcDjkc8HMjtnaRWtI1CtbRkqlGomotMiiKJPBUqEVzglSyTpjjgemNcm4ybjJktq3arVDO0yZzomL2SIm9xFLJlmBMXDhJieV16r2+nVeY6UJbZVlz+H6uJ/wAljGMraRKItGV3xeMr/cR92iLZEdcGDBgwYMGDAoiiJFNC0mSRJHRV/wDoSEhvB8pShBR04RUnkhDIuPBoqQKvFSFMwZSK1VIncJE+oU4D6rz/AMtJp3rkd7cLkS5JcfR6bU71jPgzghPMc8n9jaemTlrcL4pS3JLaovMT8UXO6q/s1pfNdNzRvIcx/kMYyTK7MkCiLSRcPi8ZU+4pfdZooC9GTabTBtNptNptNooiRggLSXqQ0dM4vtOZyS2616nNOG4Sxp68b+4oWyn1Cgoz6rTKnU4Mr38CpduYpIUkKRuMilgVeSFcnfizKEJG02Gw2G06ZV7FxViMXtSN5k3DbGzKzS9vEjc8yy1KWD2VqsaNG7ru4ul9r96RbTt6mattLdR/hZMmTJkyNjY5EpFeRkpspC0mXL4u2T+4t/utEUTI5DkYMGDBgwYMGDBgwREYbTGMoPbWJC41qyxClDdKKx4506neKzt7a3lUn2ItS6bQkS6RRJ9Hpk+jIl0lol02aHY10flq6O1WRiaMs3G4TIuqiNeoincQItSTHraVe/b1EMYpG4yNmeXJkG924ztj/e7hYZ+JL5OJT9dmT8Kb2vpVbfb7jcbzebzebzebzebzuG83ncN5vN5vN53DebzeOZKoOZKRWZkpMosT0mXTLtj9lt7tSkN4JyJ1NcaY1x4xIxZxtmlhj0t5b6Gs58uOVCOF53Vf/kOo0o4SWjMG07Z2UdmJ2Efl4jtoFSzgy7s0jtYKXxIyTJQi3sRsw41KiO6mSzFo6dUcLmsuZe2hno3GRsTKed2eXLBK4pRH1G1idR65uW7c2W9CbVVwK0IqGiOi18Q7x3jvHeO8d47x3jvnfO+d8753zvnfO+d8753zvnfO+d87pvM5P6q6U2UZEWZJsupF29bX3blNk5E5FSRkyZMm43G43G83m8g9wniUqj3TnxKpuHI3G46JW7lrpOZFOT+h1m5/LWHSo4UPSM/RZUfFZZVSIzJuM6s6fUjd0qlhFkLKpGvXfyfsnJIqXlCLn1Sin0+4V4Kgi6puFKv1K8jOV9cyHVmzOtCCm+3sqPd3btuJOpKp4dPq7Jd8753zvneO8d47x3jvHdZ3Wdxm+RukbpGZGZHyPkYkbZGyRskKDFBkYGOKqMESiRfCZUZcsunrQkUZka2FKsSqk6n1KH7lb70VfvJa/h5v8yP1/a8X4fiv9vpv20/oLT+5EyqVdWLVnTP/AEyP7lf3/dy2oV5OVRFz9v4c+1FX7esr/J8bT968+63+y/8A+x4W/wB31lotVotXoh+q2iKIvSKhclzrAp+kMZI//8QAJhEAAgIBAwQCAwEBAAAAAAAAAAECERADEiAhMDFAE0EEMlBRIv/aAAgBAwEBPwGSFhDF/Ll5Iiy8MWWS/Yj4zIXBc679Fdxj5zNN3weGLLY+rI+Mvg+a50KBsNo4jiV7D6kI1weGWWORu3MhAXF9lclGyGmNVwoortWWXiyy+Kx9i5MvqJE4s0/IhZSKKK7C4ojGizyUViihrnWaK4UUUUUVn7FweGRXUooaqREWY5liiispcoovEWWhRchaJ8RKFDQ+NFFFcKKxXN+RcHhkfOKNTyRFhkeVYorsWIshD7YsyVk1Q/XXJkRY1CIsPF+lpq3hMvOor6jH6rI8WMh5zqERYfqK0ReOpvN2J9GP1WR5Mh5FjUIiw/TXk3Q+xRXlCdsaG1HyKUZFUa3n1mR5SI/sLGoRFh+nGNnwMjH4/Jp/sND0G2L8f/TbRqrr6zEyyyyyxil/0LGoRFh95cdGPS8asrNH9iWLxqYfqt0fIh6otRCkbiczaQ8YmiIixvvrDYjxFIhHp1NS93Q/HXUsZQkanSDeH6syjafGbDabSiGJEReppq2OJqT2oTdmnwZqajl0w/Vn2Iy60WTkIXqaJKRN9Dc/ohqy/wAN+pIqX3jVltQh+tMT5/ZZIiL1FKnYnu6kmJdTTkkiU+nTP5DblWX6skULlXUSNol6S4aL/wCjUiI07wlj8lVPFj4X6LKKz1yoiXcfYSxeE6Y5FIhEUc/kxuniXBvkhIoaH211KKKK7r7C5R/Us0pFl4qyeh/hKO0a5tliYmWMormyyyLF6D4UUUUIS4x/UZpscqIOyyyzXfUbLxss+MfQcjcWJikXwfFjGUxWKzrlsXbeULgo8aPrESbNP9TcbieptRJ2PCQsSjZOFFYQmWLL4vCRtKKKy1Yll9hixZZebLHmKH4KPA2b+lFo+QlLcxjEhcJRscSisplljeLLLyl6bQ1ixESuFYQnRKQn1JSvhLDyuMkUUNdqxEEKA9MlHFlm43CkWLjRWKNpsGhEFwS4WeVwobrLFhcXwa4PCKNpJESBAaJRHEaKKKyi+1JCEy8JFcYSodFlm4bvLI4++L41xRZY+okRIYZPNcF2rGVhYQ32FQ+DI4aFxfJ4UTaUUJYRDxiRPg0V22+0+zRsZ8QtEnGucuCwyucCOJk+ddmKGh4XLyUUbTabTaUVwbon1XNlFFdqiAmbiTJcGLu0Vwo8C7tWSXT1UzcbhyHwYssXJZUTaSy3iPeY/Wsv0FiOZecvCF3pefbYuC5rCZuN2Ux5Xe1PPtsXBc1xjHd4GqwxDI97VF/LjJx6oU4a3Sfk1NCUMsh3tYXsviu/pa7j0Y9GOp1gSg44iJWV3NXx7TFwXFRPjPjHDsRm4i1Y6nSZqfitK0UabKslArsyQ069tc1EWmKBSKRMfZj+S4KkSludkSLN6JNfWKKxWdyPkRLVQ/4KkKRuRvNxOXd3FiIrFI2m0o1V05P37NxuZuLL4LnRRRQkIsssssaGq/gvuLlZCmUMS52Wai69x+q/TTFKyjckbjcbhSLzRONoocewsP1X6cVZdG4tHQ6HQrO43CdjVMaGisPgu9ZfYfpwQ+UeLk0Xbz9jQ/bef//EACYRAAICAQQCAgMAAwAAAAAAAAABAhEQAxIgMDFAIVAEE0EiMlH/2gAIAQIBAT8BKF9c/HZ/eC+oXS+pi730bjcWWX7L8de0rvfKyUhO+Nl91dL8dH8LE8PheU+h8mPF5sv0rLLLy/HReYsfB5WEyy83zrEkUxyoeozeRkJi9Z+OtexROf8AEN4siyL9d9a84fCvSm6GMrOm8L6D+8F6jVk1n9ZsKoj8r6VepTJN/wBGqREUWxxkizT8fSr026P2Ictxqf6kGLUQ9f8A4OVs038euyy+xenqv5xBUjV8CEysQ9dxs2s24svis0Jen5ZJ/JDwa3g2iWYf7V66wxo2m0rgvWk6RZCNsokmOxDxCCj8+uuh4WH6moUafnDPgk4jNOO5+wuh4XrNWNURNxvRKaG7xoqo5XrLm17Oovgg8TyzQf8Aj22WX1rN5fqvgyi2NjeGfjy/nKyzcbiyxyNxuFIT6rGzcWWX7cvJRNcE6Ia3/SMtxRtK43hlliEuhlljZYu9Zs3G43G7nLyImhRJKiiijSXwRibTaTRRRRRQ0NCRHpZRtNhsFH0HhjwhLm/OJEUT8m0ohDcxIgvjDZLhRQ4ko4TEyy/SXQh4aGhsguchecpG35spmxkY7VQiLHI/g8oWZIksWbjcKQn7bJYTEJFDy1YojIxrgsIvD8D4J8HEcSh4TFIUxTLGSY9Ri1GReaKKKKHxsvNljJiQkIQ3x8PisoeH4HwXFoYx4WYlEkSEyExMsvlXW4WbKwjdRd8ZKxYo2izEnhfKH1NDHhIURQFGsSJ4iQzfqPuiTLIyJcVylE2C0xREuEvBPECC4J+g++zcj9lEtYhO+a4PNZXCbJYgR9BsTFh8rLLNxuNxuLL4VZBU+aLLL6mSHE2kUR4IfU82XyfbdCfz6rRtNokLgh5XOWdxuFlYl3LyL169B4eKI5WH3w8e2h8HzeKNpt4LL7tPx7aHwfZKSj5E0/GExvEu7S+slFSVMlp6mg90PlGj+THU4S7tL2lxffr/AIql/lHyQ/J1NJ1qGnqx1F8YY/gvs0/PtIfB8bN6N6FK+jU0oz8kvx9TRe6Bo/mqbpl2TRdCl1R8ifz0L03z3D1BzNzLZp3wfKf4anPcRjtVDGjYRT6NrP1sjp+2+biOBsP1mwhHg+mihksWyyyzTfz9C+NFFFcX0WWWN4oooooQvoV6VEkWIb6YPsXqr1HHG1s2lFFFcISE+l+uvTeKKPnhRRtNpQhPg+D9denIXJ8Y/I1iyxP3Fn//xABCEAABAgMECAMGBQIFAwUAAAABAAIDESEQEjFRICIwMkBBUGEEcYETI0JSYJEzYnKh4bHBJILR8PEUNENTcHOSsv/aAAgBAQAGPwL65P8A7ad1iJ9TlxB6nMYlEOVBrder12rwtUzVyocrrsP6L3ZVPorFS6bU1WqFjOwNaZBXydYHFSmFMK7FkFMdSP0HXHJY3Rkqq8T6L2rRTJSiUOa123gOalutFlBZdsk6hVOIrw5+grravU515lTnRTar0QXnuRdDEpYhX27pUp+mlJ1gmg4Hpx0+21mOm03l3zsF4zC92CXZoGeuE4T1iq+g2FLLjjRU6aeFmOmOyX9FIL2b5VV1w1e692bzzitWpU8SqfdV/krJUtrZVUQaTXpp4Y9KMl+UI3furw129lRnqpHEc1hrHDssZ91XdUqXsuQWrjmq20skQqFSVOSB59MP0Bc54qTB/CutFf7In4ZK606qm7AL8xqewWspM3j+yrp1CkDXuq2FvMdOpxp6BMq9LFOmaNqe6bXXdipTsu5fuU5x/wBlT+I8lefjtLp59Ml16SryQdjL+qIiAFzRPzKvxR6In0AyVPJqlzKaxX3bIqinyTXZFNcOY6RJVsrj17uiSr0tUGia0Gs5lZkqeac87rf2CmRTH0X5ZoS2ZV2y4cW9Kw4c9HlZ7OHvvNwf3VKNanOlrOJE0WDk3W9U4c3JsMYxKn9IT4nxvoPJT2k1MKaAnR3Se/AjTPSJq98jf3RDfizWGARdziGau8m1P+/94pz89QKHCG6wLHYYqRUipi0hNcORTHjL6APSKeacTvGiaOTldaJ3tX7omdGtT4nxPKaHcgi/NYlVK1sdGlmsqTV11WHmpI2uhHEdaGkei1Us12TYbPiKDAaBqFMEyuBm70UgKmiawYM/cpx+YyCFtNHvoyQNrMjT6Ad0aeSnzKa0bkNPI5ukEXDnqzQccX/8oE4tF5Fw3sArg3WUWs8+gVHv9QqO0jKXmeS/Ee/9IVfbBe6ih/Y0OhOwEKG/t193RdVDuqfA2aMR3yl/2wTRzpLzUOFD+IprByE0a0c79gnRjyw81VQnAXmh2vJD2bLjMsVDeCGxZVCaQha5xwCeYsSXyNHLzXsvYljmnEumojvEOF3kHc1/hWxJd1KNP1sKItMI4jr7uiFNnyqg1ezGJXis7l1d8B/dNlyCiRDzoP6JjfhaJqGz1VVkVMTWB+6BuyA5aGC/Db9lWGFuBUba6zOxvXz0S7yCc/m6gRiu5LyQad583Jg7SU1A8NybOK9T5E/sjwD0Uw5oJpTeMPGTQOi7onYprW8qBBvPmnOzTcg2Shy+6ZSpXjvE/N7pieTyEkfNDbukq4qFhNB8qJqHS6rmqDaNOi5HoZK7BBoXqnDkmUmE93PBoULw4+Cvr/yn+U9Ge0AT3Jk0YZxBmE1DqfNUB0YflolO0sONdJT5lFA80XGg5lBzW0aMSvyQ/wCqnmf2Usyp6Bvc1dc8TUwZizWMgqFauGm0ZlA8pKQUPzQl1ln20Sj0MzTrvpZXABVAuhAu/EeaJ0Npo2hP9VM4yoO5QaMBpVCphkiWtH3WssFRS0bhEzJXnYZKDdxshT+ZDrJYdEyR6GUQFLJG9zKb7Mc5Nny7rVqZXWK6a/N3Uhj/AGzV7SxWKq4KhtmENCK7lOVlbIcs0OshVtoj0SSiS9FJtSpCkMfEf6r2jxdJbh8rf9V7V2J3AjM3szmUZ4uQGh7rBXokWTZT1Vvgqcldum8hq491IXfupOuudhJe8EtCI/ngNFkVwkB0s9Lx23OTldhw590yL4oe8+Bk8O6JcDc//SJdvc+3Zau6FeQcOegbwRdCrDPwo32kLeCOtreSbLW8kDDZMZFGLHN4znNU0BBadVuPnoCaAlwtPoEHbezjMmv8PBAafiV6LrHupz9VSjbQx+4dlQTKrjoU33YKZx0BdMitevCUQPXpyU1UbeI7kyikLklvVV503aIgRzT4XKmlOdlNFukIcX7qbeBmp/QNNu5x5BTPxVWqr0Z/k0K6GiGzIYnSaH1CmNoDpgPq1TaZ8BNU672syKwrwF3MhS5KU3IuLnFFsJpDRzKnouYqYbR2hIq/DOuOSLYokUJ4IPhmi77SuCzVKFYV6odlgu3BXTzUjUZqmCIwC3ZMHJSUtBhQsro00XBEaDmlawqrmLVqYZIFm0wUuXL6TnZJmK1yuwV71RsmcbWHtoUK3lUnTMlW2vNSFV3NhJ57I2Y0VOXX6rtwdFitRVsuC2+60DLgZhC8sa7SbcVUyKLfh67kqqcpcObykxd0SbJuwCutwFpHfgwTRqq5arhsMlJwV4CX0qZqq1RMreoqVcpu0zwBswqq27xW8VrrUM7cLBmq9dPDhB2CneuoudELyqarUeIe4brcTsJKhTi4+7CoLDJV653XmqKY4Wi16lUxX5VLkOJDWpzW4WRHd5aTAWy51Qc3eyUPvW3t1qqkiqIcNRSbipk1slhonhJL8xTvNBF2bzoG7RoxcV/h233f+q7+yF8k5oNY0SUNsuWgXQ/t1mZwsNVjw0lQVWoJuU4jq5IyCriq2tcU+SNo2Ugq6N53pYGzpZB7idpiRjdgt55oavs/CjBmauhPfkoeti7DSvsHn1iSmeImcApM3edl5yzRc7FSFhTU5B2ammqSYdjM7GI7JpUFuTBY58U3YTcTn2UK9q+HvSa2wp6Z2mdMjl9IXRjmrrTRDJXGbyuirl3U0JqSAyKKi0qxHyUMIOzXkq8B6KL9kEeTRvOyQhw6eGZQDNQXZOFpX+U6c/pAnOwIy33fsnQxyxNhnZ3tjtlOYV1M8k3NOaeYV34m0PAFNHzxWhXRUlf9H4c0+M2HtVN7hFFDuCNOXVAhxRQCaM1MboTopyTi8zLjNXX4kURaVNTtcnBMHosOVgf8EQfugRs5WVsf5rwk+Ti/7Iy/7iLgMgrzt42OHZQ3D5UZoqH69Wp0BwCkVRNa3nRRD6IZFCJ8SdAiD3vJyLXctGIZUQn8NVJFOu77NYK47ZTOOhJO817SKfdwYWGaf4vxFHO3W5DQunkUbIP6vpYK8FKk038qY3NyM8QaJuUleYdZXnmZ0Ynmo0c/pGgbu47WahnsJuwsrYVXFayY2fu5BzkRyloRB3tgn84+g8FgsOBCvDEBQyTvOknKuATnHGaBOCmcNGad5qCObheRtumjxuuyWDZfqVdGpVBZ5Ktri04I5KP/APG1eqIt7OCmivDN/OD9LuBo0iShnG45Ezo4XgpuVEC5UWaqp2PiegQCY3JoGxuFXXGltVTC0SUWXy2eI/Q1FOtYfSyea8P6/wBOKn10A814hnw7zfVNfGwZQIyqFdG9zKboSsDeSFlNCptur2nNQh8U1MIdrPWySko08JUsiAChhBGSBzFnuoER3oiYzA2UjvCwKG4DVhzJNk+H7ddaO9jI7d6HQ+S9g2kMCqovNUUzohCdske9hna5TToueCrYVW3yKi+S91CiP/S2ac+JDuNMMCbqVXvfFQ2+WsUL5jRj/wDUL3HhoUPvKZT2RI75TwBkjNUsfGO9Ed+w2J+gsbKbEnIWPnknk5/dG99l304TB8TkD2spo1tf5Jna3EBSMVn3W/PyCo2IVSAPUrVbDb5NVYrvSirXz0In3s3/ALISC8OzJg0Z6JGwB2nbo3NYFYLdVds52ZsfWSE8eQRc7eU9N0Z2EMU8zpYt+6q9q3/sFLWVGfuqsb6ql0ei3z6LWe777QHNthUNubgEBo10TsJbO6OiYaGCwWGjRTOxh962RndkHRNxtAM1C9l8cMn7KYtwT4cZzxJt4XV/5j/nX4Dj5vKLfDwmsBXJYreK3jZXTrs2as7xQkZhQneYt8M38+zY7tsBsjLgaKvBHaAnZQxk0WO7uC1fhwXgoj6lrrrvsojRmpqtkHJ02/sjtaKqxM9AfbTa9zZluHZCfJA5OsB7Jp+VpKnK2mm12R2w0DwFFMiixJPAnaAIbGEzN1rw3k4H91JoUSH6hNecqqQC1sFReHflEG2oiOW2i+U7GlRIvOd1BUVNg8bYaB29CjLFS5KQ4A7LFUsGyYcq2xoXzNIQL9WRqVdaUD30AoMT5mg7STrJYbZ7cxa4d12GyI6DJ26jdwUgJcCdOqxVNAnZOPa28V7EC5eEwtZTGDrQr0QThQReIzPJTHI7MZWnbvbk4p3knhNBxOzitycePbkncEVLh3m2Ez4WC+g6WsxBybmCpiwLxj2S9rfl5rxReHCUSgdy7bGfNVqqHSO0iec7IbPm2kT80jxtcbNX7KvBFHajZTzNr385I3cTyKk83XZFUKlYF4jw8ZrSHAPbMykcP7rxMDxEvbChPMypsO67qfBg5tsiP+RpXmhsoRzbxnnZ34Q7UIbKH5W15q8SPVENkUHaEFsT8OJ7t3kU0QojooLnCIJbmRn6I6NFRSUuEhO8xZGOckM9nAid5IcTRUUuFO2CGxCaO1ovCcldcDLzRLGIZJv2tEsV4eNDiw7sZoJYKSHf99LtZQcKDk6wlM7oaU9B5+UzUuKmFhwp4hgDXOfeFBkqfY6Ek5qezI2TKLnYmxhH4onDa75eY/uFAi/OwHQouy7cNF8p2s89hK2O011ChLBA8PSztwx4iD+pTC16hTYfTQDwMcVMKsvJGyI1pAcJRGk4Taf+VCLN3kMu1mVkzxD25i1nmhsiMxJOafhMkGu4XKyvDniYdmMiubXK7HofmU7ZEURk2qeMjY2Y1TMT9F4yDF/FZEm4/NPmq2DintycUVDaOZQls/Ej8801N6aeJB7WyeJhTh1ClizJaprkq2EKILGN5TURvs3+8ZO+TTyskq8VE+9jHfKUNnEPzAFTCHBnijxJPbRmKOWRUov3UxZezFkK55qFEBoe6PGA5tsITPab5GGzgRORbL6IcdKRqptXZUxUN8rGg+FjOHI3UILmeziN3ZnJTCrZjxMJ3mLId4Ta3XO08M7uRYBwPZU6ofPTosjYYUwImInzTYkYA+Jdn8OlqktK94JjMKh4UXN9x+yhxX/ic15Gx1Pg2jHfLE6ceKGxlJTZXssSCMChD8RQ8ncjpzbquzClFFM9Ou1F9ocBWqAwAyUQdrC+LgWyTYjGkA1E9GulE7EHpx4pmzOM/JH2esOYUokU+x+Xn99OomFeZP2Z/ZV4RwzFgcAGw57zk1g5CWz8QPy2Cf0ND8raaVbLjf8AyGiDGD+dhgiHc1TxNO7FSO0/5V8DvVVYdpQKkNy3ZDuVVzAteL9gqtvHupjw7J91TDR+ZVppRm/lKmhJAOwVDXpJ4sadNARji0U4DdCwVAua3it5by3gt5ABg1drRaymFrU0HeSItB5IHpB0Bw0MZuGwpxss9njRSsqpKXJauGWhEH5joXekHioA/No4qYmVzsrbdNWc+3Egqeh/C/lfwv5X8WyU7TZS2L+o6A7oH6Bh+tspKbyfJSkNCoUxVqm2qcTimDJo4WmgM200f9iz/YX8WTFkwpSpnZXBTBs7IlHz0AUOjHi2eR0tXFYqpVFVUonPhycDyCaDR4FRxL2TxFLSq2Y/uqf0X+pR/sF/KInO0lYWUQUZ2TSp6MvoGFoUUgp87KqQsrYJ5zmFqmRUpKvDMfkV2XZAqa/hVP72c1/qVy9ApyM7MLDTBE5ozsf+amhVTCLejHQHDw/XQpbOyunLQxWKxVApezWCqVQ7Rs8W6uwxtoaqqqZqYWanhZDgD4anRuoAodFPFwj3t7KlslM7CcV0ncgKkqYct4fdfiN+63p+SpTTxVRZTYAfA+h0K2hUtKwwUpUVDJCx0R+DQnxT8R0aJhOKafoBhycNIyUzsC/F5o0Zr20c34juZUiAvwwsLKKiobN1fhuVWO+2hRUVWg+SrTz0gfibQ6FVOzlaJFSWsVezVaKa/wCkhGct8/2tLuWhNDop4bBAOmJIEYaDHZjQkFLY0/Ch0bscFgsFgsLcAsLdWirrLJScCD3FjQMHUOx7ISXdVK1orR/mRJitl2qjD8KC385UzjZyCDYswQmvZSfLQl1nFNnY081XQu82m2myiO+I6rfPiPZxZe0h/uFq0TLr+aNtTJfiD0WqHlOIF26sSiYe93Rbfu+QWtHifdVe4+ugROSZeIRn6KGTvrW696abx22vhv1HbHZQPOxtpktYk2NUb0tOmE1Hqf8A/8QAKRAAAgICAgIBAwQDAQAAAAAAAAERIRAxQVEgYXGBkaEwscHwQNHh8f/aAAgBAQABPyEmgLAwxuJDQlMWwg0JYmBBZFIF4F/iP18B7Zl+qAAeQ0IL9EAMOA0NCECQsiXksvEDl8DyEhBBISEyPcSHg0EUhBYF8Wh4QIILB2bwQvF2jmjB+FpgphJjYvYsaC3EGhLEEEkUQa8QlFlllhhx3iv1eADwRkXmAYYfgBCBIWRL9IALDCDRBAmCwWVJEo3oaEFNTpmxtgvBjGNkzoeCPubYJiYsMMbyts3Y/C0Oj3kLFjFjQW2LQtmggvhL4mrzVhhlwF+roAgaahUjJts6EYL9AHvwgTA/ZAkIIKIJEEEEeESNYINEeIhZFEhqNF0LsQxuTSbi0Lz00IlLjJrChEkjZDoG7xWglFHeCwaHvOotsWbiiC+Bvm6RF+H1lln0/SAfxGjp10KVInkG5VtMeQ32yILAvF7L8LTQuSyr9De/EY/AWC8Ghi9DjcBEpJVgvBnsNz9EO6C7ixrBsOJk5IBPYhNZF2bPwbmg5diRrQrGNDFmuFi2IIKJlsKIIJEeATDDwsxG/EFI9mkW/wByRrfii3peeSK5YbD2pp2xvIQ8SCCCC8PZfhaQUQl14BMRJOZPnLeDD8CEIXg0PHQeheyPUEXkZFlHJKVP/wAPiW/ZpDxgwVgeLCIHsmFQfkC0ObGpHWGMWNMyLEsWhBPA3NEJoShIgaEEGGHgYYp8YKZRJ9FbH6Wuidl3OOie2QxpCjwsKzJ3QizKOmKErrWxGtTT6FaEmMm4wIIrwBh+ChRR5bsYTJJJJJF7zI2MMY8lhCzuJ56MnjNJoQlhuBupRoepLpzwW+sMeLwyRDEjMYhipFiBFsdvflGmJ7xQg3Y86FGIRYtmomKeA446Cw0IIQNECDDCmSJ56BhC9Ftj1p9ExHgfO2dAEv2HQepCK49ZRyEjhDXNSKXAO4WpRNDlaU8FGSa6EpCBU7JvkSRIggggaIEFwIINECEJxvQiRJnrGkLEkkkjY2SPCwWEIYYcbGhzNUWiOUJ4aGv9kV1Hs0rtdoj1Cyx4vGN0xqiqmBaTSVloSmIJ5RqMWY9icaNQ6FhhOceRbwUXybxwWGMOTmCCCnbfx8j2tNgS7w/JkrI+G/7Yi3QDGDCo58/ujErs+egkKUPv4F0r6jYPhiUaZNeTRckS+EKhnEi8Tnfm/BJi8rCy6FCxp1h9IjXBfRfRAfQPqyqyIJiQmF7i8vmRDxfTw3/CPjZ+7B5YzQdpDkSQ4OYtiLHO00Jv9AjTCdkSwYW0Q+glestceTbxpR7xccdBZP4wTJNbl9Lr2TDblnLbkhE3E0RZKf0JFPbjkl/ej14HJHs6HHA5S1/YFHe+hPTjoankZnOZa1oUoNNIldSyaSwlhC7g5tEoUkZYxrwu9J6D4nwF6i9C+0IXBRUsXnSK8OQQQQRXnhkiBRaFLQbhDfY1AuO0P8kRrwPDTBwLBBBIiI0WRSJ5HQaETgCzoekYRWKAU2EwrgTE0aNhwdWBcPMokJCwWoSxjme++/XwOty9BNK3tsTahZQSCDaYf7hCrRSa+BPc2XHvsm229jGvyXOiQiEmaXCX9UiYQ4TonaDXCydiRIpQzsfZjX3RBvm+KIjwpYMNEZH4EX6HwPgfEUSF6EdGkR4+PCsBZCwrz0JhCFDIB0GRcODVM+HLF053lcvJyKsEEDQlh6s/0BtBQSFluBLliUyrEkySINzYRXgVcxSLiLgiyGvARFFYDm2htR8IkZnT8idmUaYbV6Ka3HSVL8fhiWmWwv5E7q1fDv8A6Iyn7S+0+Fc+kXw39n2xM27N9vt4gls5RDQe8IND3IudHoQ9oEWUNuBT7SmMMPAshlh+AOAuTwrBH3HkTwIoorwCCCCCCCMoaFooVdDb310K0QxS/wDeHXkeGg8JdISy0KNr9ATQswtYbgS5e8NWBDReDPh4F4jC9T1kOQQggYeFFFGYGLO6l6ITc5kTkqev3FTtUS+R8jaRyxTid/8AobynTICdm3X+hBQupaDaZCVwRcFGrGj4EO4HrRSDY5foU42n+wtOYTePhKhh+QDDyHAXN5Iw4Y3G/vg8hZEEEEEfpGaiXaUmjFEhK34RGvsJyPLw0EGkWWLYfX353oForhqG4EuXvDQiFDtiGIK/Hj7wrw8JEEDQ0PAgg6IroQ9M7SyWqnoU8KFA4+AzzqXjjhDE1HUKhjOLel7ZwDaIt5MO33/ohOlOwbMNYhFCIXqxegvTCgmWiFOiwO03SIIu1T+BMnrBYQQQQQQQQQQOhcmQQQR4NRrRsjxkknEkkksnx3GXXPyPHEoHfLkSnb8mvuT3vLyaRaXgYthXL6871YSbEojY3e8NkCJUZNkThXQlOR+BEEEiMMaGiCCMCRQuQkIZvSXLCWagcG82FLnhQhySbqLT/wALrd/+g1KPq/lnsMSxSk7tCE0Igj0QlsgQF64lNh0YVqiII5KYoLtDkeVKU8PyeHQly9/pNco2QR/gQtueRaA+3ssiUX3xwLyZY1v74eGo3U0QssQXX53qNDeMeyBZ7DiDtRCykQQPps/cgggSEhC/RbhSalyGcRfAvvlP2fZ2cK+EhLWnJqeuPwKYyhdOFH+ikIS9cB1c16QnUtICWSEPQ1hqSS+D4Ex2TollA2sSTb4JlZ4onmWR9P0WyPv+o1J8/wCDRJxLeiTasZtnYrkezS9i8Wx5iNaNiGg8IaBZZoWP6H2hc8AgkJCXm1Jrf38EIXgx+FoHBTEclzbQvy+iIJJA16KhJI9Hv9idhJUuv9okdJVDIjpf39jvv+D/AKSxk8/ZU/v4GSoWNSUSSEEZIanIs7CmkWBfOCPbJ54Yr82/uR9/1ma+P8CDSTcNaKScOWEo04IWX5NdbH+RKHgtQvDTD38+aY4IIIwv0ta0LCEIWWPLQicglr/JJPep8Sd/giLh98FsQZRaPRM+6k9cfshOu00/t9g7joTJPSSl/wAD2VAQstJEgsDgeCiQtT6NysjW6JIcR8CNuonmkTKKuDH+GhieUeRv7kR/gMa6E5zBBH6Ccv14dFNBCy/NJO4eFGoLw0x935fR/h+OhMQhZeHh0dmJ7djWtJaVe41+WS4br/36jWu77IWWedJ8/wDAm3wz+lsZtp7+/wC6X0PfAaX3ZNC2kTJpS9C5L7mxkSR6CNCSoh1bGLTNfyTzvcntvgcLkJi8boLd2PqI5i0iUdsr48W+FsiP8F4aF7EIIGhry/DxkqYELL82bii/I5Lw0xPZ+W0f4kiRPsQvB4dI9itIr2NVaUP+oHpUvzP2FTIh9Ho1DNV9wt/wMhhLHriGl9Wp+IHvvJ2Lrl8HP3IyNT3aX9QlBRz14hqds21jSiyYa01KfBX6UVFDCL5F8cNkNBPLfC2RH+LEirevBjyzfx5SUNczh5XgzRms0wPK8NBPtmzy+yx3/wARfYLxbgXbEfJRF8gcn4ht1ZXLmF/IlSpfxpwcim+TkQlSdT+rD6m2/qev76N0z8hCQwxjl8/mvoKUT1MOT6UVNQyxJkkimMLo3xIt0L5D9pvfEjgH3scIzI4sJ5I1snPgUY1ohpydoO3zhvhCUYY/8NYiNfYmcMeGb+PGsFqa+LyvBmjxyIaCfedC3wm/y+j/ABZCIjQnKy0Ht7IEbNKVIaSN2ljWtkkx2+9I9zv8JH5SLtDJE9rJjlL+8SI41EX0tE+ejhfQGgq1fbX4Jvbbtii8ua7NFsNFpfImuvkejmBMCyUBUyphDbIEmLChu5cj+lkSj/iBFDwSjWjhbLXO6R9hHc/UL+4pI+JsqwWAt8tlfBM6Ij/HWWutkjzvY/GhnAekJ+DyvBsasWVSg2a+Bjk8XRu8toNR+K/WQhH0xJ7e8EvzbpEG0vEsNT+x6SBAqYIvpLj7iC1u/oVL+CM2cfxI9Ly+lodE/KDtXVTXyhaIUKNP0E0ZfJunfUSRGshBhlmApynJPhkahC0x+DX/AGBDUJ6QlBDx9/uK2OXSJpSZenCdMdNWvBj/AMF4kTy30N+0JkXeH40PCoQWQ2SSJ4kbGI2LxqSSpCJoacWIaIcbPFRCCBLNB/4aEIXOOcND9jYT7BkCp/oCpNa5MYxy7zfY8JvZ8L/0T0+tPn/ZVWo+9/8AgldqYeqTS/MsnVVaEH+8pj5KFCYVC6hKKFLSWEehyFvZE8PSQ46ERK+CQJ8OhOF7Pkwmvr/GeZJJEOR+B+FaHjJFtCxwQ0EgigsDxp2ydsetM0NhA2o9qVm7HXwLeD/w0It8EEe3hiCcel7Ia9JB2ImZ/wDRnJZv3HT9Db6v+CMTc/ysfLSJGzvz0q/cg/2Wdf7Jt9hbUGuhKIlCKIhDTImODYUsaEQsGQbMjGxSNZALwCbmBnVtMY28sf8Agsfjv4xH6JaHlsUaSuTgfgdwSLJORLF9keyAjsWjsnlJkl2VCz3kUE6shCLo94hkGKrY0O4D9xfyL/4hC+wWWpJjf3GRhrzYQJreyCT5EXnZfUi7eCPqxA1p7DdJDli1ncz2+9/Yg5ML/gjiuRCSAQ4zXBDSmEYw2PiGSwMMPQ90fMEsdI3MIWv2kZEQUm9Nkc+wv8Rj8Pw8HZrfmQ8r3HfIknhXchfMT2ZRoc4CHpYlrLB0oOgnL3li/ZPzM9UoXGj1DQJXX+IV/AheDIjWiL9B6/s6GT+HC+B/YaHM0Fg5WqLezSK1NdP+7+g10nG30pL9/uIjPiXwq/dsgcyhhkpFsQyV4EfLruBKVmWmmMq0OrWVUt/Kg7ovJJkHTBQS6wgyRSUkla6Bpk1GRSfShopj/wAR538eetaN+CEPDUa49sYfI3iSSRsbGxiV8pSF4IvhLfKxJVFIjSoV0QPiQ/4ZXvQhCy8scKLFo9EtRp3wRM2j870OpOUUmxI2pJEJf8RNfXSvu/ZfUQtSs+hL6JEr5TC+P7f1ESsG4u/YoKB1khv4G3P7wYAJ8PQdHuR1QWoHI4nwhsNTEJ0LVKuhFHurJNJsjzFAri18f4rN71+i10TlGmWg9y4MN5H4yNjYSYp2vHCP7NZmRJSiteWR/wCAr3hCF5PXTirGoW6R7BNfscw0K5xwInHTSob+jfzB6jS/3/kUSaMNvuj72zRZp3xy/ghzm5ZG41+oruLIJDPwJlCQVNqfXCmYrVjgnRs2kRI+B8IeJ9CvKlo1DOeiJEnWYjRM/wCEze/02pPnCNB46D3GsMSPB+LGPCNh8Fr2Ia2NVyJSF89lxeiFBIVDysMb9ecc3lCELxnOB9cF6Ls1bqngfC5w+zn/AIHF7bPsfLkVtE0/wjggTT9hehrfC6XCIjFa2RoOpy9Ghp+yEt8WCcsSdwF2tlRH6TFvVag0DlCEXcamRy6KGLMMzQKIXOafUY22N7ZYVhxSfgpXskkJyye8z4z5t43bH+rr4EIeOuBt8T8XhiECoqCIFoVtxzGoSEjU/cXbY2P5H+pJasOzUWmvBCELxWUPafMbSJxOT2oSjhMkl7F2NUiShct2Sz6W06L+eSkprSFCa3MnJCESNUTgytpjrYsPr7Jppni6JC0emVMLRbfuPUla4aQ+9oTWixxNjej4EVBIhSiKFiVvtg0MuIqMSJVIktQJ+DHZMb0SSSSSSSSSSSSSSd69j06w/wBaOhpWS0SA9OMQ8MfjA0NCCF6Q1Y0wMDOCQJCHEJoj2QDRr4/SuaOlDUjaYVJFlBZMwkoS8FgvJjm6004mUP1FG9IuL26i3An2GL/xH4LWEW420+mKaNWiZGHQOg6kMeTbiR7LqR6hUKyJ+l0UpCQcEKcr1ensY5ktbeYtkKgic6WJ6onwYzWiZJJJJJJJJJfCknXsbpxRIg1BvZoklCRI2ThYnM+SEieHghMhLahfR6SDjEjT8IyvEjUUQSwSodtYYBOhhspOMMZEaE58FllpqQqh/wCEHsn0Nz6S0SSSTkXiywqWqHyLFLVbX+hI2pcJGt3sYmjJVGJaPg0Z+zKj0JsOignCTYP9iyljHbFGgjQtk295SlIVDGpwyxq4E0Ov9x+tZYxkj9bJ++J8JJE2moMeCV1+xzE0/XJI1UJEkjZImSST4J+KNDY63rIufkz9MIWWJSIEEpCCDWSglhaHIUyHkY8NCfeEIkbgspKJmy4G23LzJImPgvFjjoQLQtNpL2QCC6gSN5t7NsnEits/UKv30amxvh94018CexNMUaxJYp/AkRMyIQlCGjkZ8GeSXA3c0ffK80x7/wDGJiiMTJJGxsbwbkpvJOR5/M7n0JLsMsycSNkiZJImJ4YvFZMSNFy7y5F70OaJxBGJp0L4HEkAokNCYRhLxUTBXrxOxSmIQq3sevJTdA0aQ33skkbJGxMYbBZY2K+ks/uKSaIdwW90JfmayTQI9zJ2JixPpHObhzaJI/wOjPomsXleslULUndbFYWiZdYQkPYyb7BrVgMSrJO6eyTmytcEy1yRJI2B+GTHxhIlVsG4akxNNy/oEqxWcvZJJJI3iSSRMTyvFeBn3Db2NeA7kPSQFB8PBW4UxWGNZQYjTIrCGzB+CEbcH1CqXLQ+mU8QSSJjjjCZJI2NivYVqKS29x72o4b9Gl43sJVorRFqYSlwj5k60mGIY9Ebpnbkd2uhUlFrIStihppZKWQUNBXrBJDhkEIm62S45kaIvZDmLWz7iQjQObRIvBj8IRQZwISq3sbUJ3bYcpw9rBMXnOUIQvFeB4IPFcRN4qHnIJgmIJ0ThiOBqI2JxEtjH4L5SISTPso9GoHDiNIaF5GVgXgoWBhhjrIWXZKQlrSx8t9fA6RS6ENXK2JB7wjd3AWHe3Y1q2rEH2E6WISI5YiRsbpfUjBoQUlYeylNktVgxyItSQMOr0aG5vuYySSIVhb8B9sCKM02lHYgR77I9KVDpbSBLhaBFBheT8F+mMYxsGhJ8jg9m4kpQgvAaWEhOQyRiRYYmECJCxxpHrxSlbSRCmStcCaa7diaUo8DZvYWKvIUrGywx3iOTl+yTpL5HJPY9S979Ijm2bs2x2tmksStiLGaGtJijVFWhyCEEDy7OKdyjdCOOwptga0BfpEN9pGs+ArEuRmJiRIJSXsbSqE4Iio5LB8G/EA+IxOE7FjcMi8l4Hjsxq0ynDH2JlqG8E14dqIOMMIWWIkyRtFqRh+Ectr5GkJK2jSSSHLesN/cYjRBJsS+QAQXjEoEPehPaZKmSS4EMZMbgQ2d+BrGJd8ghbC5GIRGlMEk0UlrwFwwobqBLbEPg4QTTbJBJ0J5ofa+8hE5+y9YaPlC4oI+jBNEtr5DhM5cQNFyExHYtrShYQbI4ng2JPjM8TXmsmMvSKD5h+FYoWFYJyUrE/CSGNRMYbSQhM0aOc4p9ny5zqRbKGNbJvwTsILwt+wyxSFXl8xIW1KZzI8Jw5wJuu98sllLZXWGZScSdizNh9RYRCOi6EsaliNVLNjYohx2Si0sUey6g+EktlpE4FNNoX1901H1h6R95Lkp6w+k0TUdJtVwTRfKjeG8UE5K/GDiCDDS8VFEhoaxILyWTGnRQsGydnlGLBmJjfhVb8JLGFipouSNIhQ7Q9notITtQ7G3OH4saDQn0WYleNYELZMDwMMs3QyFxYsZk+CR0fUdoYSZKRh/JNYSFkLEcA0ijcv+pUi6IIQ9NIpMWKTiELiFwhAtC2oTP8AsiHuXSKLRBwTqWiKeiMQY6bIq1fA2Nol9+hVNslLbE5S3IyTKEm2ljrwE4nGstYZsFwSGhoUTC8Vk3OtDxnZKTkvBfgXocpEYpCMKXIgNA0H9EWCGOSJSF6ohSIB0labG4I2w5n0G+CLzmpm9FwouWXGciyjICc26EW0ENNtL+ScviHv0uh+tFWdEvFnMsnYtsjQUIoFo1J5I36xLeA3xBFtb56FRxRP2xXEuWTFwET0SO0awkLsIaxHAZ0SbEpcJsVTc2HtwVhJe+jcKe2G2ExhBQEVimxYxYcWHme/0G/gYxkWLyY+wJCQsPBaGCFYWHASweETg8mq2ehqabYoKC0NlooEw0TI5TCidnx59TVjjc7hhPwqjwu4x4+8vSewy3ONM3I6Fb0S8n1gY36RDBqj0iyeNCKROFoWSxWhxZRKYKDRgcSItwvkfEItXYRdUBfqM+bQn0LLEIc0eokL24jdobVQSzNwhApZVINTxCEETg1RJuA5MnsbeAGiCGQbFxehvCDwHGxMTJ8LfAxsnHOCQkQQQQU0Wyw7GZJJiQIgXKFMoySQsiYqtDqlJJOS9DTrS0ThP6C2FYqHr4FjOGYjE+SBTbE7xti1SmjZTqGUIU8iOraSN7ZgmPFLsDcoJzuhWUR9Bka/co0arFB4YslmsRydhxFichE24OhFsQkHtelNwL+5l6Vu+9jvg9l+L9V/ssr6tUffohA16H5fQTK1JESXCShIY9jGK2TghlFeF3lIo6FKDYlgeQvJQQQT+jBjZJIt4IXlH3E+8NCiiwIWTGomRmDKorck5F6kCGsWSIorwUNuJunliNFiQghUhqXCOEwc80JsMLUUPbKKVBbHLC2KRjlcnaasqWrbHfWLaqofHGKp2x3x0ex6Y9B2iihFQiRqYqCUCGiFWJSIhCEohLSHB0qVFUKQojR/A4Ddvmb9CIToDpckSXCJ0I3+Wz+nFCDQ9j2ciWT0fUAheEsIpQIS6xTEFhefvCiigp/HkoSJ2MLAvAEUIMpvQ3lgYtkocRzwoSZNSY/XQkSSIdEAlgxFhXvmkExiZ60gIhHYpZh2oeyltjT7geSd3RzA/4EI202+iNrlhicxFJy4Hcuk6OzWIeUMkeViEXLTkTEm+2Y17i3TQ500oUBaWhUiZVwQxg1EZemsbnlikbdE6pCT2R9zIx0khGI3FmT+5H2uwBWFrfeh2vQ9/kefrizNatENDmSbzG80LwB4GFhwS5vCBjeaiwfMXsS+IthZNCh8vAMKYnGCM1oeK4Cm2e0achJGxaRGw0EpcW+SJECUQPlVmz2HtPaT+KMw75qgMMM5GG26E0tYje2MZj4LKnmfEYzL2OR17GSQY5Q3VoMRP1I5YaXYLxqXEwz97/IjqbFFcBAzbIBxhJEKEBrwSMXXCJ+Q0iJ42I2VSUM0XP5EeCyI/6RnpvkWlJaQ1ye6+xjmA+4DV/P1GLpSAtIexu4GcWcCSdiYXXgGHgOhhCCUfBA8BBRmiEgx9vhX8ie8Slm9kiZOJGISBTkfsQ8kJ3ZOtk6mQcmwJEToYXfMFhZaEYohtUjQeRcnvJuSYQYYYxN0N6JdHpEwYYaWok6iJFXYbrVjUaZkOkjQwwqA/sV64gl1i3SPojsdQPUWUpUmyMX1+QnQF6ocrUTn8BDnKY+I8GxsbGOkihfUksgHvGiDY0MK4QmlkRzA5Jsl8tsTcRcFu2w9iU0Fy6SVQmU6cPwaBoGNQnBtWcnJBLvwYxBBLOh6GxPGOQZomhD2HuPYSCbJaGDYmJkkihnNRLsmGMUx3DZ6DGxiFAMfBCUJiJggSCEbZS4ZI0siib0juCA6djNUTCWR6PULoEiFYIsS4QjmVElsgYt7NQbymQj7bUfqLO4XB7+URoKDm5N7IldjBnJ5o0Ak/3K6pJEJqUiImOJP4HgpTPgkE/BvExNnbQ0JCUD1ZAnYf0pfuLUBpy5N6HPw5NX7SfV6/A1xdf1iGPtkIur0SpO36/c1DS4KS+xuFexq0xC1KJpdeLQ1kp4Ug/Yua78ouDZCdDySpmrKWh7jYmTksMkKTFITRnJCeoSdCUNX8CBBP2RNjlyJfJUb7Htiu2cRI8jVGixRBGEwUM5DESBmyKSI9wMN2kJ2iUfVmvk0j5H9BL7ACIJdVFsrSmhgbbjoklFJyMbJdwQzgGwmnSEuRKVDFpR/w+hpTQaViRsbFI2AhPyQjJNNjJYJ2Ml0E9JQ3MfUnaaKPgofIl9h52/7RSYjFHuk5dfYx/wBS7FUXtvkgY5ngmpQxJEc+LQ0NEeJAM+sebwoTG2GVCEV4WEhYmxMknJrNPUegbwFdYyhbf2IrkadiUdgV2e8b6MkWxc7HtjpMf4Zyg7YSNh9huRbHJCHChGHghUzePax+h9YiP5aELadvtRZr4aGqUYK+RH6Gu0TgiMQiOD6Dr1Gpt6GsmCKY4cNi4glpRM/UY1CmLy2NKgZIrEGxHm/ugkkFPyfGfGdAk20jnYzV5JsmcT9g8IgnfLKmYOx3MmyUIQvRAaRrpP8A4b+NjWrPdIP6iSH3yRqflj4V/wAESxIMEXInKs00c4SG8mPMkQNQPaKBaeKCzAxDYR9JKlYSESGirGzBMnBYShiYynQkfqRjXUnsKNLEdkvJ7h3Y57Yjscxk7F2z1inwOLQg14foVmjBZkbG8kg9BFwJ4k8GzZ+4EybhN/Ri7UkIJwKXohHIcmS5dE9CEbdiynQcjgz5QaSUKCatuWK0a/EEp9CJJ+ym+DsgqUnyPiqZUyIiDa0IFO2O4civfbRqNEjQNAiCSuX0MorkbvngaNZOfzEVibf+xU18QNNwP5KzTsoLwG5Yv94bgUhHfI3CsSSbaFNycCwr78WySSzEEsNfQVYw44a8tY/Qeg5MxeiFCWGam7CSSfFCk3iWP7hAYyTSHA2mmcZDo/IbFikQRcQeV2YSYQzAQZShhAiyUWc9KL8ohTsxa5Wx2g3txOXolitLoiSm30B1Kcty4KPSFKoso7KJPoSFBRaRl/UuZwyT2JzEos5OWLb0L2MnQtTGhz/WSXk3CPggDyNrhF8QuJI7baRb/IkzYSFFDQj/ALB0jI1ayrNoiP1DEAN2iP8AR7SHi9Snj7llDinfWpkc0lkzqhzp+hqaOAZLc6Gp2Om+hupRLhDFmfWZGxsbJGl5b3rF43GzgT9BAka8F0RgpFg0ETgqGyyN4oxMbFERUhawP8j+/FI0OZgMyVDmtDuAzgPXBNMr4EGo+x7YiTQPrwD3kfIxveNsknYo1atoJCSIYdDy/wDpjhNgJk4il+47vSY1iYon/ARlVL2JTcgjQIH8DQiTlQLFykWISKIORvg/Z6R1ISWcqhTW0hUwmvwqhn4BQaOzQ5s0paH0itBTygXHXb7kLcTyB3edVbB3g+iJ4A9/9D+lScscLq6ofshVBO1tbKa67HbQpC4X2P8AYzbf4EpUQXmUWKmlFCmfWEnws8F44E9jCvebIkSEga6LYqOlgRAUeP7+IYYVMeJBRdLYlBAhKxVQSI4FkoitoQaEPg9B1cGgmBPZGBUbEKbETs9pUsgqyFsaAtyPOAxmwTzXO8SMiEKUqdFxaZN+nA7I+gftTcFcuDhFdmyyEWpF5LQkKVLQjsskxyLZInoV19T0E7Q23otVzbHKFw3AQiqSCo2GUD+YxmIkpvkEH+yIlfnbGnLOOH+RYqfTfwLlb+0jdHywhaVN/kNMR7St9LI7Ni4+TSVzvmJG1CRA0bJIPYqOgnKFO2zix6PSzxZftnVcpckoiZIw4t4LCye4qRs1Qes1Igsza8GPKw3RemQJHVbEjwskwqCmYKMItaFBT4ExovFA8uT2iFyNzCE8DrcdbGhQLuGJbH9jex/rIyFJFBcLm8p7CaPwfbHqZsd7ptzc9kK+WGY23slOxKieEOnsnIELZGTT/o6kVbDpDHJcixY0NSi7kNX7Byb7+9Kcm+hFa+ofE0vqF+D6Dhxu6Ik5PyxyfqxaRQ7NltcDETBx6GdD0Nz1lfijYSH7P/X8ZAmkoEUQjSO3JVLkOZUEWrLn0ckT7UnyHivG+PuNUmQxUWeFiJybJS28NIg3WRWO04Yx+GSFEaCcISELDHIGQgRILho6T7haEUiR8UXUegb+D0D0hBUhEdCpZagEIi2QoiDQSJbIz3YbOBCS4fliTHqn3HORCgEisL6n/wACo2Ioki4BDqBvjKEm79/Jt/rw/gZ26Z3PpcNuRzVH6EvX6DcDdv7hJq+yNwxpjeNpL0LEpD2IsghyfsGr+Rq40MrEdtSonjX3NyCSn+xscW58QG/oKoJk3BEGmRYhEfgVtiUCUHB7OgLG5jYzcTwXcINCELJ1wZjHJew7aEnxghuhhBFh4Yx52nAktiwlIkgiXgYhTxs8yJeCBRoaRCTGmFN/fxRrBQzYVbLIKKFLUYJBS3sSky9kmCqnk9ej8YZpa4f5EoezRDkjWYq6lkQ2pUEbyFMixGjqim/X/gij7Hef7GliyFlQM79EUJQJTCxc6wu+ikmED10UdjIly/az32NdfUVlh7xGBed8hlwJS2ehL8yhCJ6Kf7CctfwBNXH6wyskqSbsQpLN05ImDw9EFLi+4mExMmSJjWiIMhiEkIQ6G5EJnwN3wQCfMKKxUYFljGPBwCyy6blHBRGnJEoF8DkiOUaC0LLHogcqExZEERrWGMeOjFIydj2UxVIiNCcvYhg4mkTBMGkJiQoWEQWy9IPSOQm7jYzjaU/WRNiG0XtAltEraAvcKgRrZr+JFhvaETJ7NogQlsY+MND2IvaiZJjgl2TbZcB6VHzyNEXA1KNaOFR++D0aYfI5EuVB9HIjVcNoQzNvsQKiPY3uDtbTcl4ckQnGze9iWqGrkYWzs6JwLCsuYwiDQos5oQgQnyIsb7DuMMRh4MY9o0REyWn81wSbnCypkSRJCCw8HHg4UF8USNuJWxLy+1s/IbEoQWxExIfDG+CkaGvkX3DwHwEg5iD1FCcsvWGfI7p7QKxOa57IS17CloQFVexpInzQ10mnae1hCH8Do4ORsZ8hiIcKkcVQ6TIe6lcjWyJJqjg22NbEhK5ErR/IZRs2E7ytiHFyr8Hsb/TTFqk7/YQ7j/YO4L3a5FhRpsaGlyKbTNInd4aVk88poXa5TggRgjDnEwzUsxAlBYZvFEEsGHB+hh5LLDKGVCXbIihb1KHGk+3JQBPRAYFy5CJUkckSF4OQMRJJJN4yPASK3E0JpNAxS5GMeBaouRIGWBsNB48HUyaPprsUJHQRMjzZSmULQJodGd0Rewi8QMa4H8kjZUDGMezihOUzk0GuFtm0NWTXpnB1oe/4GcRNDtDp6G4TZ6j0Tg2LTjoRZvP18PyRf5Eo6pivtmyD0noiFqijstDTYM4cbIlQOmHiwhBBBBAFhmo1eNYsMS+BMCWDL6Fx47tJcjdoaGraaJPQFGZVwNpLjo6JCkILDGIXGOJRRZeLfCSkb4PATyEOyXSdHMSM2JeVzyxYwZAw8vikNIRH4FZn17Re2bRra6Hw6JdN+xOkdCBatnJax1HwTQR1WXDoqXvZI1VbywvwwyDkjDPzGT9JOowZOma6ZNVLsZqR9CSIxMa2iogbkeh8jZ6Y5w0PkP5UWZdqDoNof7iUmL20KvgYYlSImY10W9Dk4IuRzI3dbIl0FLJAgkLLxRhqFhmwTBCRGVyF2wgIZQoLab7RBJaPYdgoXiUWVRwinGnjYjTNyJZjsKQmUMkrFuxWxlBnCeNosG1w9F7IEmFImYhQsi+wqB10FP0SmzNDRXyMmqSR94TYikfbpoQVyB0bTxoI0qsPT+hx37GO8cjGJqTWolZNnw5HgTfKyxibHsfI9XQucPZoNYbv0cCNz1NfjEJmdD5dDJz9xUtRjYhSJLFb0TBDhktUrEqeWP8A16GUX4CzxL5NWJGzRiiCCwkJEEEISga2E0e+GOET8QhfA5AmTBJMgS8TE6dwblybi2c6OCNhCMU/aHnlEAgmokai0WPGrGu5YYn6oh1QQK8E8InOciZUto0Xo4GT5s/Cmx1R08tew/uEg+x4ZSNmnMoXoROUN2KFk7Whwk0mXt4b9DHsX7YM2xPwOB6gYzY9mkziWIR8q6wIR8KITwlXGphMYuJEdD8FhzUYhPhv5ihThIsmzQTPPVkYoyqKKwJk0fVQ4Z9xFqX0IslM9kDQglieIxGw4UGJQssiRsBUeAzbZCBQ8BBBos0RIoecBNRJUVseymSoDtiEmkiwyUJ4CSh0kWVmSnbOh5f9QnQRKHJzQjlCpFfKWfXt2Ehn2h6wxaE/uINqZYho6I9D7NDiOx7Keh2h4ez9xI/kdj18Is5Hxg9Yk+mNIWjD40EuQ1IsC9jVHKIxuCVzQlyc6L0dR5jwEi8HvLCZJI8iEIQhJaQyolrkia0FPUPZbj1zh4NX4p6GoqYgQqaeDkLEVhKM2Js9rjXgXvwoSVCvClm0cheDhVYC5OX1F6UP4Hh4rKUpDimMkosGa/8AjJ4/BBKNCJnpCPTbLb72nYuj/wBTFScYJSrcJCVy9rhjk4E1AY5gmR2RRRHQ99mtiwfgLP0TudoZbmxo0wxDSRTr8AtlgxDs2iHi2hWc+hDTPbJxNG5IEHo+zOLIOdD4sk4PfyyiCBoYfgiRHkAIIoS+ktiG7NP2Mz4hbFcpbCPgmR4NCeExQSMRhAnjcnSd2ORZGjBMlkiQ0NDx5EIciSkRoFljN2DML9BSNFjeCZt0mjYmtttY4dkSKMlBoKf3JGqvoOxaFBHy45lL+jEB4jMs3b/DQ6RDi2vkTrW6JGhCWGcC8p2fNYHEDdD0N+jpuzjEhyz2exiX3Gskd8r8YIIJROkJZ6wX5GJbj4GNnxAkmeUUOPoHK+BXHs+43Nt+xnx7FCa5IIEiMj8AWeisRISIFSW0grlKsYnNEhKbgSIw19z52INCWCw5CxKEiMSl4G6IkbUVWEkaCvJeC871npIRWKKigYleObjJSP6c/jFQ5fpi81E00RsPU19SUhHK7PxHORI0Jidq9sWEFycyJ31CFT6mTcC4mCSh6SJaRqp7kS3jkaGNUJs4JjGlofOLF1BpA7O7Ep9rHHs+pNZTZ6mH5G/0h51pRBuFG0LY8K2UnJLgQhQRQREiojlFZxb7rK9vkkg6zrz8ILAsaKKCDezNziDhfLICQvBqR1vQ1hCJxQsJjWJXg5CxCrEs8XGgSiRaPgfE9AvQXqL1Pgegi4IxCBJrktH4JfEGy0K+wlZvzoYQ+To025PsWRaCT4CZIhrLrt4fEoQo7LKcOttkvnI8Ob+py5YWvY8O8GOhyn2h3aND+CKHq9j1h7kfI1iNWM9CCIL2/wAiOOxsxYLYVtpMjVbL7Eq4sjvZCmSnY3LaKdD9DKYaVtzQ1GxMlL2l4CCCCCCCCCPBDxS54FFei7NyPOH/AOHKb/QY1GtG8IboqOIuaBp4PRE53B28XGgoo6REaIdYIorAQXoQZUuxwdjG+Vi63ipRd/Yt7RaaJ43/AN2IncvRVqIVNFYvYW3E+4Fwyj6pVfJAmtkbGcCw94Y9mx7GuUNzWmP9j2g+hYviizQ5EPKEepz8CcQz5MGXNSG3Bds5E3NjSeKKjRwPUi77F2MXIf2P/uHLfBOZJJJ8JJxJImNCxtsdSZGlwIX6Dw11sT++VTJBVFhPCygjckFjY1GgWEQghGKwhIREIgSEIGsGo1r9FpjwhJ7HrlXXJGlfVidyjoesHEm1C2LUp6H7jMUHY2lf6KGRAomBOdqhIlbGxzl4bg+DSBSbvDY+YJgn7DNnrKRB2eyWByC0IZFMfrX5glxYlEQqWIhUQNVeDmfQ+uRn7Qno2QuIfAn4SST5oQ0KGpCpCQIX6Mjw7E+zUsDSijVhJIxUyJySwsjQaRYWCjwKKKCwIPhjGs7LBxLO8GTiCAZuHoLG/qnRemiGrNN19PQolkt2+K/2ImQUQxshb4G79Y19j+Ut/wCFr+Y6BIxvcjeydjHasZB37HR0aIH3Neiaknssph8yLEF1STfBD7tV7ke1xsWiajlO/ViEZgSLbF+guY8JLYu2LZ68PymbEqr1hk9/qrsQhC/SfhT4LBY1DVGhJI1EDFFiYeFk6SgoIxBBeJwQQQYTGxhrYwx3ix7m8kowpDkpC/gNWck+CBP+YFUktcHoiZdX92Hh0xXrFuJj+kbQz+EXTNe4Er0yxqO2xwZMrsaI2sTa9+iZ9DfAuzQmRP6n7joWhMjogk5GpY0kPWkvsIJMe9XDkj5OxwSbyZw4UsbpQTS1DPvR7540S5iKOD4LX3/7haIWWa+P00uXhCF+m8oehoTgVsW0aHBJOKFifY5xINRWsEUwweP8OEEFkJHwGXjp301OKIUj0YyeyZtFJXYmUuWK7TY9LRtQtOBUXqdfKEJMirZf4I1FnUUfQ0aUzaYtt6HYfCkbgLdSaLFDWZkurTkaQPUdG1jcDbTEIQ2TZbCKCO1EJ3A9+9ja9IuxSk+mLXslUkg33Q9UTV7JsOkLs5Gu/tZXi+fYhTWn4RGhWQLx0JcvKEIX6TJJENWBLN7NMyUMjYmVmdo0lCwRsJ43iQkxJiTEwzRWW4HUiFhHqNRodogOHJqWN4OTb2J2JiUfIpaCfBBptH3CQSjb5bvA5qJPoVE2xPJDaQu6EkOBs/zj9yLee2X8m3PwRGhq/FjU7RLvg4Gbj35JJH2GEJbOT0OnK49CJfjnBQLZvzI2vqhCHdzG1k3JkSJEk1AvWy6xMlRMevxYmo26ZNEuR2ko0oEob9m/oe3P2yZLmKeREa6ClAFiBr7i/OYxoS5f+Cx4TKmTDcWSi9Z1I2KhPY2NBWiNfoB/UEggkFlXUo8BnNF7Eh9IbNkdo5UVaogqDpyYrhtWfYU+TcrF9WBhi+TYJEJjJcY8skHsfZPT+4zw/VmzKfUjFA3KvvRwpfsf8cJv/UXhOjlT9TgJImfgkkkTxQTlFwcpRK4OajGidIJSUlESYJ3waPeiQbiCRHbIY2zhtDQyxOlqQhZ4NCzoS73/AILGMZwPTHxLRqOtYeiFicSOElMKpFBA3gcgsXyF75soqY0G3Bcz1KPyaRGNn1HUkJBVBOU5IdoaqeRQWCcmQRgsNiBHOY0IhSxSsRQSCIFwIv8AquxmqG+ybPoP6vgmOn4GlU/yz+kQJNBJn6CIUsKCZJFAuVUqHlkno0VVoEPohLQ7FcF/INJ2BMSG78VZ9WISv/CYxjOBqGsbGhoNk3pFdlbwLYRJoKUJUMWDBiQ+Z8j5nzPkQvYtuJE8hCVFjw3CzXV/a8uhBtNnFBLbVRwhCajzoTdMTNcGRc9lanZE3P8A7IUkmrT0+xuCzJJGNyHRQ+GdeH5kwwUBOXJJIexBUfwQIgWqHv6iII6djfevmDn/AEv5P6SL0mHsm/uG/qCdN/f/AEFByk/69iv9zKtVKb60cAN7URhIlJKFzbEst9k9ycNyJykUN3v94VPAbMbdoe7F4Lkix7/w3kY9D0PfHRDUaMeENZSzZmQ6RKZaJxEmF2HuH2Dbs9h7hN2JbM5gZ2TRsyfg/sw3GxskoRUThPtDITQqY0IomN8Mccjq3c1wLfYijlX6EdMPwNZHY0xkeSFG07w6D8AxeTRMiY3wKDxvbGfAnuPwhOeDf3J7lfMIblf8bG4U2vqg3Jun92Nksyl8hpbpN+mY7el7aQiYTj2bSadbIZj+BgZqSE2StkyJPVkZobQ1pddE6nHUkbhSWfw2w8wNM9RslvrMTbxBr/DeRjB6Y43NRqrYqJKGVCds2ooQlLDExhMYTGxkECCC1NcU6NhbFGhQrR+BuEc5F2Q9EKstj6JPsRLquaF8sZWkJpWRJOMuifzSeQVzBH0K2ZBcmhNiDOQN9AzSGTtMcv6iPsaKJSJM+RM4BD2nQiJhjG0U37T/ACQ2UGr+4p8/kn0fZDlyJbtsba0mvokKqjf1fsJ1KP6f7j5PkYqkJf12Pibt9ohD4p1fA4T7gWWjZEvYmcqLhkDOSzKOm/wTLzvwXwaBQyihC9BiXfjrQn+sheQahqY1s3RooK4N0WDeTYrZpKEJWUUEhCxBBGQsyoQueCBm9/sUUsnghaREoSN+RrK2GlFs2AvsFwu5j7GixWo4B/cl7E+9kDNGOF0OnVFVkYdMSbLKwkORuC9iUsTohsnI5E4YsVSWLDl/G/oKpnbKVz+BOny03BwKT9QPmJ87bNcG2yOf/BaFfliTtKHwoIJTzx/xGUuFbmQWwOkqxSTENlz0SY0bb7HcilAiQTOxoqSTr4EofZHIluju4QmlKE06ZMDEpt+cXQn9/wBVeYeh6Y3Y8uEJCRph6LGE0vi641KFry68erww6BMLRYUCZm4cfsEboiREHtKELjb2N9D2NjZJfgbdpF0/OYEdEioR03ZTLFEibFTlB0KJ2Gu2/oPUH1JbWSzSPGh4iGEyTmCYZIuiAMne/g+RfgcriF1/WMQ7lDs0vsTC3zqS/k+5JhJ/ukdB42h3M2+bbNp10oS/cnRuwkSsXWyFyxSdDKmXsRjL4MUUKYaT6zFlhiNMf3Du4NI9foRJPf6i8GGGKChlmbo0NMNRcwnl8JKGgWlib8RQQWBFZiighAoTEzXRwIsbhEO2VoHLfoSiyWJ0OBAGfh4q0k0vsBNo+6/c4v2QgcIDTe4MIkhMnCR2L2xY0pwzunyf8Q024Jt5WRcbDceB7RhwNiwylIns4Wt+xydxK9/9GjSpL6CSIL+/Y7T7sap3fc/7EqVL7UMpLnTsaROUuUNS2Nt9FDM7OBblxQ2qOx28TGPBuQs5uEMlTQx7VRnxB+lr4JJJJJJJRP6QT1BJMCsXD0jTDUXCpjS2Ekah1UkI8pCCCKKKKKKC1hcpUaCCin/I/IrJUkIkHqhI7wGW2+aIGWa19hSOBBEnpb2/0MTuwDniXTRcuX0ho8JFmxtDNsGhUj50532B6Y+o7k/tgjf2Eks49jX640DC2f0J4nPsShdjxPn7/wCxiY9tUMtNjU9rJRbQ6wben96HufPBSc2V5XaakazZT0K4utsUVNykbE0msF7FYk2I0M0ouxpl3GmpJJdiHiFTg3O4zwyQI9kSOPoQHjh2RPmR7Pnj8iPZ88ffkZUUivgrRUJjUUMqG7C1YqhEIxvaQ8kQQIJCCQkIJCQkJGg2pQblDOAo7cu8EIsSq4R4gjtSOQ1iER4yNST2Oka9+7tkShFC1g5MciL4Gzg9QYl1Bzaih6I0SsuiJXwJx+wJLQYGoscOh2nbenAtiCEiGmx8KVAMbdSL0yBhB0CVY25Kiw5It+Bk2NphkW6lRQ1XdY+ThfQWM6Vaw9BGns+i4JMsZyxSSuzhsUh8WuRcDSkhqsrmxp2NOxp2P2GnZ8z5nzIdkOyPY/Y92R7PmfM+Z8z5nzPmL3PkfIc+RzJsOQpyQQVIpEazYUMe3hIQdJKxMbKdjlrWGJESiUgQIiUgJBGa1RpEWjfBMy2o0WYu/gRuGXcQx3ML6ZqiUkocpoi58GxYRBOv6gRK994GrFvCJJwkQafwWiSncyJTEgTcEhFO9k0QGxTIqb9vyizt6T/v7DSdCV/k1fY8sN0I5QntwQ5vfVv2L8HxAhdSRdyQSarK62GqWPSibkTW6PzcMNmoFhqpIoSqtNu10PtBxmdjxS1pI4GIoB+4/c+R8hv2fMkSJEsXykvfhQs7SKNEvYLE3PjA8W7CQPkFZvNhyLZE1JDFnIHvPaT855F+h+wUJZSmx39uTGWI44/oS+MHyP8Ag5P7bo0HI4GMWecEPTDccsefEWvpg7UDdsn9jgX7mFhhM0/R9yI5EEUkKT8kaYlKBIWVjR8Mo1bgsx24Q7+khCHsWNeKEiCBISEl0JCQiukJCCS6El0JQkIJCRoLxDfwTU5HPCNxwzjY42H/2gAMAwEAAgADAAAAEBfSF9r6dG5z8m25YGw6ir2997hktumnwSNe0yGMVZAruAP68h2JANJsVoT2XqonBgKPnaTc2ll9MD2i2mKzoohk9u5/wkl8eHY3xF2AJU4gz3ZvEYEcQBOa3OkHALTw1jejAEOX23CVbIkCsgTeXDCi1cpWmGLmGLSBCH/97CzwQtuKNfTHGBdpd7XUORWc0kII7z8YFdErWsQJIemcDsfQElJURe5TXgfbPiku0SIhgG7PsUaAGAMEIkRUMvoXu7/iikoQZH32O6TTkpn0vtfkNbmhrHzvqAXbHlZjL/F/aKT237DsPANYu69zKo3Ti3PNBF1jN/V613zh4iyZcMxuHNCgB3urifu+6nxD8ldKWWQrutuCEDHukP0orR3Mf+6MchJRZCdlap1q9W/JU1vAql2o6dHGKB76umHVyz2zkrKcBGWzLGN9hKlOwOFFU9PjkxoWbaIPvVROIxPs1njDmHcVBIUXRFa7smmnAl1qkrhbK4VsIECX2MF9l7JsXbTzhq5f1wltvVRMQHCBBihwOa6c2zQfVF61vpgnKg7yoTvHTBKwAKrE3CYPCEokGI/ivv1f13invWcR8MMNrFqpoIUkUFZWVf43vlgoPheknv1qVVDw+JkMFSN1SigujAf7vu1X+6vivfcCXmy/+Gx+Qf8AsleOUSPtb77r4xpF0nS+5ENAaImCwGm6bBqwoP33f7apW+dbK8dH6c764Zcz3tC7lVxnmT9b77677zavh1n+41KnOrYNmEOV7dBQL0dRcJKqv3utpYtkQ9vVPIjNtgUzDQMw159ZZ777AAqvMO/vYBJ1CQAACU0qgtOsuW9z1ML6dH/vJuPMMP8AIhV637zfXh7sYyTjWQkMkyy/7zD37n2GV/hWDU+j3OHGeDwwYdDOSC391cfGeabk2lDQ3p9gvy6KuTLglWKKK27nh4lmv3m25EYY+AoZ3vDamarAVtT6TWaLn6tzPnbKpH8ChSyQNolSUEsTQZJZB4p0UqBMzyyGoYjdPUogICxD6U3w1pn/AKMNPEoNAy/sBotcU6JooKd1s0bDZlmk0WddHDg6YdIHAt3VG6aDom+B1h5Up4ae9HTPM3M1oUYhoDuRbytALOPI5apl/TTZupOReG3a6hDIGG3f7ZD/ANpWsdlJDVRXUc0qztqwM05Mu/oXlQFzpwLXUlkjbthJtQh2Utjyzo+jyC8ZKpl/whgVVCv6KqTWaeOBYvPW80P+r6YTdLbLHiad20ACk90iQp1CvhasnOi021n09M+cTKc53bplYfuJICRiFJcPp72yhEzpjGT0ZJUXSwv0jHMDdys5YAwt5AlVyAVTREKvjw0mtktTQShr/HTo7Nv17OtafKnVQstE6FxtOVjJiiezZ9ApYsibYC/TdfW8BYJ4Xyq4wjz/ACsFOl0jgoUhpuPhfYodvTeApfqurFq+uAqGwvQbeGOCiFww+iJtO/PGN0FEGe9DV17HMzM4ieelZrP/AF7jV3Uzth/vN8ra9Ir6kfCOd8luQsoXEIP6KEyInWCQO4QG9qGv+/s6K6pyYFL9wLckv01/EJmoXuuIXxedp7CE7FZINyVsFK7YV7BleGJHwDUVwhdMENVQgv0yM8XAxIl8+JWlCAF4kuPJWsy/NMBAykPGUpQUtCZAUbZlBPP86N55r18cK5GDgYVPOt98h0NZIAAEnJI7kHXoU00FmYoGR6eDNqw1pgbCNze9z5XzrD1A70WbPLCEcSQLJez6EGHKq1OxVCu8Usb/AOyoSqryBWtDMgCPp5XeCMCXLWN7Iq9hQOHBCeTjwMEUUCwZ4lCAaJ4O7Wrwu8lEAwisXjDwATckDWEoOsL8OmnqeKez/QAzIaDzzhMVnIwGBPLLysBTHxT2oXxMzQEl4Sx7Jh4AhBWx9Ybqa78WzdJX7cmoHMOQFi6SC/zeF4mnFH4bSsPVueKn2H226bhV6RiYlTiARAkLntkoMZOSjEnG/IlkJdqjQxDRsQ+pklXGWZNmoK8Kl38u21Ly1+QFbfF+3YjRizgqenko5IzK2H7E0F1+KA6rxjRxtBCmG3FdRRDq8/KawpnMaIE8X1LVhMb6Z5oKBDW8KVdb5JbkQ5gtJXWkz2I+lvRz9SxmuPWZIPYK5EezMoYIIJIu3mbPHCvfoADVxBQ+MAW9ffNMkEP980f8us4reKxASCxJpq33NmW4oB+mocsc4KR0L6x67QyQ3WAhDiAsqhpa4JIo49/8EEd9sfbfijy6gjC2LS7Xea7pYAhSDM7JwU66hJ25EB+JtBE8AxgsIyW2kmn3kHMH9YWUVcqlKj6tet/FnjKuADGH4wihwfSC1vgJghQYMdzCvDi1QC1rQJI4+ZrKZrOY6dZ6Yn2iCxXDMZXnrNYhRXYndCRmOAMtdTMX5MgDTB9HqRHMgE0kIdpbY7YvvNcs9fff6tna2bWcErvbwN9ayLdGyyD2FRy99+52VgtZniJG/wDGncdd1YcfvuG2q/H/AMy43326lFnQnTKIR1cPPKHPYiwdICAgRA5XYjvp0lmTKKx3p5NSEPaP35Lv71llr473y+z+oscVoGw/tMaTIT7APXHBLOy2GJiQockL0NWUI0K8DeULNKC3FjxKXf8AefrPsE+fek632vFMKE14yCywAM5n6TDtwzDnNq0W9TGUThP4bD7BpDxK5P8ArgO2A1Fg/NcnTuJm65fxomXsQwI8wsv6hFYWUg4Mmg0bFp2PkZK62ohAbNAMEyiPIteCr7kI7jkT0p9WPfrGMbf3/8QAIhEBAQEBAAMBAQEBAAMBAAAAAQARECAhMUEwUUBhcaGB/9oACAEDAQE/EMHZTCHrg8d4cf4vhnTmWWWWWWST14El8Iww6JhfUdfC+XGMJIn5weCwbxlllncssYMnmQdM4Qx5b4jwm9Pc0PnlfUNsJLHOzyEkXxHi8ZZZZJZCZ2CWCCw4yCyySThFtttttsstts2wzHQQDrKeDDEwlYFh7hhxlgYRMRzePJ4ZaL/SIep+2WTMs5jrM2w2+A3hjNtliFlnrfHg/Z4U5JMsnqGT56bRjEhnDJfsW82e1tthrEIxJieSWm9TlmeCSWrGxjhnM4fDyhZPzfHgJj6h9ojovfeAw8T7QuMseIWSWWXsnBFhIe2Q/wAg/Z/xJxCyyyyfAMss6ZxlllnR6Xx4Cb45BPpegvjwFnq2XJdeZxnBA8QhzhHJMgPkJbCbdkP+XJPc/XgzfF93xMfZfHhfsK1bP5PA6OXsmE31wLvq2MQQzwf+An7vjwyF8z9o+d/PjZ/UPFjk225ezf4C9PsImQ0I/wBsss8Dj48UvmXvfHPm+f8AijmeufLbQyKNb116MlsV6IfdtZC/n9Hhx8CHm+J+xL1LfF8/8MWWX5MnzCs4dTWpnqbq2Z7QBkuH/wAcfv8AUbZ8DoK8iMfqwr0lvi+f+KDt+y4cL2WmerRkdnpxn2C7/wCob6/m+bE8ZAE6FsXowjXuPpzQvmQWYH+xw2kNZEiw3CkCQ02xx92GfSwsyfb6/rnm9sNiMWomMl64vUvUtssjh5ngRPUJC+DI1D1r+2Ybktl6E+79QZL3/HfDfN4CCCzmSerPSzevJ+o+J/Q6DbRtNsD/AOMc9/8Axf4L9l/+R8td/Ze4YX73bbbbbbe7bbzbesoI8X5LlIFnvS9OZ3bYY8BiDJskYxerODKwuIenmpfCL6ZBG3eLbbbbbzbZbebb4NraPknw2X1O983Vnwl8Czi22xHXgvzmGH9lPZalNcmfbBe0/wBicSEt4vG+G2bZJzYY8GE8PlqyQGx6GWeRHFlbER4Yc9uICW3uUZc9N/o2ZbOBshpalkvAYg4sPEjYY8GW2XgXPYLY6x0OMpdYYYYYZYLFngtE4vR02QcbT3H+uT6llhhtPFUxbOpuZHWWU4nd7pFttkuW+48jqziyCIQjiGFpJl9vkXoJRDHPrvqPSTa5vfxu36Woz2yo8PT3ZJCI8DgvACc9oHsdjjEc3qzhiHBlpZt/peiTb5fY1fJuzx4+ur759h+2rWfu22vQmEyPjLRyIoZ42GOk3iCzZ4yy1QknRxPBjKGIUp7j1NIodj7fpFgiNG27GCYL7YPyfR5Hu/W+o6RsnOShkPArybEKRY4BZ4/sPGWCZJLGLLSwvnCjt82ZbHu0z6vqIS7hfRH82e4bJfnYa2er6jhz374D8h2yZeA2NqTXtpGkBAScNaPg6vZ4nMmMyY1mcdvZPyXZmn0THq+YPefSOZEwS7PdvRjwO2WSbxDIkhfJRqRZcr3fFpO2XFryBiWcbweMdy2L15+xZazgls9TzTPWkCBJLRxvjp9QfXiTuTAmZlkGaF2d6N82R9WNmSY+rWNYWWWWeO2JbMDGXrjvy5nqfvgQTHH11+R9cZeyHg314BtkZG06nIX3fLj9S9yxZxIGQwx4bbLf4WPGDWDm4X2CWRPgOHMYbCQn7EfYz6ss8m28XBECySzmw1vUhl6vq/ese2yZmQ223u98fUDBDLIe/AtkYO3FLmBBgQEEX1S9/icO+ESHhxbLJI9oZZxwuOuPWPL65HqW9njMekUi1g4R4HSJA92OSfvk+CcCTmeGWUQmxOOrWGHgFvFtXn3vA14lGPWtlHgcDhwiI6Rxn54vd8HzG3p9jj8j2+H1i23bOPf3FvqWrmLD1z0eDpB4kRPyOLyfN/kx1R6wmzwb5lsoM+su8DMnHuTG+ePDmRw4RwZ5v3+p4HVfHWHmPU9ZfSIsTh2DfM9Lb74kRERw+9hs+unE8M5llllllnicb9jv1jmfyQ09x2Wf6vc/T/ZM58X+Is4RwjgcOD1sp9vk/wDAdB76viyyyzz2/ciK/wDjO4k/L0Z/iWWeRFkHBvmZ/wCYfFkjC4yk6ffBzRjvk/7ar20NjYuM4sggsggggkT1buz5M2/z3wOPiLbbWOM7BMvvp98RxvoSXZPiF9nMDbXAcBej7Zfsn+zDC+rPF5vhv8Nt8GOMc3hEc0iTBL0+9yzgQQ5EUx15AW1ixJLbZ+Svc4IstmJPUT/djjE+ARw1blNvfro8SzI46iZyyKd7q2LZnN4lskMnW+Phn9GOMfxZ4fXge7AkyCyRLa+Q7wttiM+iTLbbZOkxPmz+Z08mWWceEfehtuW8QfUwvf63yEthRRsse7LU+hZSwssk8HoR/wAB0lDb/L96OeGq/wAIu305yZPf5AxpCPsCD0vV+Ashj4fXHm2283u22vQ/g2P4k+fqhZ3YeEk6j6h7Mtmx+OBx8D7PH+mxH8Bf/8QAIREBAQEBAAMBAQEBAQEBAAAAAQARECAhMTBBQFFhgdH/2gAIAQIBAT8QzeBwnrwLP8G29ebbbbbbbDHDuw8H8mOjhI4eDwltttt8tl3uy22228fLI4PFi/kvfnnHj2eERMcPI8G228XJzabUU3bLLbbDDxmyyyyyyCPFiWT6+Dwg9SWXtGZ4RLCcI8TybOLCVRbwYV7T0iLLLLLLLOAgs4cW29/E8IwjwHDwmbbwGPnieRclDYcYuwyCNQxZZwYbbbebD3bfEN44Pg9fTv8ADh4eR6Om2zFttttj2zE4H8IDnEf92tpLw22223u22222823wjwfDJL7meE9Dm22222+LDluyeCBZijbER/k29iPB48JlkejrP1e7Ysv/AFCVJEo5HyX+V+Q+/F6T09H+MFt6dssMy/6W/wDEJT9ken9tt8n5f3xZmOf3j/hPg/JP2XxT3ElYTS9yzonWP0eni/L+w+LMMt/b+T/gPf7Mf3YxehAKI+4ZEfEu183D9HmRw8BjHDYZZZPUcD3fyf8AAeEfeKYL23uJtckwMnmcP8bF/BNan1HDdYPXR7n5Jak/Zj5zM56VbTBIDrIcE7NL1bbLJTPkcP8AC9ucC2bNksbOD3NnN/cnnsLYvCRmBGcIR+8l7j2xh/Usf5DlZnuWR98Nn+I/eE/UT0xZ/wBiSD7A/ktbJJ/PPzJS8yyyzh92cZ6ngfhn5GMZ3jH3t6HudORFvD0P7xlv5Zw/FZe499yyzhkW9PIsss8Sb+y823/yH5Mgn22Sz1bZ/wCTfbMh4ebizE38GPsrZSBaWktmPyCyzjPgvAaJGXICN+kFu8EKrb4222xMz4mvhGPm2xMZhBWrenCevQ8Xqz4jHGrBssySRaSHqAPUK1KlS1lbYUvqfQ7ZQw+GdPtHggLLLP0LbMcxzNSwW+HtRbWl8F8TB2e7Y3jMHRpXrfZwRD5C3sK084WcCfXSfM4WfHuG2V8nWJ4uQ2ZDTl7Zn059B/Igw4MCMMJ6wcPfXWxn0+ECD4EnNttt6OEsPTw8gk4YcPRrf2cvt8vskpRyfblgT7lKfLb+xYI2Be/CfU++MsgJZZ2fkZ4OUWHqy2lp+BfyXgw+Aw7JCUvuzJabaSA42OAs9w9STZL5H+8M4IffhXtts+7awmCVJZ+AMFlIRJk7FnBMzCfHgsQm2xx9iUi8RkbIt16epf8A6T3Ya3yOSx9vbxFbzexhGOjba8eq+7Bgt44bzbZN4yyTh4nvuMy+pAnayO4LSe5G0w4ZwvqHSffgR4PI52zI8i9pY+r65rbeRDHGXqW2223xCyC2SYb2IM9/gT0n7nxgZLXx+PBk20lPAyM4s8Prg1vRBNvBeNnjllkYfbR4Sw69Ob4HNsWFn4lZX7hZfLllkO4sI42ySwL3ZIe75v5PCfVtvEsi9XrrLJLbZ+vFsFmz11Kly5WWY2y9G+b8AOyWTwLbbZer2tOM4T0S6Tbbw48LOHpwu9yBY9zxfBj6E7th9eR4Fsx5PB4Yxl76EvAvcszwLkxr04Qvl7T5L4syyLTyPM8skssiZk8CfR4fCbLPD76TgYcCWT8hPg2zPGZm/st/UfkT0S6S8/rjroGRw7Lkux98OPXwZ4vMeOeWeJPg+ukvN+xZZF7SC6tOFFF9WdZ8HjMy9R5D47bbbbbbb5l8J6/J80jmcdB6tE/+F6b4/wDP/wAh35wv+vN68Zl/PMj8dt/EvroeDbbbbbfB4m380/8AFgv/AO2gURl/UatmevHjfb1/Afjn6h4Ntkn2Q5B4H54C4JF7Q/lmPGAPVpaht9mW222eMg9oPmJ/Fn7ng/k8yczSswUk+4+R5k0y9sZHk53lfyAe5ycs62LDRCDrZ5H3/GdE8LJZocKHYQfiZZOcXxKd4btw2/ogssskjwOD7/xPDgjmWbNixBH4t1l4I8Cby+FPGenhknmfuceE/qfOh7lTbC3bM49yC9Wc3qeBJH+I9eHw223g8Z6EudTYhtf4R7jBJExXW22DnH7ZxPAhwm388s69YSWW+R5Dngsk2zaOPfcWJDatk1OA22+A+3xw5llllllllhZZZPi9ZPmcY81K23rK2222APcR8j0WyXkrHSfnTyPALOM+bZv/xAAoEAEAAgICAQQCAgMBAQAAAAABABEhMUFRYRBxgZGhscHwINHh8TD/2gAIAQEAAT8Qy2EwaQ6MykKmFmG1CmCB8Ex3meGeOBnUxkxM3s+FMUcpc6lssQiIWfiGMU8vqFOI+McrCmHEUx8Izth4w9ApxKXKcE9k9kpZDlKdYnxmCI4J7JloMymeObTXUPGA6h4x8I/hEXqFTiZlFnUs8zLj29A8J45qxiaJYYIO4ZZIa9Qw16DxLg1qJ1UfGOeo4v8AM/qbg1UR0RF3MpjMLF1MODidmZqmK6h7ITSYe4M0Kf3PDMWoVOJnYh+XKPebHLHaWBRRD0QZZuVNkouIm2ZIA7XRMLZL06wwJU0nKG7DhgB17QZYcyvQ4QfhMDiYtTAeglRWsMCJggzm43MkwP8AE6ExExS9bo4hU2TZ6FiS91LqxNWOOoFGPxBrX4m7EczRKeIKZIng7j8vQPCbQz1CXxh4w8ZtQeg8Z7MRigIoaRHzF6B94E4h9vSDc9v3B9Qxntj19HwTxehmUwxBU09TDDOY6/woxe0BjEBhIZSkpDCOGY9CIDMeYx1M06Z09xgynig9oPEEOPQNQRTG7O0wzG4mNheSiVRMiQgH+KkNkdLOyVGQ+zL1Ba6JQFcrbHqdxYjV6Ci+gGYRo6YPnjB+abyvTV7zR7R2IV+0FWO4sHo0ZZuHMGYmIM/afdQzZOpBWUt2Y6nVDiDcqGpiWViaMfiYzEw6IdOCHmFU3TwTwkuYLOoTqeyeZPwh4+YeMIOnpp4lKxUfCWsAW+CEAdDrMoiPJhjfqMFVCTqQ5Q4dz2R8PxPB+I+MxSg1F8VLIawPmAuoWPUg6gcnoAxAVNvQHUQ0RKLdQ2OuCeCDcwTqjgyszhr0HEM1nGbExTFF7DqEsJihAgF3AVEVl8TV/iYxhlaJYFiZx5/txtA2qoY7yRyPUCkOoMUTaEOELMDuEo8RGUW2w/awZlSpqh/CEsY2nIvcdh6uyGAzExBl6UfuCCrMtpfgmzU2QGYNysw4wGrhYahUxMWoVagvEwuJn1PB6XihkuDDglPUc6qOeo+MDyfiasFEO7+6geiJ4tABKlrkVCOF5RolUBBgajW4CWcb95qELTw+mT4YeEMJ7Ix4J4Jg6m30N9wUgU9kA1WfaGbYlMekhUNx95x6LWWVtpwQrUdSkpTN8+jVk4MUXpeCPJBkhhICpyYP7lwjhziKEsZv2gcHAZlgm9ZmpNvViAV0R6kd14ljSlXJxBfE3pDUobXjWpUHe2YGJWINbmGYyhEStAOR9y7hddw0TDU4XdzZnMqHGBDiypiYYITbpKizUOGYmHLBKxBhmRBu5hcxVPiYpimJ9Ax38wySEsDEwmJijjNmIVMy69E+YfUBeoaaz3OL7en2TTXpbA1MGhuba/MHRw3CWkG3ASqyIOFQfKW1W0DMzkc17QEGh4IhsphOWY9QdzPQTwQw9D4Qs+hig5x6ee2boMyjP0iE8z3RwOIsWQg8pfMuYFuoWt/Al5izBdxFrmYvEVvpyejf0ONjyTj6XiLE0lLRWm9oA3DONykUTWmHpcUghHPgLmZdK7Y3Aa6NqXVvEWKqJQHEzuaMoc8zADPNHCUYlI5/Mtlcy6f2lN/lLCwEOXuCV6DD3mD7TzzKBhN7wf3FsRw9TWHLNvQ5QZTDcysmf1NWYEbJMDDhIdxMy33hhiwmBj0nD0sWoeceh4p4oZa9C3CRVuf0hYsjrGu5n3r3EVb6p296jRGKVb/SK1gW4VLZbNu4iCkGUuQ/n8RiKClyiCty/ilFQPc9vTFqxWKu4GZVtrEvqr95ZmvR7CeGHj6Xwng9Dbib8TZN+J3EFMOOoP3KWsGYLnFDCH294QeWYkLYlb+B1Ll9VUe03VA7j2TSKfqBo7h1fpv6FqPUwExRYsRQEtdNSupZNckIlmT0AqALZdwI5EbqW0Cilryw9oymISOxS1mBRNJtA0xLvMcU+Y1RVQTQwRv9xtA85lKgM9xgIBjK5MGZuyoQWPeHHHEsXMVyMEGISeTTEMfF7m7CGpsghmV3+o+hRG6oTMxMO4mfmaCDHhBgxDhDiViYpgZmlOvQfGZNTwegqwR4FdbF8Etudo+uYeqi5LD8u18XKiFLtg3p5qAwwNRsH7/5Fsh3cff+8RVu3frz/u4Q+UDtfMuCi7cfNQiKDu6jqylbb98Sger+SgVC3YM/+REUQ1X5lYUAo3GAoRQyQ6yvUrGRzEzHPH6W3GZ4pmxLYqDMF7jdnaLEOn4idDcEyOCWjADe36h09NI5Qa3Cy3HJIp5gzBkgeIGsQejJNcfE0S8TONVxKPOu5UCXHS8nDLjpNnpcFNJkhhTBcMi2l0P5iUBQ0mo2K2LzlYBEgIS5owUrq4V0WwAaYGWYbAmIAAVqM7XuXeoBzN9SvTTP1zOywhm4eSlthRS4aiYhbF31cWdzNSozl4Jltt/EG4mUwIcTBiYmHcEQuHCHBBhEGCHUdTnMUG4Q1EhlESrqXEBtOC8/6RIW8F/RwQbtdWnwEOmOzg+Nr2/7HD5hS18QaBv8nfh3qEhfg+B/ag8caWsP9+IhaN/36mMKpv8A6jm0Dm14hiWgLorx3EY4Lq1unziIPcgbxr9QolA2jfy/6mHjrtv7hdgaOoVVkDqHn0xGq9AwwFMG5mcQVbUL16B6LidDqYFmZQtIM7cELKmf1GL4e0T2qXwilWUW0egPuou2TBolssJaHEwMk5KfULd/idj8RO0a9srq1hUbgcrA+YFMRUT3WkrAeq0FtHRKq0IDIuyOGzP4GIO63V4mkNR9GstaWeVahCONtyoFEp1DGTEoBVv3jUhMMqpUG6hhyw5lSppmj2/iWWIdGYJhAdQUcRQITX8LgFAV5LmIIULq5gUM1EzcOWJ0gxmhBDuHDNkDbcOHvNYGCaPQ6j3KxmRzAync4Zg+i1AO5tO3RLDWFMrx4lFaIs6p7+f7UHAsZcMcnZuvtIsirjR3XtwA95TCDpxLq0xr3/mUr7TqarnnL5YB3Wxtq/y8sE26WaZf+RsCHAcQNKorz9hr217xSIg+R1/EHQagWntuFLIpd/iB3qaRXXvAAFpeOfEp6+chHxMIW2n/AFKJLaN3O0PiWd3AiZ36B6WBq5s3Gbwy28ol4UHFukXpEf8AiXkwVcVoNeS5iIBdQzGsxUm+eGZcwOswfULR8Jl1PDPCTxSs1PBAYx+JXqeyAJQyisehpMEzMTPBjcWBLh6jIlMUtO5iUu6OiBqlaUeYm1asUBAKxqc5LXD009By9pcDqCYGiagIHrMRCSwqCOUvjculMnoGClgz6iA/GFQ8wQUy5YKKl+gMll4tkqsQhlOHqAQAgPMsGKrItu4rgy5qUEWoys6BHXRLErKmAzFAjUQGpamaS1MyOI3TFeIl6idQaBXgDf8AyN65htVzg9I/Srao47/0ShbFs64W+OvwRjim11Z14qrr7yxTHEnPAN/9zCXU5odJ7N+Mr1KdxcGHu6ejj5iQFM6Azv2/bMCAOR7GO+383EI/+kzwf7jcERg5T3eH7ZwB8L+agq0J3g/Eawv6hMe5rPVSuIAA+Ty7PiUdJPOb/mpY8WzszxxDQoAL/jtiiwKY459CmMZTWXQepbxDTUP/AMSsUvSVrSBkhKds4rEQ3b5IlAW7t9NK1ClnEW9QfUxalHECjEDeoZECHjMEp1K9ehPU9kPD0AglpPrJc+qmiKgxa4qAuIvVcQzQxyfyTNiZfrzGZDwdejOiHoPQcMAbJiUQA1CWceoRNal6DIsEO4MzJZXocIWnswxxB9UBbGXk4OoHxTVQVYyyg88ksQcxjzL8IlnXtGA3MGo1uJuxLyhLmvxCqpBJ/CDSUmvRhZuxLrgLqB1PBMuoPNYzGgZRfis8zEgpFm9aO222VAA2XA9H81FiAd08HL+ichMUYXVkEKqfVHA5/wB5gAgxmAPyvB2/8E7OBhps4N5+MMz5kAcvRy9oPR3BBFMDI8Wcm65c6i4O4t3TwSubY0ZxBMmvaJVBXvHYL/UYQEGd6uUDN44H4mUTwG/Z1LNpOrKvwxVExyzhhJFRw65gM8M8UXep4JrqE+GB1PHE9SvX4leoAtirR7HU8EPGIYQK0lQHU3ThCeCHhMup4JgnhnthJ4Q9OvX+Fw4gehtgVM6Cn2EWALf1AVQTsgVGbm5QCsjj0IFuoNlnoLGczj0cpulq4WoBR16VRIVOJmPiA48jBhIdw51BlnPpohxxxKoeCavQBn4O4l/+CXMj2mSSHEtzpOYe4v7lIreoDGJWtTFqXcR7wYlsBZBoazKjUr9CsZ3Txxjwehk1DcJfP+ogLVreCc+/B5jZohWqj/vzMhCJ1s/O8PsTftiNHkeNq9e8bBagBY5c7z+I+IhZrC8ebq/OIGVurYdeeA7zwQgbAvK0vi3NWeDPUTsLRq6w4vrrLxAor3y358+YGK7/AHCJYlgaxfcfafgDEYI03ggWAXN5r+sCjVsKs+HT7YlQCDhOXkeIjJlXSie5DUchfk78yy3eZ4IHUR1AXAQ8I+ECeGJleoAtlrRng6j4wo6gDiFQhkmhrAudhGadTwQggmnX+AoiRPRmI4lx5laghFwOyWbhM5PEuLTzUbIQLdSgANeqsvnADH1NI79NJym6WBOHEws6mkqVXEG/TCHyymuIcMGWb+v5UuHtKI/EJEAdroiXs/T0yF5hqXuZK9wEwGDglkOXPbqEhj4RPUKPh+J4YRxAKxDAx6ZDHg9cPCeGBKB1fUeR5/FxfXLdhoHsfllVxFYSY+evY94HKAv0zw+cPGagujiAWDz+fqI5QXns3riOSC3Rteff9Xcd1OL7CdHgAPuMhbyUuh0PXHwSlSm1nLmBxnGoAaAjlvymnP6mtgRmlFPRLm+FSqJsYFYNd1rxMRDUGdP+vEe27G7WvzELjEt2miYviMPpnjDGHpIjDAB54Jk5P16GKSkSVEuL3dOpQLMxhIe0uD4nsnslpbLS0tPJLdxXtlvcV7ZntmgvLA1uDRgoYNZ8xHKiKDEUK6B7iCrDoKh6Prc2Y7R4iv29OPRymrMwZ9FNCEZpAQSWN8J0nODM29Kn50OC+p1Ji4wK1ouE5VxZ3BDcFLZfhi1BmJjdDwlshZ1BFkfCU6gyvUMtQ4XqhFQeoEEkARe1sTufeR09M9oRAsA+91MfOZKaqq+DX3LFTorROvd1flriVDCwpMUHRZXznMe9uh2GGvv/ALg3lm15Vv6P7qUPKACjbn/S/UWmlSfP/Joqw4gMtwWukKoSu4pkCKOoKaX7Q6qMFb8bgdolmIgWI5HO+PaPk/iRioikHdP+oDIgTm8yoJUCBKj6GMHa6Jk2fpGvTExH1Yky6H9wdHCbI+hU4j6MuPo+j6J6BmWIfDyiJLAX7yyag8eCrlAmheeSYhoOFOPSerLjxKYsFxyP6z/hYqfzMzq6ho/wWOupgZpmzNYJtH1To+0wMypqWq8pRXR9oV5/FiSksxNvmFu3mNxBYF79AEIBbwgy0ldJ7PQZepGDUPRjGJ6EJ1wXBRqbFeD+4jjDgA6/uX4lfK50BnPgZqNRirnabOqNPfmMWy06Rl4qnHJGG1HGrQuNGg+WAAXOlYNl+4HliioCVL4x8te8O/e+4P8At/ENoAAVxAYARwxziOHUsd3Mmi+kXkezcaszBmFXUBgrNMqTDZjiK2xzbmLRgpR5JfUqFvLM7iSpXoxjKqDK6IUbcqMYx9X0SJEh+DwwUa+L3KjH0f8AB9WMfQIRvZh0EsoACyuYcps0PMINW5XEwsrW2LUPVnRFOYEtnl0/1MCxjVZNk8q1FcNPUYg+MrAYmz7zn61emj3hs31qDc5Xb6PZAdQIMCB1AhCB6XAGZbhrFSoEHrHHo+owhGIHe4xGuNHBIYvT8UJY+y/KRnkEdqAAfZ9EYrJDNlk9gLncSJbBzZ7cHbgjdCuS7I38fL5xjwACY6nzY8VL3RQAxQKPlPiLlavHLKQWo3Caj1gyS1GpRn9xWCbzKFwP7g9UjLBTcxNwSQRKl5sHjqFlCjePEEB1F4pJdcBhfPcQBNetR9GVYMriFMuVtjGMY+m4/wCQEpjfn+RGks16MfR9X1fx6hFo9U6SXSRKs0SqhxKl2szSWxHj1TqMc+gYlTPeH7RXY46TISXhazFftTX1ZmoMHhZslc/4xwmr2htPiPoEEBBAhAhD0z6bID3dOohLG/8AMH1GEFleJYJoq6eoggAUxtsA+6iscsI2MoGroZ4MRvCAsoO7PigYb1Ka7HN80PjcrIVKbAgWdwsFveu8i4ut13F9lQ2s+EKebjgiajF1f7Wa5VBVblQEWisQIKcGbgvBmHQpzALauHWQ2fE10tgvMwIqqV/pLEqtWin5gNBc4j2ZWfjqOHjPUM1YyR/gQ+2Y3A1X9R/xqaMqGza7Yx3GPpuP+D6MY+hBv5ncD3delQcXGa9HUYxnMbB8u5vAxNJnjuOzfRNJt6PpWXmEPRhjO+HqWEfF7nyGXOuwmnqzZBkOkmPyTR9bn1mh7fxMn6VKgQIQIQ/yIRyvB/DLsaTZ/gD1PqQLlKdO0l4NivsgPNlVko+6FHiMa7pxnC/afeK+bLN1nCg4t34JhOLzKwAG6yfaIgH25cps/XiOYqgO03VJ/S3mLdM9xkbVvlCq8wOiwha30wMUxbNXzVy4DWh07/u/Ea5RWFjXN9S8sQxtqAzJAYyNBAgGiliyLbVgv29vzKuQk8n7f9TChZuizG4dVhb/APx+o6gQV7lRDJV2IhVi0/UJQ4W/aZyaC9uvmEr1zbP0hR2u2MYxj6X/AIPq+j6GW5GnuK2sH9wuoeEY8HoJmVEiR1P69wm5DUMu9+Gh4IvV7xxbYQgRjBiAQYWpaH0gKGcE1IRjMXGScCzw9s5TVmd9TmVD9kGPiK2x9SEIQ/zIeiF08MYa34eH1D0fQx5IG8QZrqc6D6RY7Ke5r/sTeKYhxk/IUVgBCPJRt9mXlfRsVJYPdB8whJnYoPgFEukOYG5xCYtxk6q/1E13bqYGU9Wz5YTUfaZWnivzgxqw6lfWHcwULPOGAeJQFePMUVBq84jSdxMg63GSlbtYZdMmU0QyqVLRSsw852Qe4MrmFdqmK915hDGO5YCYt0KiM+UIZWjhr05iX/4IDT5Yxj6sYf4Mf8GMZUAMyxNu3XvN+iQbhzKiTCVz/wCowm8NQz7qHHHEMEPHou5WMPUxmnpvzI0X5nDD8xs9Li3NxOC5TH3Y6GDDcE59PzpqR22PqQhCH+RD1IAlOSW7P5EYlmoejGELYLeTg6mTpap7xtaoMQC26mst/wDvtK0rR9ageMfaGWqxf5SsX5WYeYjkFs+2/u40APskdBSL0VKRA0xSV87BrqMoXDZLOXzefiDdeXKAbf2fYIJcRlPlYh/GFfiBgN5OPccxWoRTmEIp59pbKFpvjMxAzKwKNt7pf1hV6t1/GufmLHWZYfAwIoMpfhd/mMOx6YNZoO+ZSSkdx1C7RIMQcAHVJCARAc8MQiLycvUAUR9RfR9H/F9WMYxh6DRLZ6/1iAFkZSbypQLdRL2+w7j6E3mkGIa9+Ur7eh6H+DaEYs1nIlC3TAy+ILDpNMy1i/h9FjygOzeXBN2wVfc8vQ+n5kOD2m0fUhCEPQhD0IehD1BK/mdzMZPf0YAz8HcBv/wS2zXMEzIc+3v8Sr4Rd5Vqz7ZpXUw0oO3OIChvD7EE+4X5hmolQ5P5rcQZjW4vLJ1lfYCJHMo5LHxj6YyIE2KxA8rR9sMMXMlJUD2AyiK2J5Y9ZeS7wuw48XcQS+jgsroFuaorQeYKeq6jZGxqzVcMzEvYJycf3iAZq6PuZzeLjF3qBZfPoDg7iLmwFQujbOngHHmm4eogVRQWXY5dfNMTspBKhoLRnO3JECDzbzvlsNZaZUHShjV47PzKPyQmVaCdy6F1buYKEsCcNTQVHe1OD5vUAKIx1GMYy/Tn/wCFejGMNxQfTNar9oWwlJHUcxoLXEpdijggj6E2JpDiGE9OCWS5cUudei5cWboF1gCyQAXCREBSWS3e3tyRY3KCUPS1vxD97Mxmn+H8yLD2m8fU9BCEIQ9T1If4QW6Ey3ofA5mV8QM7P0iBzG2yzJvjEDNhctZ4gHCFzxwPlhoBfel4z/qAIkuqCfko87iAKql0Ae64Hi4FKHpW6585hhhMndKEO1XHsxqtbguOS9/2uYpGHcjZntp+2pljTnqNVqbdQGyWxAJXTsmcTGy7HzcZPJrG62rlYuA1GWrS+JnG4CULIWJyPZNTJqx+9wAxnJmTw8cn7h1mY3Lc+JSri4ge6H8xgNU5XUKhUXm/mCrO9CI311FuKfujmiJZ59GOvUY+l/4Pq+rGPouHoLJZFtpdRF2PUsamVtDRH0MYTaa+nBltGVbYHcBDDfohvcPSD5jBQacwrDxMiOoI2NwnDhiiCzqdx7CLtj1UfRWM3vLDhmBm6OU6TB9572pvH0CEIQhCEPQ9CHoPrcJaq7v+Ibo7xECoViMahsYh/EMOmFLIh4BxMEg6goV+bYEQsorql3+oLMk3NNl+b+82bATQvL3cs8sbAKssdxlr8fCKoCnYFxvjI4wQEy+RoBq/FU+LiEgIIGDbXWSEu47hbOMS4LjOIIaNOpuKQNeazAGUuIDD6hDQ19QErTF7BxE5GfEZFVKi0lA4hKXg/cRByQ2WK2ZU3z8Sol0svzi/ipX10hPeGS8eZ+ox1GMY/wCNx9X1Yx16GO/Qsl4lBz/yUqC5q9n1fQw3NiappBuNlcQFSXB5YGchlzZ9xWbhumYYNbia3MW4QOYaUXUwF/MVDnJPKQMyBn4kwZLOYORLc/cS8NKPiD3LnODKGJKxmaowD2m8d+pCGYQhCHqQ9T1kqzA/M5Np7M/oZgd58+gn7RzBsMMHlhEla5dnn72xIivztT6KKhPadbdUrP8AqItC8owt+5sQFAVZRtFfArHmmAFjqTusvtuCvdebNodc1av6xhglBcn/AAiioolWOj+kcmVGK3EmFPiXgo694S6v9SkseIwFgao6lTUCFU8wjg5hrWIBxCxjEIbl1KBK4AeYFEFIeoIsLJriabRO6McbJCG/5iDiPqMfR/x5j/ix9Rj6irGBz3EH/wBgfP2wofft9WMYE3/wjSW6KG8yrT6YLgjFPwgNgPdhllcJl7QAyfcXsHzNeH3Hs/MLeESkQqDWeYnlO53J4tEhX54O4irXfEekliwXDSFjVAFWlh3FaCGljmco+pUsIQFG0J06mDGEIQhCEIf5HoRdzs/79B6EMxWOsVRldqNlf3qFUXMPPmGbXaw7DLXi5Xxa+Nhmo2opejwN+1le0R0ANXlK13V3wGY0ItB4Q86lQwNuAUt2qvaVgYC+C0o76tWMa2C33mXsYqK3IG4tRIhVWAP9+IOhWHEVdStF5fMtAP8AqOKFHn/sQL2V7PUAK8QGqxC0yg6eNy6m36ii53nwRNp9AdRyVdltD4laYq1kHM0GG4NInPs7mQRjGPqx9D/4v+A+jl/d+pACmK45Hf8Av0YxhNia+poyj2WFe3mIDDM7mapY3l1KS1iAVbG4Aiuj8XGD8hFQC3EYVXPmKNsWmYY5XUfEo5P0/wAI4MWrO4QLkeJlicocytaayz9SwyfqPdPqad9LLhCEIQhCEv1PQl0W8TnfYd+oejPKWzy6dRzg5N+0FCNVdDSA/fvLyDkuARu+Jnpefq4bhdgureDlc4++ZRlIxYnYGBoy5XBgmBBcHbRDpBFNYK8zCsSaf9EveCOsUCCLp7j2PeBRZc6iLBiADFK5TxMAY2nQnfWJWXsJFW7rUOkICRHkqbupCDgvLv2NrLyiZpEfDmCm4yDF812eYgDEmqpdQb/UFXX3NTJl8w7YxKG2mX2CH2IGMULhGbf4izDMAw9ogNvDw+hjH1Y//JjH1ONzz+HcfU9Ue7pBBZ6PpuTU9CxHlMT7zluZg3LviOI5Zsi+fQmGc4LgWnfpHcJxv2BX/I7MS4Tsy0LylF3n/dFqOYmrriDaH1CB/CFWoiCwCbx9CEIQh6npcPWwFdQLvDgf4QfRR7YxLYX5aSX1XxO2y/bcuPS7YJHP62rFDu6OokKsuPjRtvnwHibY2FSAWBoLV5cdRGuNl2BV2gA9qAoAoC0wNvyNBnmC0D7dMDnSqwEapiS1xBH1EFW3tEMGjGIhPG0X97gKYnehP4ZbqOkZfzKOlvV14OiIahN4q4ypuusw2SFwkyzPbnleIATYzEvl8rwsL1rDcB/uIG5JKuZALFXAgI+8NM6x7RBKckV8/wAiXZZqMY+jHcv0Jcf8L9GMYgtdTOfsHfo+p/hkvB/cLNOHqPpv6DqPEWU+h9IxS+LD6XF4l9Rl1HD0Meszl3DqZ9nOqjBvED3E9y+wiqsz4i5MrKNS7lvsO+oBUEpDE11E1r/GCEIeh6Hoeh6KArqBQjHBD/AEv0YwEhbLwRbmSBxT/biRoWi4RBiBqXQ8F+Uo78WxjFVIgi6dUNsqwcwEikXd2VneUvJ8eIABHYZTYbulLb0dxLlJvYK/FQbtgDNX90X/AORSmqioBu2BFXlB7WygpWvAQhugreoU+xAkY3AiGU23zLXS8OJVANfmXryvEIo2Nx2wUL8RJRiWovXMMi6JnMDf4I6vIfeKzOMLolPFBsq3PuIHYAy4xSv5ncBpvk6iy5cZcuDLlxYvpcuL6LEBbqZVijgly5cuEPVjAGd8MtGvi9zmbzR6OUeU1OqZy3M80yuLE5XN50Rue0r0P7g3NczFnioJFeHSBkDfmZZEUiti2mVw3hywl0zDqHEpn5kLBLjhkY7lehCEP8D1QNZ+CDcBbcNHoejh6jGMZay2M+0cRGqWCh2dD5iC6bt1ey9gXnUF1CLKzJ204yax2w7Yw2miLtc9NRpNDdoXBvBdWvJ4thrxT/RJ+5k2YUOCcH7e32I374yyxJLTiJZny+pdgtRLAxvESEAgew37fMNWKFgr7gSo3sY8MQ1G16Y99fmBK8sA0hef3Ctymuqr0tbjeWEWre9X+IqO8DNHiVDMgYhLabixRUegL/KVFfv4jhqlr5lAQMlYrjiNmFtKw5hAWyoRfobyYe4Z1g/uLFjFy5cuEXLlxZcuCbYspX0ETLiy4MPQl+rEEp1KfP8AIjHJkmp6NJa063Ebh7jdy4uIIcxNzxCBjExwZYlXDubpnDmX2TXC1Mt3KkkLAxmK7GrlSKOJpU0QNJjtMlYftMco55lo1v336iEPW4ely4X0L7CxUhPOUpOQYEgwZeZt/hAiRjLAORIWiLIsdPRE6IyswPBq10S4T1jq3wO3Od0YEGDwSuhwZ3y8Q8tqJgV+we9vZKMg1aC/3nrUQYU6PNStUEI+/f6nCIWsQgcQVBl0nELvmDXYC8+OYghLoDbCl4veOIYQpStI+zG24qxRK0UrniBm+d6qnNuF1zcUM8yrZGzjZXzL6SEGS3QMePBKyEMUGglGSNoxcarX3nJgwcJx8H79MxCEwSj9Rh5hORAUxiJ1Pj0X0ECMV3dv9+hh/wAwDDBFbrddRhoKt2BAUVgSLHFiwYegwZfo+h6CG9+ThheTkjDLlKyGxlUjvqKZMTBrmX59ByxIkCeDfc5To9HHqICzFymiWC4ahyl8J3C3hZSNYuUGJUHoIaMY0rO/9wjvmElOSN+f6QzrXoQh6VK9KVDbVxVUA6thGuoASrQs0ndf+Rq2Cq8rBlwcx69UlRiRmmZRv6s+RWwiJYIAq9jK76iKynKCK4Drx3BItZ1BeCs3rBb3UN7dF5Ry/Wu/iAu28VO/MTDowQnJkGmf0x6RApvDADM1P4gZgu7cbiRdK5I8bFWUxmMAtbotS4gibK6SZ7SlOLv5grNavQ/EeN4oGh/uEhMv4hUAx/MGCM5B/l8P3HrJUO2HUCEzhGpbrzAqpFVnHYwu2XTxAtVUuMYoornp1/qBFkf8gGGLGrlXLtKS1CkRV4GtxKclQOf7USplXnbD0DlL16LqGUuL6Bl/4rAdJph4L+GDctGyC1nEWafUZeP1CFSlQm3hKMkcTmU3K4ISdJt6HHW5ZK5mAsmI9HB8TDcT/wASAJiUCICNzKyVqMEWL1c09Clf1gab5IQhBAlShlmIIH6jqdownbuLxwG8BisxQodf4Azi16DiHoxPQFAhsLNKwgq/uYJYKo29aRDRG5oXkD23DlV2soeA0R7KXp+JQcDTNnVyy64zCPBkdf0wwggVkpmI1AC6gLxA2MkzTnWIZI0dVUoUUX9y3Cdnc2F3Ob4hXXRLBLeo3VW2aZVlnEvBphxshFeAHRiUVLIQkUES3iYrRb8MuLF6XNpk2q/aF2krpL9Fy5cYaZdQWOG8bJfEjjt3HK5rwikHBEFe4KbYZTJDAjlCB9F9AfQ9NpoiApLJfu7dQ2Ylg4hOCeGFnBCFxNvXtALxDbxBvBD1BCoSlVKwlsrqW+1Mc04mPUF2RN5IZxKJyENRQS1Qmhy9bmWZMPcz1g/uE2gjThrS8QNkPeU5ACnvGtdyrj2l0KrBepYG3ijUuX6LzLuWenjD0Y+i44Ce9f8AksMoXk6z8y94AgAfnqWKqUvkXX4CLhQ3zJDEsMMDj/kv2tubT4n0uIKPmAVW7yjH1DBtYkCiph1MbemHrWzMP1QfuVAYrUDIqEA2IgbLh2Da6IG1trmOhMfu9KXTzKbNOpXZQfpjUoNPOpQS00xYFoDdo/1ANleG4SYYw/4KWDGYavtD0A9z2NXV8RBtCAF5AYavl6e0TCUBR1FBTBQHEbS57puhnuZN+h9QXiLPpIf4NfUlnXqECkK0sl10QM4lS0fiX2AajbkQFYzatzBxd9zkjKOPxOT+EqntFBMoBCGBXrGHURCsSiWWjglSbgZfDEZHDc0j6gFMwDk4fWZcy2DxEqFVW39QBOLw6YKWG13+ZmVWtzb0eWM+WJZNExRRYlxYpmgAX7BDygBWMKeA4l1itDp/8ltKzjYPFx/KmJzrgha1F55lVPYXyxyoNOJlbiKXS/cAKUivT7Qaj2uJcGMpeJusfvAWjRiUOxqbCFRQqRkFlL2tqwRd8wKjIsx1AuC2pWg0de8BE7e8A/R91cXMMBhSskFjcSmaLgCbC21/pgFYsJE1j0+WGTLuU9NHcGMZ6dQCWanvlrm3eGGWCNvUP1jnpluU23j3i22IOvU93oDCkPSyTRLnt6CEPVp6OoZbkxBzEjxzB5mBxMzjMeoMcsJDCAiyDTH4lA0lTiV6iK1BBiAVKKqUxGVNwkCJHcqLlRiAiGbaoIm3cWP8B6EavMBANLz1MFAgwrtjUVw2uoN0KMZbOXlnmm8PKIiWU7mSeeYiaMzBCHy9HPKDsKPD3CANNA4xplJijCuPLPM8QNNHniEoD6Dn/PmDoRy1z0QUphhpYhZFgne7nxLZaZ+ScYUZ95RNScjqGBjm4HtpwWFmYjJMQ3vq5VwBzmAC/mi2QNRyVeZlEgHOKwtWE5YIRoCcSoJhuGYMaSAH6C2KloNFSebl0G/eCZMtn+1Jm0PtiVYtVhuMeSUTNA9ym7hnuO1PJADUvPREWwmG0XYBvojSuTZ+5ZVVV5ZdEy8y4rM+jBQWpcUd+jSEIQ9GkNRijG4Stypt+YBGszf3MYavcCmIVahjqF1E1qGOpTqMkeljC9RZR1NILY4itQGXq4pr+Yt0Zbmv+LJbqF55l6peERyeP73ClQTYeO40LE828RoBZUXzAoJthA5lL3AVxMszy+g8TTMRmYDMDv0eT0PNAbWpRBOXCmECKaK4jJQNlaBnDuVJjpZlDN+8sodXy6L5xFQWrfua9oUwpR/mOCrD4Rwusp7kIYUbXOiHxQenJaQEoLmZ8Esxxh8xN3PKYk0FsK5YHJCUqYjPEqobGZ/wahgCMZaxcbjgwhZCmWCKU+78sMhuU94tea1BrjOnU5QoJTeZTzBBzFWpivMw5Zl3Ovi/KYgsEDk8f3uWFDlL/coCrNvEadZUPbCvcBNy6HSSu41mPtA8SjmeJKYXBfSSoEIehCE09TxGqMMDUabcy2KOlkKx0sbgOZaHxD5gXr6mIg6wRM16CuvQI6gHEKblzOkXppMFx0S1hctnmPyIssGOPSYbh6Oy2dW8wDMF9ICsgwA3LAFWr2RXa/mJTmVXmUWXHsl4ZlxfpbbguGd7n0/NPLE1uDTmEG5dphUgg7jEPgxSpbda3crfHtG3C3TVvXtCpRzZ/e4ZVFl8eI2lbgIAKrR5goDAqXKa18TD3xUZHSKrI+v9xjLy3G90ZfKoxHmYaJtgLIuswL2sCUJLhePEBpXUYwb8RSy+PEURSHiA5HESqhuxjgSmMuH3gA1Gl1CDVbV7gDyfqUFEpvMVGmX7ZxLguSA0sIbFGhW4AVGkY/viIzUuFkTZV+whvSpeFxZE5nk9Q3PGJXEYLWCZuoTsiOoy1LGp5eg16kPUI+kblUiXAbDkqUv/AAf7mZdtzBt5h09oOI4SDEF4gGV6ieoDiAQDUrL5ljNYIltSqJQMD20qF2xLw7lTjjqaR9Lot1B0DnXKXi91hNJW1WrIN1MuIy2xK6elYZ1LWUb4s0rmDctzcre5bv0ajxBDcD3E1uAG5kS4tAq8eJVqTa4tBXhhgzLZ/cHtlVwzFkHDbbUakquYtXWpUAVqYDTj3jm73BQriPcYylm8QOGrPzL3srEEdHEHMRLouWDzPlB4Eou9n4ljnE9ujkG5w76hbe/iCVW2yEoUaJWCbZcR2U19EDfjkLDqfWrr8S2r7oTaIw7l4svdMzYFzAtqJIp0bS6cm3z/ALcdHmHiktbHHfmCyhpJkiWrcRY9A57pZ7y0XLXUKjEPCPjC6lLKtCH+B6h6NI23yPUIkJVPJFM7OpgJW5UGSG1bA5ncgSsOAiZTcIGYM7lOJnU0Ia9LElKmxxKRvNQFx14hBjiIEZdVyug5j4nkvMKJCiYQv4iJjFsHRC1tF5g4iyrlGsfBlWaK5GW7x6u5bFSwSjKZyoRK8MaM33Gh3bCO5WjMOMxdDwDCVT/UDI2KGnzLbguWg8Srpcs/IvXiX4qWusymHD8xvKxyQyc1cTSl3ME8wV2QbOFihHZUyZhTOLydyr8PJCGkyPctxzB0lQlwrDuFdmUoCLgXMI8agaajhTMBfNNQql25Zi9Nlwe6jetcW6+IlIjnPCkoqHzlQ0/K4YpU3p8xIfNNpkmQLK6DmB2TIUscXLwFBYLmaJlDsMx4azXBBxe8TQYkHP6R3VagTi9Dy+ibksmGeH1fmqVRQ9BhD0aeimjpyxgo1AsTeXGOZZdRBI5/cpQzfUfFLFQ39Ra5+otc/UQ6Z1GNWvR2Zm2XW2PCFh1K1UoIqGXC+JUBy4jWDmWCpQniIam46oCvQS4u2oPzGGRSc7hxcL9+IbtVe2DLizdHlcYBnp1FZWZYfeYhxKmCXTUTtFQluYYZY9RL3H7hSpp/cBJVArmGhmLRVss3TEtFPljCAbSp9pgEaw5XmWjJdv8AEpgbIIReS2Yz7iAUoMzIrQ4lw8TJJswzATFhl1bwR0e0MJccIYZ+cPcbCtzeW18RkbwRQBzAi3mNamomVTfc5VxEshjmZlCjW9O2UjxBcaF+ZcEhxFIjMCC26gUgix1ZNfZ4mQjzSSWmVTMvI9llzA4U2e9QSHRSt2QOwHSXWIiUdjALNrBnhZ2Q9QsvrCTDCAidLLGIXmZswzB6GL1g2+ghBhr1eIyr3GOijUF3DyStgihxFgpSNjtLwF4e4VMH1OAIasEArBAcERWoVNRio4j5Nw3ULi6VfUSljBRDbMCUDDydXEQauparsjBIHHUAFxY0MA7jqwyGKzk7HZRNcF7ayTAhLg+YsWGPDMxzMHyhAvcpDEv0TFCLhZlraYzgczoZ5odDN/UAtBSBgKo4jXzrbl3C1Vji7YxTnaB/MvaFcPMRLC34lGFKw+GIX92arUI27Sz7l1sba9swOgTfmKkvGJYC4tpntKIS49KPlyQkV7znkUqJs4uiIKDqPVJEXTVzNAumY8yjIvNNO2UwFZ3O2Mf6LCAqEfcLlgCqVmy+ZetM9oxkP1Bw8uKrftH2kIyl4aeHzKOCru8e/U1mLaOViRhbeTxRNwA1MwgqdH+Zq31KWi0zNAq4g4uJowVM0y8paYJaGCi8ywNTUYVksCOyKRRFSjMIIMIQhFFcTHJ7iooj9CJ1QDxAvBAdEB0QCUmPaD4L+RCqzUCDHppuVpgKzGqLgApANBBrBGWo5mLEtG5UxyywNpdwqlCL3r/sBKrVfjuEIarl5zLQAWqeZqCyrplUV9jthZdkHYcw8QYMuXiLcTaOGREVvcOg2hUMGoWcwMwLczga9Ozao1NsMrR7ygYm6fqFDmoOozB2Vf7hBBDFM/MuINebysoTnT/cO0B3c+YWjNVAgoivtKpF1aV5iWFGoMgeIJLr9xDEd3LI6qPAZYo4h/GYGXEUEItg9yG1PxNCOGA5uo7QGOaNwmwgaLXFBuO0tq6Oo6CivveXUuYxZ9TQS2Pij+JcVyiIpzmM1RAE348Md/L42eJRKNEpfhr6x7xvuXu1D9Q6ffCrdTLaI8NESxmbeWDkGh2dx8JRVJiLeqFvh4gAIMImn0y8XEqWnuy+dw0HLFpudwAI0Kl+U0ZgUeg+U3Zm6DmFfqAIJCDF/fcVTd6GEjXrB4Qggiyv5ncRpvkgMbiSlECBFcOahgCCNpllURVcFy8RELKxG4IWgQK2s2AZi4UQ2225Mx3OTlpLBSioMQQgME/x6MtTEjU0xQx0jCM5/SJUaZm6lj3jGBluzAGKlSpCKlwe8sSIt8+IKpROSr4nIQSysqF2s5a8QWYCX73HZ08BHJd1c6An1EUaX7RKKxw8JLAJRwQsvLiFb2j6hMTCAlIsru4TBB+EtbZk0zAivLqEIvhGI1bV3KGDwxRYN1GtkxEqidbDh57ly35jhBBxvGfLuFZC6EzoJaaEGN2P+oFlOvkjUoa1UEexuwrfhL8ng5YEMVBwOefauZjEAQBVVgA6mGNFbzVUyk+vw20243wyxBpBA3uX4FTcBJ+DKTg6Gzuu4l8xr0zuJeOktcDJCoJpH0WdQdnoVVMBmY4+c8835hZh3uHnAejpgdz+juKOZoeUf8RioVCYhUbNmO0yUKf3EmKAw84hLiDk9VY9yhQM/iMrtzGCFXtEdWsvn+3FWEDBe2Wd7czesFTnbEkDhJ5ITzBK9A0xEcREwiW0S4hMAuVSYr+kRaosusShbV+ZeAeJQbP3DGrIYakx+zxcSscX+8xTjezqWA2ETqUAcgdAwLgHnshqQSzt8QdbTp7QQ3Qz1UxJfCI41W+oCmmo+EgFGen5aitlVGOpRpQPkiNF7jBbiK4HJEXdRFx0ynSswxKlcMABi4uYFSi3O4umhlBouGkMv4hgZVQQGzlI8Co7Xd5lNlUwpptK11CPR8Q1f2wskx/MouIWohlo47fjeqSJQqKNjWvxABYEMVgJeDAhvthq6K88w1IIcmdftmUA51M156lsrxUQ1rJmc7GwxAAL0lFGT8DxPBDxhJFV4lTrn0jJkvB/cV4cPUo9BYruYnPobczNKDsmiF3Dq1mPeOncGBE8s8kB3Pd6QoGMw8oHcD3AdyvcDxB7iCmp3r7de8BMJK05JXOYICwAhIg5ly7xPJFJTUBPMh5tVtYRezfiFFMbIW+W5RHhlG4FswhckCLHcshy+MTMJHEBuHbqHbH4nWjUmRVyq2czYNDAzTPNHrbNkMqhQceYB4IXnt7g9kKPbuVR44HR5ZexD/0RAKTS9HMUZqoIdC3D5S51pr2OIlrQA7DmCg3eZcjkhwJ/uX+VjZm+fyRzLyifDFiBrXXTuMRKRXGpwrErQ46hYpZCKdRsChdxrkmAS2nERWCUDJMfEt7On+oBMRrBjv4mK0wSoJb0ltijL5iBCzj5KDP3BB19YQEKtQAODy4+4LCaogx35/rEBJ8JT6S5xHa+J7T395kIbrXu78xCHBLOtGPmDA26mYbcGp4tVMkDk3Bbb1cNK1cAUL/wzwQ8IaYjp6TSIcQUyvMK2mpp3A1FEsRqY03ZlhzKM36R1n8oVVccEPGYfCQ+57pY1cu5mGpcTiFWWJ5aiBgHcp3Kds6FnGuO0MR3Eahm5HUJLIL/AOy/d5JWhCeY0Yv8xgoRQoRhmHXe+YptW3Erc3tNQgAgKhwnqU3KBgBzCvXKO/8AUtpgsQdMw3mJrcKURlxluk8EOBNt3ALl5BOSncwuZnrJlMUz4uKVbKW+Oohauh7wnNrcdld/zFpd4KTuByrXBLuMGI4i2pQQpQPJLXcvYuJdLuabEF8UxjSxEOr0ygbVvwLFnUp8bYIWk+VSsQJ6yQgDEoIneEaaDfUpUQsYuOSZPaIiK3AveY/FyvT4hiOOniAVcRGhaLRz7RnLCgaam4A7egriHl0guqvk9UKvEvGqjy7w/wB8QWwJd8u7/EMoyN1EXcUt+4R4V+R1LHgW5dotm+eCrv8AEuoVUvSjDM3K6uUtSdVmN0Bz+4KhgVLHNoDqA6j4egOcTdiGMm47qClOY/G/yIBLMkxTdMMamWEdbnc+WGdrRwSqv5TguFgX8wu/zAQJy5llUzEzHuHFmpQo5ekaS4xmIALgRsiFpA4EuKAYsjH3TQL7ltZN5VQQs37yiy37xky/cCQVLlCXVLfmCWVRX4mkGU2jFAwFtmIssy0i7gAt/MYFaTTf5QaVBDcsMMt7jN4YxgY52+p3n1AOVxwbX1KFsiKYYsoutdTchJxBB7YuLwQOGYWuTgjw3YKyANfEtIQU6VWh6zHmtnwHSZh6Lqz7hAKaxKtDFlIjn9SrE45I65uAdjj+YGrBqryy0zkTOiAILoFHEES3mJwC6ND81ULgAbuWBcqzMrACPmayyrnc23AvEIrK4hjkrbzAz/CTRRnA9xt6TjXEW0C6/BDEVzas/i0ggbBx7pN3z9Eae9klW2/fDKg2yGgxmIqrVGbyF/uG+AZoyBhhBGF/UHji3d9l1FABPvVfqIUOSEqXO47UGWQZc/McAMtPzGkC5J2xiYWYygQImIIZgZykQZhUOpolhvfrhjQ6epvxmYphYmcSgVjXbftHNseSxTllUZ/9oiRQF7ZXuWogY9BUiZNxp5YQ4TsROrblA05jDS4jkFRg5z7xG8zGK13Ohl8QbIkygbmiGcExDKAcsFWFVxKWPE3DKDiGsOoDzCTDUsFb949qgLtlrgm5FRaysvKKDeYQFIVknaPqeB9QWhBtEAUBDpomRCsLqDbMCbaiN9o80Rq5t794bxgWteYPQWXtXK/TCRAEO9P1LkWp4VKXEy5Vft9QVjkzppe5iNdE8kuvwJYV3o8TADmVpF1EXXPMVb23H0hkZZ8f/sKmwOtxyIU5JYpeIyuSPcuXNaQzdeIIKrJiYAZf16KTF7QKAg6uZipcB0eCZMhWpSDgg4EhNW8fERYD95VOWKbuHt1j3xUTGqpzdZ81MyXkjBttx+YNgKbsBjbURWFsLdnu045hhkxOr/8AYgUNqCMY53CBFN3sE/mcbVS0G4ABvJiBctj5gKNkQq1kxqI+xKnlBCVE9B5bcUcSl1Bq5kEqBlpNJAtgz33N+JsgA3FVR7HXpNbGLiRlhljxSy/TcKS4wYRKJatTIufczL6PhCu5V5mAhKlGo1KjBdq4MU5xpisD7mNRZBA/hMWx9TXBUwwHZ7lZoIeoQqKY3mNpB4hqUNCE2WWgMveJEyQfKa1gBDWiNJW+8yMusQhJmJRPQeESYtTE4mkIKaYlzuLPuoeuWvuIISyrgeIZaPIe5BkxdxFFH4uXctouwNflIoKtY6Hj2gbAIdHcRABZKp7uNvW1e5ZaMdsUyzR+YAm1lDRAQ96f+TAuaxugVxGBtHF1S1+IgJOc3wS4dWC4CJ9kBBUY4Ln4v4ZoBM+8rO/eXjMw17zDbHqcGotSreo8bkA/w6hFVzNygs8H+52mIYRDmviEKkM+WbnktDP4RyICmzIH5cSmZUUfh/d68x0KBZQWVt8QWgapzbVPcAFFUR9qTI8FMJkUdXoVTPzMGvb9f3+4jPZkU9qZWDWj5EwStgEaybyP+SsEVsMdxLc1cyNOmo4cnPvKYL3qedhiIh7r0zUqJn0Ag9QynGpxh3HUCoirM6xXQ5gEeINqz14gZamyULU2XNnzFDnMR4ikRy9RBsx1KhiVExssXxHn7zNVzyQjyZ7RtUywuXxLXL+5Gu/0hhwgmkCPUGlG8Qj+hOAE9sx4cOZp0qZVj7mbQ+5eqflHrX7ldb9xwE77gPH7htuDlubxBqVzH1TaEvoqOsEAgdxLtuOAlYSiU6lV6NGXEFxRLoRwj4jDpBdog5TOR4M/qVwlBfnp74iG2hfsR6LKz2YBIEPUEfCZAqCnj4qI7DjO2FIArxzGqlK1llAxx4lArgF/EorMvihliLuh95ZQ2jhrLvPxUoNQtXzGTcSZ94iKrH8TIRDrf8HTCqnsVfTmBhqZ2gAXt5l90faCxn8xFPyo/omrT25fzMRat48RBGqx92DNRTxEWhZhQ5vMLOrI8GYJFvkGJYlIJdGYwNyAEuvDGsDo1zn+Eza6abZ5H+/MagK3F5MZK/BFYckl6FmPGIRBcl6/vH95TTzR+TMIRSk8WuLPdVBOMrRFbOsxowt1XtERNOYtAMOPaW4pisM3ziU/zcPQjH1KzLqWYzE1jZcSp6sP9wMdhPyifhLrloShiU2MWaGWER8xsYzGxBreQwRKgAIcxsPwPSL1L6ArL1KkIIBgaYdLH1OkfUJNIpUJxcsg5YRjuO/Epf7wLJ+UcH+cvJb7n/cSpQIjYykRYe5TB/cqNHHUfoMQifqOAP1BLQgF4igHuWMYuAxVCUSs4lxECYosMQiRmUhl8vaEW4vQVTFJIjwqEwtZLh2YlhhRe1K/VRykajVHtEIq8t37Qe9Ia0wRNrEwQjXh3xCz7yHG1sR2AyK6qMMfKjl+4fijK92D8oE9gRClGDnzCctcmLKrOK/mUFLIxbz7xPLxKcsus8yjNqlwmlNbzAzj0rxNRAsLtYoU7aN9eO400LgOv9ytgyE3amohY1iWFyqFf9SUJFqpyu/3DVFg+9v9wKYHGGXnP3GzBXZ4/v8AruIPQNdJZZ8MMwC3dmfCce2pcDkWuN5Gvwy2HArxSJn79oaUa7/v9+4ZeVk8J/yG36z34oNrzHpXnFdQi8hT/wAlViKwKe9wsA1FRDOa8k8Lzl8SsOEIei+gwwY4vSqi2bjZwO4lyPoWcSxhhIxErrzOCoSNwLcUCDXiDepSGPxAGTATgZXUDE1jzik4Q+UZa81NDcx3cwOYztzmYyyFjEr1CRAtaIVjbzC6CuojtSmNoizmmYbkalhynIv7g85Y03KjUVEYNbILAbxN+JjcQrQKNcywUXCQHEBCBW4BLC0gOSK8n3HUSMEJZtgZ1BBWpkKY4KgoUcAYA1Rk8wHb655SZ5ps9xiSd9cKzzLCIFNUeeiMgIP6B/uHxOccXRn8ytD+E+IBAVLWsxUBbUrqAU53L1KKW+0YK0Hl3NRUA7zMQVMGhbSeZoqusS03LMvg8QoyJiE4vmArSoey6z1GKXZ5uM0Jtjm4GQCizq//ABmZTJFwDNB35lYLiBXATOh3C2jsjhQVueGAyAoFf8iImmxRo1XmeFAJcxlMvUY5KdrKxj5gNtpuIvWzZlMwJhVOaFL53MIDH33f9/OIyyOYW9Dv8HzNN0bvZ1fvxuW5BeDDVqo57j+W7E26nJkvGqYoqKw54iV3dfu9QuoUllyX5tghTYS9my2DAoCZcfMvYFXZM0phjGpaxF2eY4A5Lmwc7957oQZZ6PJCnkle4SnJmEqFBbqBaxXAiWRAJWcMTkCYhFQMW7PIQTDAhdQOiFaUS4sIFuINIKMQgIoiboCyZsUuKmNlRhjrLiZCCEdzgpjXAgrAWuIOVytsJHEOjkwBrOalxRu+o9yr5nxOAKfjEnOJNr6hcpgghkjiaEBiUqAFCCB2cwRzzDTKAkOiWrcatyobUVNKBKVRkLWW1GmABWOr+BLbl7hvY0Xa/UAzQUTKWjStVv8AJ7LEaUQat3DFTxrLOPayZxsOMQtcEC+KjQVVxpUoOW/EVG0RUUdzNWnmAl2i0Hau5bONLs0wgtMwKmFbl6pWuXuGNgID/EsHiVIw/IvmFSIHVEZha4hL01L4NR1AC76gRbad2Hvv7l8BV2K8QFkrB1FcZpp5gXRja7iX8r1EV0Hd8xoaR6bP4l6qW4sGqZnE3GGb7CpkueQC1JdnPERUjaL7FFf32hwnoCEtHRXDzuYPKCVGQ04JcRo0iVXctcZHoU886jjNCrqq91o9oqVz2+IlUUJK4lfMNaLTgcwwsLp9oEFfeFQF8d1BXilNRUqw+pk6w/MG1s1g8xzBml+ZW29yvxEDuY4GckLslb3DAuMIQW4IFXgcEJdRi+IBx6BDFZ3Kc/M7hA1vkhrczNxVfsSlGpqdQWagODA9xPcOnMtHMs9B3qMeGn0mHDmIbS4r2E1PiYCKqyfpKXa7Yhg1qHhQakGpj7QQTiBKCu6mYGWSH6ii1+MYNvvUdNEdpUZJ0UeYS6wh2D7lph9wVHtCVoVYfuUjX7hWR9wZo/cZZFxBjTW4MWNwNrUMcsqFrLPwHULuaykOssuv39GMpG03YkDD+xV4U7gqmNagNfMwjbJTg694CGs6D+YyvTEa7X/qZFpjXvLBqNxVBywK2kxeBLfaoN8oLrdFTEIuomoU19ShQLTQS8vaUtgAolUmzmrlxVa44o6gCtizfWIRormPKwiJYuqvEEtQx89QUo1+iWpQvxxLgS7UjEApHlA/qF6HQO/KQ5RMVhb7tviIVl3eU9gqNUigqXwtrJWxV6I/DEsDzNpl3bcLQL6/33Nm6K3q/wAzMrvmvEwhBHwH+ZcF3ZutlfuW3mh+FtESAaW3sc9DACNNOMgt+VgWKxbJUGriGrBg5c/UJYtho7uEieTM6za6mfNzBdHqEjZg/MrW5Xz+ZjYod/mDWWWbfmWQKJkbgMNmumBW4CtzFLhuPIucZpLgZae460p/cYEAO5eKQOPPmUZSnEsZGYQufeBwzZmY2mW3mWXmnqPEWJm3E0iKOX0Vf+ioY7eXv0YimKDUVNDbCqvZDBiArUzqX06hlgJ7S2sfUvKEJ4TJISP1jQxJ8S8AgXozTBL/AGhjR7Qkge2ikV9xl2p2H3A7ShhqQ1BQBAVFc+ZzmeDqGGH8wc5gW3BujKXsH/fSxbGHWADBeQnb8srYcpQ0L7y+S2HxzGhnneYTldPMMMYdk2c386I7tur+53UxfiEkcU8ENJyCXOVvxG2nusJvhzaRbEt0Fn8y5C5UIBdkK4X1Fth5r9iXeLpgFccsKxIVVBf1cMn7dJFmnjmEVUa/7spJAhp+ghIsTJlVGba6uzP5ZhOQqmu/H3EsAU0Z4qLs00Vv4gK+DOPDrzGyhjn6iBQxwpuocNDm+LiMglW7Frn/AJKuQ3dwjAyvlKjyT++IzIBZAxV9TZnAeAxDr1D3UB+iAABWSparhWN6uOaDStSwkXwe/UqAG8+0ssYH5nBRDs9alSWBHzZ/yFjMeaKOGMvMcqLXvEHKwbkvtLUbbPmXBDznmlSYS/MRQ9wYuJTeYS1xFyRv+UIrMVoMvJmsy7i8R73MD6JM3DiDOvRyuaR5ZQRtlhrq8RANnL1DoPv0Ee5SMqhyxQxzKtXBMJKK9C9vB/DCREocQ32I5jAEdwcowhQfqY6T9TYH6im/qiW/qJUifEwAy4BMiGiYNwU5VZqah1NdiX2JU/QlLY/UvJeowNxY1f5mGOYwi5L3a/QqwQPcg/mMPQmyrIZxpN6G3zaWL6eOoBlZTkiJwlVKX7hvxgYACNHVOplA2mv8AS+muV/plD9+stWq9YigUN2JYnGqrgQN/Eh+pmG8ueGK4lcMsWKBBarfv74ZQCipf3xmOlyXq5sM0Hvn+kAvJY68cwCvrj5IA0FWqD2X9XFaA1aP4qC0wpFXr6hRVrvxn/c42XWSs81zHJhlt9q/H+o8abFP7oItFF0c6PPfUSxtUa4JYW60f33lUtvdmYlIYvjzEHsQUU0VVnbHF7gMZYL2J/Rlob5X6pKkfMruKcOPIP8AuArrZbLP8Qt2F5hTpWYS91iUFeUSXSFNL8cx0XeRGqRKfuNa27b/AOSg23tmMu8xz8DPPJEiq3mJCu2LzFu7ltBtYWtYhMQbQ+52oKKzEzAoMHW/QoKpFxble0yhW3MB2Oo8S/Eyhj3iVzyx0zMjMr1GR4YsQAzCAhyBclNxQj5hgEOCE4mKBlcS4Bx1cQkeZU44gwRiRgU6eGVjzp7mdTTOvMw1gT+swn2SvREdQ6mzE4SUmPEeBxGaNrUc2dtw2iqOICoYurXR3BV/4JkA08wLrxEG8R73BOHLB4lJ1kPenotdWbrDf+IKpuCNjK/iMhdUzhD4sGCxD/cJZ+5kdV9bl9j5gIKg77ncSjyon5EYgp/I3EpEpOJkN9MQKrGYFFHliBZT+NylznJBo6WoiW/vcIAl5f7cBeDlda/9mgW28+ziAsDnFx6hVaCv7qA9ilUz/wCJbB7NuSNaEpLutYi0V2XH4jgUtuuPP8TIEqwGytz1reoXe2wXWdf8lSNMZHWdVL1l5+eIOHz9Q0mmyeXadVCsTtMojZeFsssackuaji9pfa7Xuo4+lnt/sR4xCZQB9k+eIHjTuU/2gOAWHcNSoG7xcvA0SwKTa3TzMSXmAvLT+Kg53SMPUe4cwNUPm+4tpY7YxCtp60/gnBieIYMWyjiZs7gTpnncLiIRXEqCIhhYUowHTlrU4H2RqHWYRmr7zHFGPIZqWalBScysmVTDBcJTMOogtRZq4EbYaiehx7jzEUxQ3Z7QPWRE790IlwIlxEubGr9pQEGIRcSsm08Rq75lmTeZSMTT1wlChX3hm4nG5cL0yvUv3dP9QpLIPVrUQJLrTmGQTcQPNAnzCEBR14lCotKq10SoUtS4mMAuo1r5j1zGvTAIqbdli/pgHoCvQrT4GBbLCVncnH1F2QV4R9kvX4c2FZ8zRW/cCIbjxAoEUznLzATtZ8I/FLLgGh9+IB52MUVXbh7iICBBVlzUBSpvOuYDkY5gLDFJK5Jox8/qAiebfeomryXeNw1ur981EK2bA1MVVlFzzj9RpKju3Jk/3Bgbrw91fEEaVdmdtxYBVWl3/e4AWDmpeXJW3OV6iuJJkF/vmcNYXODfMsDS2Kf0+pxLtpx2X9TEoOHwwTAsax+Cv3Bxg5qvH/J0C/M+Fych/tLWuIRcy580/wASzioPZZgECYFcynPcOGVuX7AuUYuFX4uUYCx9xcMMMxBAK5mDZxeO5oRaBKllWc0eSFS4A/EDFAwOpU4L6lGUzPbE7qVDWCANQsV6WJlefMR1DPYJhzKzBUIXiDTj0/FKuyVlD5lSxPHCHxGG/TbzLwtcxdt3LQwMfKq2DEDwrVFsjqk0jVtQxehpCOUDmY0PvFKU46JgnEfRUQlVhahpjALFzj9Pqc6P2lXDjpD7lxaRtR9wuQtdxxhE7uMlW241gsVsDxQlUALWiUZW1tlh7RqVqc2BwlDUpWoBKw/YQT1yYiyOEY/NRCi1l4wnlsgokINFS99S5HkCuj+kCNb/AJltTiNqNk31mcC1qcU7/ERQcBSIOfOWJsUu3iYKdVC4heXxWJ2NPWp29qhRS2pmRMu8wAVhSyUsDIc+SpTLjNhjxuV9dz7xUBggHdyg0M258xB8bQlUAdOtGI0LGKHHvKqFa6rqUI7P78xFhDG91zHdEvTyyyYAG6bu3r8yyh9k44qXtR0kSjDOKjVAK0VAAsNanMb2+IKlOzu0fuaBtqBRr/qH8zme3tSIwlA2X2/tywbZrejuVw0X/aWy6TwwF7sS1LUuo0llU1FXbZx4IKu27ZmxZ0wK8n3gwUQylxpePiVKAt6lWXLK9RMRqELTmYjEA9KBTOcXU3oJ9CQ49HhmXtzx+hnhFhkjpRfTqWFk34jKuph9HwRtQeSI6E8D3igFd5YHXvGVG3yYGBUqCYIal4myC2YxiVtIAEOD0fSoYVx0StODGZ5bhLfaMB3BzmUsueHqAIHhhABcuDDzcYFTLW3c1VlyGkJhGUalRXK7fRVC48MLMHGIVagdQKH+K31z+UULlvBAD3U4Nse/HvLrrMt6dQvIxdw3/RlbdiYYCg95g17OOIiOoFpaTirFe1My8C3SWJAiKcZleOSjuVonWcxKt8pQOeTqLXD3gu2cxFMtkoNBga58QWCNFl4+IAs02af7iWLsl7c5/wDYhpuJS7/tS9Ctvzp/5HZ4Ufj/AJKiLoPm5W7Bh77/AFLLDBr5lFKLV/uq/mHA7r2hZK5sfiGzM2ddczSir1nmuZTBMn9/mAsZ/v7luDkNHkgii4U4dSo2jx7xqr4nAv8AkQXt9MxmzYp85IpahcGrz+qI4iHTxmoqCNMLhaNxCteTkjhcN3HdViKtNPMZoKIjEeSxxOEsJyiDWFv+Yxly9+jT0E1PmEhUOIgdsBbW4nRPw/WZYMq+Z4/Qw6jhLHNVBG9v3E8Kepyk9jBgMqi2Mco659oPZnCzGjHLw+YmwdHv/wBqF+0sSkP6egKAxDg9FiUjN14iWds96ZlATSMuKiVDmWjgMQ7JWHCKn4hwgVdQNsfcRUb4zMCELNoe8yqzAe/U4gyX7Sm5XbDUeGWu+JantgFMQqnUmZglGHf+z1o03llRAfGGGUlYLN+Pun/2c3QY48vv+5neIXh/7GvMKHtFRxtjLDmxnxCMp3Oa15pcO8wAUUdntjaH7zBrWcVLc39yl4usRwKBDeefaNkrdS3NhjFwFP3iIOaDYkBIMo07YODOxKyVGlkNc57RZqDowdS4tGDO/DljQTnjUQFhyfn/ANlBoxr519f6iMkLLMRCFZB3VVxMGnKU+YlMUODO0liucuXqv79x3hV5o/vMTVlmZWrRgbviIcVd67hVLMGv+RiGPHzG0w7tlRQKh8D+4Ts5fN/7jLDeM4DL9MTBKCj2l1s8vmExABqDWHDquYILrarxL4FralqgcPp6gtmlV57jjs9VEMaqvzMgyRqIyAWhzZWvcZp9Gk9sualBRoh7RYsZjphzDPUtDX+FAzQruAxiF4jT2z2z2QPB4YnA/wBwPRGqk3BTmRcXAEEzpOIsg7dniZ5XWgwQ84gWVKA9LT0VEoU2Blb7yreIcE49LhBCVfEEEIg4FJtG6HEBykOGSUAYRhaX3lmt5gF2QQjAUHdRYCBtSHj7pix9oMoUqz8Qbt8wLIIg1xO9DMFWPvXqWEUt8D/rE7Aqg+U7HzEWK7RTgPNQglo4OY9BtQXUFqxuOVJlZ9+5cLWdkonasFZquYBAjAVDEC0VdrwvhlhpTFxWsrVx/vEasMtY3vH3FjDejXMpO6vcSqiGy8TE1V2DnxLU08djUDSFPHcyIXu32uVugOoMtaA83mJQpwYzHrmufczmUNzjjiBdyyubrcpWwb3bnqOEGgMXWvaUFTjh1/cxVnT7a5LhWqJ+76iA5ct49ps8D8zo8HH8ytYM3EWDZ/f1MylcLskQl0wGk9hWj9XMxtcMuKqAQUKZzqXZRzC4bwfmKIKxDJXnG+oYlflMWVadhKMWLncQNibS+IQ6cj3MCgUrXKf7lQ3CD6H0CpjmUrzAjqKrqYg8wyiKgoIPmU79DInqDAgQkAgQIG4ELYWVp6laDueCImvCwNTANYidkR1NmJc1UrTHoHEPTFNq4lQGIaNZlShxH0ZWMFt8dzATL3jKnbcNxavaXHH3l1SxwsMcmIFqPQJdYcQul4dZju1VU9viUN7LgBOpiTSV/GaHqMUPPcqlO5ic/mBe4PICvnPoqJREUPkMP4SAzzvAjUqKlhPmDZFwjwxEWjfsllJyw+IEhWKfuWiFkGsV88ZRvir4g4sD+aYwUBzgjwS5TA0+WUxhxMtcTJorzG4DJLrg7qWDYQbcokBCFBkgsAK0ckbqrhONxMrVIcHn+/cK8ZWvsdTuG9eZfKqun5q5VKQXB+f/AGPDT4reDx9zZuroliJqz/2cyjS3PxKF6pHFVkmWxoy9YiVsDv8ARMmqUsd6q2VbA5ox4/rK8tZGt7jgefeF0oFOIaLKL4f48yoaXG/L3++IVQulXqwf4ZnXcW9H3S8xurvF4q/9QKg1iBklnGmc6q3mXAIuqfLENEP6S9U/BuAIK7Oep12y/JOi88RgDbzeAQy+o5XkJWI7lZQ7gUZgKgVublzcuo+UrzUKheoCI7g9wbHiaYGIc1TTCFlrVviWW1xDnhiWIrWmalEnlkorJ4VxCoBr0MXqCleniLiYp8Pip7yhBupQJrLlx0QFbnsw8xELyrmERSZc9Rc4HQnYJbph5uobW4jWrisx1qPhYgIB4lkvTAA9p3oY7lC9pdkjCR5luUJ3ZYSNoBh3bUE+hB7HppmDICbOyymqj+mqdg7gjEUzlH5jITvuLFx4e46lJTd4YzEKWkUG7Grrgi0AEHScn4lAuJcSlq7gs3YVi6E0b/H8Tb/bjil5JSxDxuOhFKtq6L4+8QCLYXhliKWVnnw+ZWlxZy1FZcBXl5mKTklFmwY15lkFrH4lmi+bhee7E/vMZqHv1iNKBoKzevDX0mTORvr+3BkN1Z3V8e2IKuxoL9yWqzmq3q4Sk3Y0meI61Rxf8QG92V/WLmqauiZNoXeP9wvGWbqBdb3MYLVehs/mXvMr92Vxur/iLsAAJpe4RJerjaaVTRncsRbn8SsQMoUpbeCNFRMGLhyqGq2y3hNZOZSoVuoZy01ApxxdN01T4zcsDNa3LdxXct3NdxzlhhF1uIjVxt8xe5fljmMxXuCjGUDZuYhULCwsvDqMJhXfUVD0LkbhL669vaPYFt/0irYp27RIYZmTcjiwS44pUoCJ880TghqDUuXKBg5HEABw7lpvMFmYGJ4uJSGYd0s5l3M82ZszmbcynaNjctTsT4khIhh6Q6i8XEe4ilMuFA3MqhjAKjiitBeeFcJjdRCtA4DwnqTEQ1mlF5LgmKwhwkYfZBq7zcQ2rEvw4+nvuNigqitpC5CFwd+8RR0QQG1rRG5YsslKxqCU5UrhCn5SKW3qWUZYvYoWRqujZHihq3CxCO53XErlb1RjUqwzVTJiublwDXf4/cVd8Zz+JagO64jfCsHPOJVzGmTO3MvoF3zXj+YgwoOf+yos4ontiZHh+fEBpXZLKDvjH98RAsBu8TMCAbgKaO+eIBdI5+JrSNzjd4jZZvzHALaHiw/wx6cbhglCpfvAQFAfLxFC2ABKjOruLp0xKbMrohZjkiJC/wDUVtEiZ5gDwqg8QuXWK6PeaFuoarZKKKilJziJK2S/E7lsZTzKgzCFeYleovKe2HTfoazTUHPDPDMMfGImPRuNtK1CldydpbmqVFgzI49DdaPiAGPk9BmaZPQoMxQBtyhE+ZT4UQUEuLLxKSCm+4gTkxbS85lQeZcYQE1xMXMKNsUHQ3FDEeuYiZI96mDUcWpYrHcws8TBuXrMV8TFaRLpe4qskesx1Bq76uYg3g78Rs+GwdcD/DEN4OM/k/nUS/iVcDC0/mOK54goqHFWpUUG5HQ6SODYUy2+3vHIQtHgOJmXnMdbia0FSg4SLmr8SmJlmARZ5y6aiyfeJcEjjlC42xZd3GUKCq5mKkMzDjOqi7xcebeP9yzQOR7guv7VLCTddyppf7lgvsO4Cl4ped1GxeVi8nvLBaxa353G75XiarHAVi7/ANxN5vP4li1SunBL8IjRlkv3z/7LAd63+5sX5bi1jb83BaCnHmpTZV/qKVLpwtyiZKdmK9pZmqUvOj+sMqg855hCmGxiBBbUfxBQUWuIg7t5hZChVjrmJRNQV+ZRu6GvmZFiYX48RJY5Vf8AIEoL69e0dvKDilTYZ86UOZuCMPEBpWU9s9sw4PTlxPb6D4T2w7k8EF1BwcXCMwCp4544YR0JGl5m/VhE/viCKsjcFKFqufQICW5Mdpeaw/b0Mmpk9DgysZaL1Nm5liGpSVcQURiyqL2D4R5juHnuEpcTDhAyQ1HTXEV1F0H3FDUV4Yp4YJ4ZbCu/wiljmIBUvdp1LMGI35nD8zDQTMuPD+IgOPxEGCnfsL/Z6NBgaXlvJ35JmrVfVnh5PH2Sk+iFTfDj317QEJiwNiTBw5cStR389xaJlNmnuGx8W1sv8pSIb0sjqCjmrAr5lhBgbBbocyjF2m4KQFA58xsRR01eIxuFgeCJaVU7bgnJkbjR+Usc5v4qaomahIusXBq2fPUSFBB3CWjq/wARA00f8joSFjW9xcg73vfuxZ1q6vcRRsTrF/6xEqWuM6mBtdf+wLoUK6/UwFmS+MeZ0CUir7k5WCPEXQ6fuKpQXxDlC3BqVvFVrzAUy3KkP4lRgW8vqIHrT83f1NoqC8HcHYG/E2bJLXmJRRpdcnmK1hu2zjx5gg6z1Nnxot3AIpX+2UKAFR+YW1q5+pYt8uc8x7EEQt/0uCogfZARkV/UctQfUyQm8vGFXqEJ1E6h6EMD0N6Cht6gBcOwA6vMsFF0IXUKsK1D8QuurrvM0QQIehCklsMu3+/QDPoU0lAzZuIvusoCmWYENRxGUHp5hdIjTy1CWHEwfCU6cRgr8IpwZe2oMhSEj+wmCALowSrgXcXTFSqiNyzD3MxFRy85hJqIVxArUxa/ErMYa+OP59WiLga9oFWeUNXk5/cu6s5W/cdP4gxDlFD45lNhRVSkAU6jJ2d0nj+Ihqrz1cfRYU/UYGTsWXDfVymvG6vVV+4HmzmriIqdj4IjWmsfwiISUYWK20Z49BZbfYi2oLe5VYx1WMzAUrdblqa8jK+znzAGshrxMVl18M4lw69/eNVm+mQx1EFLWY7aE2txuHSrTNRyO6r6pmwLaWZ92ByDdHx7QQFlHUDLQ6jkvJTv5gS78f0hY5f9iGVdQZafzcrS6M+wH93Gw00r7KhWVW89P+ohpanGSFiqu5ZqouoMKuGFgt1AKL89RbA3Wscy0Bo1cVVmTOsS1ljG50NOIyAEq5AX7PxG+q0MvZYCJ6lYDqBhNIi4iVgICUgEKhVyk1x5B+5i3dPDBsBsSID4S/d1KoFbvxD0PQ9QRO7p/qCZHovQUKYUO4K5V7UOE4jGULMtvQzU8orX5hupYJ+tNSmssuAGeXqCIYQ6n1E1dH1A6IFag9QbMQsYgQasJ4IYagChPGO5lhD2INMOmyp7W+mY6n6hihGhj3n8x+Byy37McDrUJ+kdQTIqxlVCeMSryWiKm84lfC5G0hS/MpyMGQ2kUY5NPxEMDk34czibb2wAIDKMHv8ApFVlxuM8VBKp1nMzabrUzG84HMF0N+9ViNbDdYOuZbS65z/cxOJmk7i2RQafeV2rWXX9JlplxcaRBYK75jZtMczKxTb9TBUdX/SJaNGIFseb5hasfbPESl5KlK0ykxRAlrjx1HTZi6vwwgSvzkn6gINmSMEoNT3vEOUQ5m/D5qsRAi8bxBuxdkYqUDiMWjjJEylNB9w0UvPcKILZtRotlLpwmVoRqn4hMNsqstjzpKvEdG34hYs1Llw9Bhi5cGEEXiEHoFcqymItQS88QRn3VOV5Xa8yhqDLly4MuLFGZrw/aWtJXSDHQyuVsXLkla9prLix4ZUszZ+I1hzCCyeY1oIig+4IgcQABU8CFeI4TEpAxMCGCAgQaKh1JljtiZNL6dQSxIsStT5Cj05Z2VHTW5lShYTrCmA036r27PzL0Nmbq/4x2sNvcWsqd07IWZKqAM37dviOHEyyHvSPQPFpRexa1aNhsF21HrYnCw9BODeIeQXLeGApnDvzLugv/JZaAVzDWMBmUqs9MazZVwkjdWRQUBWqmdRT9ZlRb5cdsuanvpDio83Tn8PEuAo2vvxORIc4hUjv3miN2zUs2vjn+8QyaEhdgps/9m7MY3f7l3Rm9a3BU6+rirV3KqotDmOqKEtbsHPnDANBzUGOaRY1NGAV1kVx1DQt5zCkBXMomoFz3qIjFkYitrUOpgUGDb1ELRqg/EXA0uSAlqz2ZDv41z8QCTpxCVdBERv5ncF8PUWDLnuj6Ay5cG4MH1Ly5N1yQBLvtdzEqKDBgwZcuXLjCiwG0Ua+LHlKkJ84mHjmCoakfQoJXmlZv8xs3FwiCS2hqYcKlbConCYZQw3DP/sLlnVNcXEFMkvM9w9Fh8SpZ5izZT+43K09TfC7uT4ImJ4TRqJFKJVSop7tR6orcfldfn3gFLY2jDA9icDHJ5VzrutzGNRBGzeXVWOdNTQN/mB8QipuNBaYOpRNQ6/MJPlY/UbApJtFeeYCAJzpZAQUvMyAzartkfDx7QCg3ZURYbarPvGJY80eSBzA/wDZoDZX1KimrbOI7LlneTMds+TPFRAlnT+EeBSr8Q95v3jgvGQ/vtMBfGdznJVHMq32/j3gGs1W/eF02m8MV7gPsBa1q8lcc1BorBVWVo1q6C+JUJVRNZx/MFCiXMko6UDn8kBLNQys3C6zGhe2N6Dk3Khw224lDttnGLlAWWYc5PeWaqDa7mRRTzLWunqYVz8Gl/BNXvMkcD0F509wd1g/uXLly5cIQletgW6hVtjo/wAUGEPW4suLFLlwbKdRJat/Ig2Diplryz4iphBYegimA+VPEAYyzy+jl7zHj1GoyokxcyoMwe4TqI1mA1mHW4Po+SZjMyPoBCqVywQ03nuINfbuAsRsfn02ANy45ct+0HKcSpFy4jurVOooDRALRLmupU9cyjqHHPB7dn5iEAuiWfivESV+hhuv4n46gpsjvPqGx13LlwvmYmynutyy1Z1H1r8NCnwPvhhexer7m14fDXiLFKdW7msM6zChRb4xcpRveTG5bqC6qZhrOKf9QYiNgq+Ii9tvAfMuLLHG93j7iSgWEV+X38zUDtzMOTRdsRSFyVCzz75lAB3muJmLMDfcch0lsrKdxGt3f4hXQ2ihi+xpYfxaCoP9vmEIGiHkP+4H3GpVDK0H6xHATgAq7DxmMrqQHlzL1iaFBgurYRozs38eYjFAEUrfEQK0Ly9rKzdWH2hklYbf4nAp69iGbN61srnxSgwHuoRB8QjAJTFd89vX3hAhAgYlRoLYi/QdQP8AAEIMuDLixZcW4pcviLEzpevp3H784KCjBhgwlQwc/Qy8DK03LtLzNytxOCSi7qGEc0xjuN5Z5E5lxsWzyzT6flmuZCEOO5h3DxOpibZj3DbvUXZ4FnMESzUdicZgblZ+mVbAvUEuln7jZOTP3DAZTmDKPBFF2Th6l6sgcTaXNgNmKbqGXAbli62D+OpnSK24aDbwZeIgLqCst/uK3M2Xj+JsTmCOmMryPiVTpoGxOkcSy8aur4vJ1zx1GAlj3HSkXzqAFAmf74gO5S3d18cxd2lDV3+44Wi48RoUG6Tk8MU7uyoGTXI4vcpCX3cQjvyuJYbW7rH7lChu9MdJTvx1E2hahcdlsqKvjMQUHxBonuytMh/EuKJTV2MS6GzH8QU3NGhpS3z1bEkyAKwKlOfxHIvLjiJaIblbrFsUXt4S9sb4942FShnnMQDkLrqUVBUPuClyzUFYAkvyP4Rr2BcQSRYrMUsQuOfSorLTqUFk/KCBAgQI1kxl5ODqBAg/wB6kuXH0YoxtFiVqNSSwcN7hoG37hw9otEWNCVZOJWRzUUR5huEfAm97SnFxFwnmIpmEw3X6iYxEOI1aiYo9FUneiFQucJiNfMwW2YssLRlixMSzN3/giZfM7iHrfIwL0sxaU27jRutp2QNmsCozFdHVVOc3zvcTQVmvjuAGeQmTRjDAql9uYPwGv3DzOqb7iy1EudMSzDjGZsDmMVHmIqAe0XLxxw/zzfZHbVxLAeUA/RKsMOrh97fqXMTeXIo6T+YIDvx63iILx5sT5L5luUpbzj48xkuR4bjktLuoAAbXZKVFBx98/uGBhmsLyRQbyOkh0il4+YKMPOY1WEvB7hM1khFgCxFWH3Liu2IXxjMuVI1b+EesE47/AGVx9QvvBaK+xiGXzY7G82uL4lXiUBQH8EXa7YjrHriA28OpdIo9jTHbilDh6eL+oYVRnh9+JU0NqqXZmqqoEBI3kNSwKtr3r2mU7LHzK0LTHvd/ZKGKBnwxSaUpmJLODOZUUXFzLWRlejLY1GTTiKgegIoP0Rr5P1AgQIEMQh6Hq/4PqLMDKoWAN3NUEA6livPbqLZiMVKbhxKsncf3TCBT7xEdck4GVuOIwVmCFjUK+IFQMZIdbIHc7UG9ztEK6gUZhhuXWgC9oRXvU3ZlVlxDNoN9wMPhPomKwlUHTG1UblShuNIqlq6ija1NOiWpYnNytAIcEzSUFhYhK2BvHJ9+Jmadehc4YEZj48zBrHMCn3qUMH4hnX1KZVmEl5uq/MC7sOYqGX3Ni4CpYpBMef3L/AR/qpYajkFLG2nPN7alNDnr/aKWB7hn9SkLZot2+I0VDxnVTCrVdWmZlHi8Kt4RJ8ntgChToCNrmv3mBjXFTbePeFjl+II8N8YnJda6/L/qaizfZ/ECpK9zcCmF6u6xDKw1MdPvAajg+4atQ8xGkdlV0dzALC92Ju4qr2PB5epqiVwZmMvDeGcA5Q1EdpfgET+Y0VrHw1/EwjGMTcETGRHuGzOZUqVBTMCNOfMCGYtPLomS8v0hD0IQgwhCEv8Awq4MesoMfQS5wWncoE0QKvXklyiMvaxKi46uXNeYRgnc6EExymWF3KamWYS2AaZ2P5mm4ekDIzLuYT3LduI3HPtM72lPyj05lJXEJy/fg/mcAeIWzK1UzakA5ZQu1+SVhS+0bm97zBFQbuopZCcTAG66iFlFI2Sxd/cuuSrimmooGsRDuM+zEJ1iKGLlV3o/1uVkXHP9+JWx/Pn8TNYlvniuI2bTv29o0y40yhx/eYytcGjuczViH3AsajI2688wuEplzdXcFd4FZkVB2t2xxABv2eGZqfgf9H8ywAq6wWFfWYBfB7D+f9RBhaYqs39Yit5XyB+8xM0m2LP6xHMcKzdf9TmDjC5+IoIiGv8AozFZD0RVyRVA0nMtgsl3WMQxqr3uGNEUO/h7I9IUYGA8RM6GgIjxLtDGcjHHiE6CuTqOYsP7YqILj9wFIkym7yh/JKwi4QKxU0i8FwqMqZgbUgHZAOLPOpa6f1UCzzKhqEIQhCHoehCHpU0lZzm0uKFniWe5FhK0mv2lArxDQj3zEsANZGVXOrh1R7jsfMJqWCFnUIkQfQdbglZlwziUhLMjPMfcT6mBn+UoLw95Rhve4kWWArLRv0fZO9DNWfuP4QL9piIFtELJav65l5ZnvqCZuTsFLTkj7uJL4OowAk9wQBKb8TrNr3CfUcAtX5PJ1rMd0CEHATY/NwAVo3BqNNREzqBDMA5fiPJ7g68e8r1VupnBclEQrGdfN/cxhbazdX7c8xRFAX9Ff7Irpc/uLBLYsx+olizjXErCLuiVgODMvVxvxiUO735ioVaJQ1TS4ItBlaxCESrx4j3am4a2lQSIcrjsCVBZtjI/AzC7Ua6d+6A0KPhbY+0wcYHYNPvMljXFuPYJQ0WGX/sxgWlxtx7QjkU5p9d+6Zj7UH6MSolUWKWiTSyWPH33Bprazye0bBCqG7lOGe+pThz2XnVyiht255MRlqYrbq+DxeagAUznEwNYeJZx6XjJvzHSwa+0sOpdDG75hnOhjKlQlFQv/UyWQv2lE08Qh/mQYS5cuHrU09GB6VORLm8zc94pYEVkbpiZBPiOmh3epSY9y5p3Hd+YMpVOZQY9SjBxOIs8OePO4THzGYtHmUsZcyc490+Zc7S3vCFZPMWLcU5UG8tRPNkibYm/iXSzldXp76hAFxicrB/NwkKNUFxAwx7IQVDiAygr8Rhbf91GVIwKG2VkJ78n6itmZR3jVwEUttcVioq/2NAhCLKnCgDEa3kr3u5ao4MdxW1xEG7uFgWghXSr/RNxyrhPOP39SxaxVj7RXJdU54lhSUazL1Rd6nCnLr/c5TRn3igX/wCc3CKDuBwAzz158wqw4+5bac5ZfQaCOmFw254mOyC7/wBwSiWAVFbPfDNxPvR+WBk+ArPfEcUQXeXyYz8xAoHd7o++JSZC5vA9o4HLRWl+ogWlYRTzW+sSwFkmRTq3F7jF2urVfVxggo5triNnCsvIkLbRWeCv5hJRAtzdVGrFwHPzmBHcBs5ziCtGYPI8P4zESmNPbzcWr0x2P8kCgIvwBYkurArq3n0FHviC0MpZpD6uHd2mX1KjQW6glo6JQ7JTGCNeBDUPQhCHoeowZfoMIQYg36X6jLmvceB5jx+JSD/hMHbyxwcyjNxPdC5SvMNeljPc/Eyj2osX+MxmmCNuWl5mnjlKeZqJgnt6Ab1u4lpqY1gXluv9oFjKMkvYcEQ2c9jKYNnmX1u1VuFVugYI0rJwLQ50TNZg9mfMOUq6NxZC5NKFY95XUI+I1iCApdFOzs2MuAKHnmJ6DQPmI0Vfe/mca86hpFz5jcQ9/wDOIgxVsYY0W/1jdwhGw5+5edAK/vmV0tQRrUO5gUG8xAW5Y0I8sHxCKr/yFVjn24l9Alf3UANruA0U7eohgesdRRKdkp2la8y9o5Huo5YFkpWdPsxZapsG14rOCYoB1ZwfIfmBQUaVdWt7FzGOwSyWT4wv3iFDYqmxitubiG1A1a0ONIPJUzVb78I6LXYDgTwY/wBQIrgrANjd3AzEMbz2gDoYDalCFwl3pgoGCb8wBMEMmmjrQxhUKyXd/pl3fssbejd1EqE3r9oWMAmy23PvCUBQvv6MrJnYs3EuniX224blAtiLfwOpUqESU9h1ASz1JXoegy5cGXBiigxcRRxTNnOSxmZe5E0bfqH/AGS5UpRkhu/ctBhMwHLF47ldBEDGMSJGOJfHpMykoHcPCNepolRagSoMkGJeDNR3MUJIEa5vfXcauRrAcQRz+0IiGTVQhAvW6qCcLwj80GbbIVQYahMxU3nmPIBTV7+ZbKH5xfh8+ZeK5dk2D5EcapWa06GR8w8CN5fI78xEjar7ICXVEaJZzuMsKmsynAF4gIYM/csTj1cRqKr9/wDIiotC8/3yzdYWviUXXXGLxH7TGMu4AOTj6zLGDb/fiUYZKIMLN1FBtx+IioLRzGjhxVAe0XpdRbN6f6RVKuOYZa6nJ1JnNqT6uMZTKV7QMtQWLA+DL9yvuQg1ztzW4ApQyNSuAx8ajdkOAtoX4t+IgDC7E/H03AWLGzHPt/uIIyKkRw6L4+IrkNMAtcXWUvxLXZp7rzRUz95C1g3ohdIIvD/7BL0wFpnyeIO1ulm6rGCNbJpDmzs8TJOBsrkxqbmDg3dLt6YI2jMvEEegJ4W38EPlHpzhap8M1szVNWC4IwNlWHUCVKh6uzB/cuwldPWv8D0uFzML9BCPqvPpfrIl4gpnvqYl6RKIqyTvTtmYQUfMxxVj4JUfaMYeMPGGGp4IKtQU11BdR18ROo3UezHMqPZK6xKxqXz1pVpMCAgVvLEwCb4Ldwb2tQLAuZxr5j4ORPMRxACk6TKHLQLJ/v2jRkNoVfuQSIL0f1mOB8ze5TVZiBQXBdGfeE1ckP8AsQIZ3KOaDmNEjJCOxXLv4iaxXZxAuxxdr9ZgJDHGlnA3H4ocDU/ErIzldjG3fbdjuZMDhElCG8N57h0VkKcHncoVW83Khpx+bhaj769qh0f7jbedShaXVQaGTnUUovHiJ0Crlva7W6Nn4T3qbgbMXeL8Zi5WSgm66bOfBFutqrL+MEFRQc55L7tcRdg6sIqJrYdsoUygrlKo7xe9SggCGNpycuplEEyAuNlZ3xFZHJvw7wGPEcQFAUWcavKIeeBKDUAAcVf8RJCWQZrOK9onzRZZw/qXWGsW59oaNYtwpfESE1RkuEaWUcYAUxdcVeZW4KX0i2HDCNUvUVFHHqUJzFSsx9a9EbfcENfF9OP8/b0PQMGLj1IrgXzA2Rsg8zGiaWPGMq+MryTBl3Lh59MaLpl+sMuIg0gdxEMJTqHjPBA69CvRPBCsldQa1NUrCvaYCOEsUqrvqYW9zAobrxhEx5mWUJF0RcIDgxm/eUUVn8xhCvhBVus5hgTL7+sxilq8Dk+ORhCFVr+sA715gIttt8kEqz8f2pi4pZWog+0Gum8IngZgllFlFl8JRHxNc/v+iEeWawYoLbgL+dRMqXlzUzxtu7eZiUzDoQ6KVsL1TmWB9g1G8k+N/wDY4FZRVv8A3ABSebPzA+HBkSBaq5ahiGNK+pSfrc7w1+JToL11UrZiUulB6HTnpd9MohjkTGP3BSsIOQ687+0j0cNck/f7g2IErCwX7lQFyKH4Y6f32j+V2tHebyeGEJV2uMZ0VlmUC2Li8N05oDmXBsLY4N1nD+7lkDrZbcL5b+aiRtv0MmNcxPBBeBM4haYHyjjuWCXcVv8AEtgpQpde/RCiu1NLwO4Q1lFM1mjzdEu9XvNeM8BqPP6govLO02hp4OEl0QIwu4P6jGP+JMJTklvn+RAJY4iOyUlOyA7JSHdAwHcpKdwPcpE1uFBIWahWzMYvdlcWDPM5qPGXKH7Sj2Jmb7lgYSt94AOqcQwMGogNagBsgm38w6S/UHfo+GeCB16HiuF1PBMEoGNTUgxfPNhDbqY7csGtQzmrC61CBZpl1Apw+JSyJbZMoyusy0Ipgzv7le7aeDp5/UOg39XFzmXvyxa+uvxKVffPBgBr5P8Ak2MH7/6QMEqhby802x9cXkUdHQaDQQutcFPzDkRdBLyiPtEKD1qAEMOp9Mai6MTsiGGmuJs24wjH9IWnTXzCox+7RC/dHFwKq8R3M9KuVZeBn+NysXbmwvya/UFF+5wH2YlYZdBE/ErVWX/dynL3+4h4P9Q3S5huXBY8Aq/n9xhRpvJ+P7cczF6Hn2P+cQSqB3ms/iGFKlYeL8MSFmmBvf8Au2LmEp+s+TUADggTBkviNEpu4GMb735lBKaIY/ncfQd25YHRnyzTJ2lsvmuotvUumjfUbaANlUdHErOc1YbDljtKgp7OvbMz40jQ4t4584heeMNzUvqFZVYdThDCLbLV/mAlwDmI7Insj2RHcT3Hu/MehDsIdn5gOyIG2X13BOaeoHcr2fc8CeY+4GHmiuMInuUuCqA3/tE1s+4MBwy5wy2pxyzOCfkQbG5+AmJn0c32mLvE5jdxX6WcanxsgrGVMtncrhBnlC7sheeD0fBPH6Kdf4Kh1MIH0B1bVyiZKRzFZFqv68Q4a7lnEUJHJ+459iPmiC35iZgCGpYbusRykXbZd3+YSAwVj/svjiXeoracGv8AyXx59/xEa6f77S5jDw7hUrF/D8xtaCMt7+1QK6CGQAGJUVSuxKVRNgYdwsgxFVoo/Mayb9pxcl61ErQK3jc1D6CCWgrkMR2BVqguNqOTg/3Bsh5Bj5lwtd+HvBrW1SH4gVC14Km4XmYSTll89wN7hKa9zH4gAuNBWF95aGm0M+GXNhuKII1c9HmCV2NfE0EL/Zn+6iXVsjXHEHoxTebPkhRCHNOv/ZQrji8c3LAotwUaOpgJSUDP4gKJeG881FQC4VQbOqIiqWNZB/urjOYshVUPEt83IhvhzFJwbK14o5xE5kSKrkTRhzl6i/1JF2rzMQkpUAsUP6ipo0X0aq8b1FJXs3znPtLLV6LMXh5RmdR9+g2n+UH/ANeiI4+7EHGJ6fcq4Q6n3Gj/AHgOqPcToLn9LKbp9yhoQHX7iK/2lf8A1KV/tKXiQ/8AcD/7la0+4emEXlCqHF7g7dREdwE5bjKC2TDzPNM2Ysoz8sd/NOZkIVK56SuQa7gWKVHG19Liunn0acle0fPCgHUPFDwTwoB1O8QOyCOLAHljK84odeGEG8YDVHcQr+WTfvHiwBoMQRFzfnMzMy4y9L0sn8zbGgtanQHo3MwQ5P7crdVg/uZznnEX74igC7vHvNDxEraPR/6QS3z/AHc4r/fmA8MCfZH4y34gjOnYyxUC7lNHf3KBjjUs94JebqI44MQwIimYePMsAT2iTbg5m9cBryjUFXz7R2kotOAX53LRjzAyr/sJWjzKHEa6vDZlh4eECcd/UaLQ9u4UXoRbUZYsQXqmAVtGUZp7efOEpQjWWgBrV3Q8EM2C0yREf5hlLAr7xHIrtAUeWUTPkfPORF5YqUIr5bgUMaIVufxFC7KrARiwLGBrsiQBJmD2auPukWAH0ageGu86FEqDEoj7y3FrKmbc9v8Af3CNKR5cfGoa6afpxUbrbMM6N/iMQVoKCGYFPpRQoOYjmU7/AHF8uKntPuW7Ru2vzHgX7j2se1nTbLI6Ch0NS7hlpzEaGC9wu8zvsYhbftG7WYtsd5hTKzaL/KMVuU5jN02juMiLRKBmL3FH7RXeXGcdpoIBO0I0xgYD9y3db8xG/wCcsWUZcuXhFBe2C1uW9sFvbBe2C9sF7Y2mef8AESKNNGz3YDyIClLlgW0Gs+8VzmNtyxPbG3uCBdytjfXpsjr7zlHb7x2T/cwKf3Mw12TVc1O/NP3D9T9TU40fGfnTWBhfuaHtFB/U/wCxY/2/c5TU4uavuw/T/JP2fzP5QyL6lZPecfmZk5m33fx6a6GCOy+HxEM6Ld/cJsDT9MTbPf8AMX4ylinKpnPX5/2hXo2wxNjNZ1E7f6s1e0ziqll0VNvXeESGKCT5xCCAWab3O0Sty3UYKqAAusf4kWEWD2jCBAK0QHRxArRAVogOjmBej6hWYPqXtPqBRggdH1PdDqB0fUDonSfUzsPqBwIWMEK9EKtH1C6IDgQlmCDJ6WjHbNE0PeaPabs3zX2T9jGbEeMSmXU519xL2xKcsTe2f//Z;" parent="1" vertex="1">
          <mxGeometry x="92.5" y="220" width="280.5" height="187" as="geometry" />
        </mxCell>
        <mxCell id="aELBI8OFU14AnCiIAI6i-45" value="Design  student" style="rounded=1;fillColor=#275DAD;gradientColor=none;strokeColor=none;fontColor=#FFFFFF;fontStyle=0;fontFamily=Tahoma;fontSize=23;whiteSpace=wrap;" parent="1" vertex="1">
          <mxGeometry x="730" y="318" width="176" height="60" as="geometry" />
        </mxCell>
      </root>
    </mxGraphModel>
  </diagram>
</mxfile>
